G04 Layer_Physical_Order=2*
G04 Layer_Color=16711680*
%FSAX24Y24*%
%MOIN*%
G70*
G01*
G75*
%ADD17R,0.0217X0.0236*%
%ADD19R,0.0571X0.0512*%
%ADD21C,0.0100*%
%ADD22C,0.0080*%
%ADD23C,0.0200*%
%ADD24C,0.0150*%
G04:AMPARAMS|DCode=27|XSize=78.7mil|YSize=35.4mil|CornerRadius=17.7mil|HoleSize=0mil|Usage=FLASHONLY|Rotation=0.000|XOffset=0mil|YOffset=0mil|HoleType=Round|Shape=RoundedRectangle|*
%AMROUNDEDRECTD27*
21,1,0.0787,0.0000,0,0,0.0*
21,1,0.0433,0.0354,0,0,0.0*
1,1,0.0354,0.0217,0.0000*
1,1,0.0354,-0.0217,0.0000*
1,1,0.0354,-0.0217,0.0000*
1,1,0.0354,0.0217,0.0000*
%
%ADD27ROUNDEDRECTD27*%
G04:AMPARAMS|DCode=28|XSize=35.4mil|YSize=35.4mil|CornerRadius=17.7mil|HoleSize=0mil|Usage=FLASHONLY|Rotation=0.000|XOffset=0mil|YOffset=0mil|HoleType=Round|Shape=RoundedRectangle|*
%AMROUNDEDRECTD28*
21,1,0.0354,0.0000,0,0,0.0*
21,1,0.0000,0.0354,0,0,0.0*
1,1,0.0354,0.0000,0.0000*
1,1,0.0354,0.0000,0.0000*
1,1,0.0354,0.0000,0.0000*
1,1,0.0354,0.0000,0.0000*
%
%ADD28ROUNDEDRECTD28*%
%ADD29C,0.0236*%
%ADD30C,0.0276*%
%ADD31R,0.0299X0.0945*%
G36*
X029547Y021332D02*
X029540Y021291D01*
X029410Y021316D01*
X029490Y021389D01*
X029547Y021332D01*
D02*
G37*
G36*
X016736D02*
X016729Y021291D01*
X016599Y021316D01*
X016679Y021389D01*
X016736Y021332D01*
D02*
G37*
G36*
X030135Y021082D02*
X030019Y021139D01*
Y021219D01*
X030135Y021275D01*
Y021082D01*
D02*
G37*
G36*
X017324D02*
X017208Y021139D01*
Y021219D01*
X017324Y021275D01*
Y021082D01*
D02*
G37*
G36*
X037170Y020872D02*
X037090D01*
X037033Y020988D01*
X037226D01*
X037170Y020872D01*
D02*
G37*
G36*
X024359D02*
X024279D01*
X024222Y020988D01*
X024415D01*
X024359Y020872D01*
D02*
G37*
G36*
X035138Y020930D02*
Y020850D01*
X035042Y020810D01*
Y020969D01*
X035138Y020930D01*
D02*
G37*
G36*
X022327D02*
Y020850D01*
X022231Y020810D01*
Y020969D01*
X022327Y020930D01*
D02*
G37*
G36*
X034385Y020729D02*
X034292Y020692D01*
X034239Y020752D01*
X034282Y020850D01*
X034385Y020729D01*
D02*
G37*
G36*
X021574D02*
X021481Y020692D01*
X021428Y020752D01*
X021471Y020850D01*
X021574Y020729D01*
D02*
G37*
G36*
X033463Y020702D02*
X033284Y020632D01*
X033265Y020741D01*
X033349Y020771D01*
X033463Y020702D01*
D02*
G37*
G36*
X020652D02*
X020473Y020632D01*
X020454Y020741D01*
X020538Y020771D01*
X020652Y020702D01*
D02*
G37*
G36*
X030396Y020560D02*
X030316D01*
X030259Y020676D01*
X030452D01*
X030396Y020560D01*
D02*
G37*
G36*
X017585D02*
X017505D01*
X017448Y020676D01*
X017641D01*
X017585Y020560D01*
D02*
G37*
G36*
X035138Y020438D02*
Y020358D01*
X035042Y020318D01*
Y020477D01*
X035138Y020438D01*
D02*
G37*
G36*
X034297Y020318D02*
X034201Y020358D01*
Y020438D01*
X034297Y020477D01*
Y020318D01*
D02*
G37*
G36*
X022327Y020438D02*
Y020358D01*
X022231Y020318D01*
Y020477D01*
X022327Y020438D01*
D02*
G37*
G36*
X021486Y020318D02*
X021390Y020358D01*
Y020438D01*
X021486Y020477D01*
Y020318D01*
D02*
G37*
G36*
X036636Y020240D02*
X036500Y020104D01*
X036458Y020226D01*
X036514Y020282D01*
X036636Y020240D01*
D02*
G37*
G36*
X023825D02*
X023689Y020104D01*
X023647Y020226D01*
X023703Y020282D01*
X023825Y020240D01*
D02*
G37*
G36*
X030107Y021024D02*
X030110Y021024D01*
X030157Y020992D01*
X030218Y020980D01*
X030232Y020930D01*
X030213Y020917D01*
X030169Y020851D01*
X030154Y020774D01*
X030169Y020697D01*
X030201Y020650D01*
X030201Y020647D01*
X030254Y020539D01*
Y020299D01*
X029888Y019934D01*
X029842Y019959D01*
X029851Y020004D01*
X029836Y020081D01*
X029792Y020147D01*
X029727Y020190D01*
X029650Y020206D01*
X029572Y020190D01*
X029507Y020147D01*
X029463Y020081D01*
X029448Y020004D01*
X029463Y019927D01*
X029507Y019861D01*
X029548Y019834D01*
Y018980D01*
X029555Y018941D01*
X029578Y018908D01*
X029737Y018749D01*
X029770Y018726D01*
X029809Y018719D01*
X029906D01*
X029932Y018669D01*
X029916Y018644D01*
X029901Y018567D01*
X029916Y018490D01*
X029960Y018424D01*
X030025Y018381D01*
X030080Y018370D01*
X030083Y018368D01*
X030197Y018328D01*
X030266Y018259D01*
X030300Y018237D01*
X030339Y018229D01*
X030887D01*
X030976Y018140D01*
X030955Y018090D01*
X028947Y018090D01*
X028935Y018108D01*
X028891Y018137D01*
X028906Y018187D01*
X028980D01*
X029073Y018206D01*
X029151Y018258D01*
X029204Y018337D01*
X029222Y018429D01*
X029204Y018522D01*
X029151Y018600D01*
X029079Y018648D01*
X029076Y018675D01*
X029079Y018702D01*
X029151Y018750D01*
X029167Y018773D01*
X029217Y018758D01*
Y018724D01*
X029227Y018672D01*
X029257Y018627D01*
X029469Y018415D01*
X029468Y018409D01*
X029483Y018332D01*
X029527Y018267D01*
X029592Y018223D01*
X029669Y018208D01*
X029746Y018223D01*
X029812Y018267D01*
X029856Y018332D01*
X029871Y018409D01*
X029856Y018487D01*
X029812Y018552D01*
X029746Y018596D01*
X029669Y018611D01*
X029663Y018610D01*
X029492Y018781D01*
Y019669D01*
X029492Y019669D01*
X029481Y019722D01*
X029452Y019767D01*
X029452Y019767D01*
X029215Y020003D01*
X029188Y020021D01*
X029151Y020077D01*
X029079Y020125D01*
X029076Y020152D01*
X029079Y020179D01*
X029151Y020227D01*
X029197Y020296D01*
X029256D01*
X029295Y020303D01*
X029328Y020326D01*
X029426Y020424D01*
X029449Y020457D01*
X029456Y020496D01*
Y020651D01*
X029882Y021077D01*
X029998D01*
X030107Y021024D01*
D02*
G37*
G36*
X017296D02*
X017299Y021024D01*
X017346Y020992D01*
X017407Y020980D01*
X017421Y020930D01*
X017402Y020917D01*
X017358Y020851D01*
X017343Y020774D01*
X017358Y020697D01*
X017390Y020650D01*
X017390Y020647D01*
X017443Y020539D01*
Y020299D01*
X017077Y019934D01*
X017031Y019959D01*
X017040Y020004D01*
X017025Y020081D01*
X016981Y020147D01*
X016916Y020190D01*
X016839Y020206D01*
X016761Y020190D01*
X016696Y020147D01*
X016652Y020081D01*
X016637Y020004D01*
X016652Y019927D01*
X016696Y019861D01*
X016737Y019834D01*
Y018980D01*
X016744Y018941D01*
X016766Y018908D01*
X016926Y018749D01*
X016959Y018726D01*
X016998Y018719D01*
X017095D01*
X017121Y018669D01*
X017105Y018644D01*
X017090Y018567D01*
X017105Y018490D01*
X017149Y018424D01*
X017214Y018381D01*
X017269Y018370D01*
X017271Y018368D01*
X017386Y018328D01*
X017455Y018259D01*
X017489Y018237D01*
X017528Y018229D01*
X018076D01*
X018165Y018140D01*
X018144Y018090D01*
X016136Y018090D01*
X016124Y018108D01*
X016080Y018137D01*
X016095Y018187D01*
X016169D01*
X016262Y018206D01*
X016340Y018258D01*
X016393Y018337D01*
X016411Y018429D01*
X016393Y018522D01*
X016340Y018600D01*
X016268Y018648D01*
X016265Y018675D01*
X016268Y018702D01*
X016340Y018750D01*
X016356Y018773D01*
X016406Y018758D01*
Y018724D01*
X016416Y018672D01*
X016446Y018627D01*
X016658Y018415D01*
X016657Y018409D01*
X016672Y018332D01*
X016716Y018267D01*
X016781Y018223D01*
X016858Y018208D01*
X016935Y018223D01*
X017001Y018267D01*
X017045Y018332D01*
X017060Y018409D01*
X017045Y018487D01*
X017001Y018552D01*
X016935Y018596D01*
X016858Y018611D01*
X016852Y018610D01*
X016681Y018781D01*
Y019669D01*
X016681Y019669D01*
X016670Y019722D01*
X016641Y019767D01*
X016641Y019767D01*
X016404Y020003D01*
X016377Y020021D01*
X016340Y020077D01*
X016268Y020125D01*
X016265Y020152D01*
X016268Y020179D01*
X016340Y020227D01*
X016386Y020296D01*
X016445D01*
X016484Y020303D01*
X016517Y020326D01*
X016615Y020424D01*
X016638Y020457D01*
X016645Y020496D01*
Y020651D01*
X017071Y021077D01*
X017187D01*
X017296Y021024D01*
D02*
G37*
G36*
X026939Y019875D02*
X026921Y019766D01*
X026741Y019836D01*
X026856Y019905D01*
X026939Y019875D01*
D02*
G37*
G36*
X014128D02*
X014110Y019766D01*
X013930Y019836D01*
X014045Y019905D01*
X014128Y019875D01*
D02*
G37*
G36*
X036818Y019832D02*
X036776Y019710D01*
X036639Y019846D01*
X036761Y019889D01*
X036818Y019832D01*
D02*
G37*
G36*
X024007D02*
X023965Y019710D01*
X023828Y019846D01*
X023950Y019889D01*
X024007Y019832D01*
D02*
G37*
G36*
X030140Y019315D02*
X029947D01*
X030003Y019431D01*
X030083D01*
X030140Y019315D01*
D02*
G37*
G36*
X017329D02*
X017136D01*
X017192Y019431D01*
X017272D01*
X017329Y019315D01*
D02*
G37*
G36*
X036129Y019143D02*
X036087Y019021D01*
X035950Y019157D01*
X036072Y019200D01*
X036129Y019143D01*
D02*
G37*
G36*
X023318D02*
X023276Y019021D01*
X023139Y019157D01*
X023261Y019200D01*
X023318Y019143D01*
D02*
G37*
G36*
X028538Y021721D02*
X028545Y021711D01*
X028546Y021708D01*
X028522Y021658D01*
X028475Y021652D01*
X028407Y021624D01*
X028350Y021580D01*
X028305Y021522D01*
X028277Y021454D01*
X028274Y021432D01*
X029253D01*
X029250Y021454D01*
X029222Y021522D01*
X029178Y021580D01*
X029120Y021624D01*
X029053Y021652D01*
X029005Y021658D01*
X028982Y021708D01*
X028982Y021711D01*
X028990Y021721D01*
X034443Y021721D01*
X034451Y021711D01*
X034451Y021708D01*
X034428Y021658D01*
X034380Y021652D01*
X034313Y021624D01*
X034255Y021580D01*
X034211Y021522D01*
X034183Y021454D01*
X034180Y021432D01*
X035159D01*
X035156Y021454D01*
X035128Y021522D01*
X035084Y021580D01*
X035026Y021624D01*
X034958Y021652D01*
X034911Y021658D01*
X034887Y021708D01*
X034888Y021711D01*
X034895Y021721D01*
X037469Y021721D01*
X037469Y018090D01*
X034852Y018090D01*
X034840Y018108D01*
X034796Y018137D01*
X034812Y018187D01*
X034886D01*
X034978Y018206D01*
X035057Y018258D01*
X035109Y018337D01*
X035128Y018429D01*
X035109Y018522D01*
X035057Y018600D01*
X034985Y018648D01*
X034981Y018675D01*
X034985Y018702D01*
X035057Y018750D01*
X035109Y018829D01*
X035128Y018921D01*
X035109Y019014D01*
X035057Y019092D01*
X035022Y019116D01*
X035026Y019171D01*
X035084Y019216D01*
X035128Y019274D01*
X035156Y019341D01*
X035159Y019363D01*
X034669D01*
Y019463D01*
X035159D01*
X035156Y019486D01*
X035128Y019553D01*
X035084Y019611D01*
X035026Y019655D01*
X035022Y019711D01*
X035057Y019735D01*
X035109Y019813D01*
X035128Y019906D01*
X035109Y019998D01*
X035057Y020077D01*
X034985Y020125D01*
X034981Y020152D01*
X034985Y020179D01*
X035057Y020227D01*
X035082Y020264D01*
X035158Y020296D01*
X036300D01*
X036399Y020197D01*
X036439Y020083D01*
X036440Y020080D01*
X036451Y020025D01*
X036495Y019960D01*
X036531Y019936D01*
Y019875D01*
X036495Y019851D01*
X036451Y019786D01*
X036436Y019709D01*
X036451Y019631D01*
X036461Y019617D01*
X036438Y019573D01*
X036400D01*
X036361Y019565D01*
X036328Y019543D01*
X036043Y019258D01*
X035929Y019219D01*
X035927Y019217D01*
X035872Y019206D01*
X035806Y019162D01*
X035763Y019097D01*
X035747Y019020D01*
X035763Y018943D01*
X035806Y018877D01*
X035872Y018833D01*
X035949Y018818D01*
X036026Y018833D01*
X036091Y018877D01*
X036135Y018943D01*
X036146Y018998D01*
X036148Y019000D01*
X036188Y019114D01*
X036442Y019369D01*
X036755D01*
X036794Y019377D01*
X036828Y019399D01*
X037202Y019773D01*
X037224Y019806D01*
X037232Y019845D01*
Y020851D01*
X037285Y020960D01*
X037285Y020963D01*
X037316Y021009D01*
X037332Y021087D01*
X037316Y021164D01*
X037273Y021229D01*
X037207Y021273D01*
X037130Y021288D01*
X037053Y021273D01*
X036987Y021229D01*
X036944Y021164D01*
X036928Y021087D01*
X036944Y021009D01*
X036975Y020963D01*
X036975Y020960D01*
X037028Y020851D01*
Y020358D01*
X037008Y020346D01*
X036978Y020339D01*
X036631Y020686D01*
X036598Y020708D01*
X036559Y020716D01*
X035530D01*
X035285Y020962D01*
X035252Y020984D01*
X035213Y020992D01*
X035158D01*
X035082Y021023D01*
X035057Y021061D01*
X035022Y021084D01*
X035026Y021140D01*
X035084Y021184D01*
X035128Y021242D01*
X035156Y021310D01*
X035159Y021332D01*
X034180D01*
X034183Y021310D01*
X034211Y021242D01*
X034255Y021184D01*
X034313Y021140D01*
X034317Y021084D01*
X034282Y021061D01*
X034229Y020982D01*
X034211Y020890D01*
X034216Y020863D01*
X034181Y020782D01*
X033889Y020489D01*
X033866Y020456D01*
X033854Y020418D01*
X033813Y020421D01*
X033605D01*
X033578Y020471D01*
X033596Y020498D01*
X033611Y020575D01*
X033596Y020652D01*
X033552Y020717D01*
X033501Y020751D01*
X033497Y020757D01*
X033382Y020827D01*
X033380Y020827D01*
X033068Y021139D01*
Y021187D01*
X033060Y021226D01*
X033038Y021259D01*
X032903Y021395D01*
X032869Y021417D01*
X032830Y021425D01*
X030623D01*
X030496Y021552D01*
X030463Y021575D01*
X030424Y021582D01*
X030011D01*
X029972Y021575D01*
X029939Y021552D01*
X029849Y021463D01*
X029519D01*
X029480Y021455D01*
X029460Y021442D01*
X029447Y021437D01*
X029371Y021368D01*
X029310Y021328D01*
X029301Y021315D01*
X029256Y021332D01*
X028274D01*
X028277Y021310D01*
X028305Y021242D01*
X028350Y021184D01*
X028407Y021140D01*
X028411Y021084D01*
X028376Y021061D01*
X028330Y020992D01*
X028291D01*
X028252Y020984D01*
X028219Y020962D01*
X028092Y020834D01*
X027130D01*
X027091Y020826D01*
X027058Y020804D01*
X026822Y020568D01*
X026800Y020535D01*
X026792Y020496D01*
Y020343D01*
X026718Y020328D01*
X026653Y020284D01*
X026609Y020219D01*
X026594Y020142D01*
X026609Y020065D01*
X026653Y019999D01*
X026718Y019955D01*
X026723Y019955D01*
X026731Y019905D01*
X026708Y019891D01*
X026704Y019885D01*
X026653Y019851D01*
X026609Y019786D01*
X026594Y019709D01*
X026609Y019631D01*
X026653Y019566D01*
X026718Y019522D01*
X026795Y019507D01*
X026872Y019522D01*
X026938Y019566D01*
X026982Y019631D01*
X026997Y019709D01*
X026986Y019763D01*
X027001Y019849D01*
X027025Y019873D01*
X027025Y019873D01*
X027143Y019991D01*
X027165Y020024D01*
X027173Y020063D01*
Y020414D01*
X027231Y020473D01*
X028092D01*
X028239Y020326D01*
X028272Y020303D01*
X028311Y020296D01*
X028330D01*
X028376Y020227D01*
X028448Y020179D01*
X028452Y020152D01*
X028448Y020125D01*
X028376Y020077D01*
X028324Y019998D01*
X028305Y019906D01*
X028324Y019813D01*
X028376Y019735D01*
X028411Y019711D01*
X028407Y019655D01*
X028350Y019611D01*
X028305Y019553D01*
X028277Y019486D01*
X028274Y019463D01*
X028764D01*
Y019363D01*
X028274D01*
X028277Y019341D01*
X028305Y019274D01*
X028350Y019216D01*
X028407Y019171D01*
X028411Y019116D01*
X028376Y019092D01*
X028324Y019014D01*
X028305Y018921D01*
X028324Y018829D01*
X028376Y018750D01*
X028448Y018702D01*
X028452Y018675D01*
X028448Y018648D01*
X028376Y018600D01*
X028324Y018522D01*
X028305Y018429D01*
X028324Y018337D01*
X028376Y018258D01*
X028455Y018206D01*
X028547Y018187D01*
X028622D01*
X028637Y018137D01*
X028593Y018108D01*
X028581Y018090D01*
X025964Y018090D01*
X025964Y021721D01*
X028538Y021721D01*
D02*
G37*
G36*
X015727D02*
X015734Y021711D01*
X015735Y021708D01*
X015711Y021658D01*
X015664Y021652D01*
X015596Y021624D01*
X015539Y021580D01*
X015494Y021522D01*
X015466Y021454D01*
X015463Y021432D01*
X016442D01*
X016439Y021454D01*
X016411Y021522D01*
X016367Y021580D01*
X016309Y021624D01*
X016242Y021652D01*
X016194Y021658D01*
X016171Y021708D01*
X016171Y021711D01*
X016179Y021721D01*
X021632Y021721D01*
X021640Y021711D01*
X021640Y021708D01*
X021617Y021658D01*
X021569Y021652D01*
X021502Y021624D01*
X021444Y021580D01*
X021400Y021522D01*
X021372Y021454D01*
X021369Y021432D01*
X022348D01*
X022345Y021454D01*
X022317Y021522D01*
X022272Y021580D01*
X022215Y021624D01*
X022147Y021652D01*
X022100Y021658D01*
X022076Y021708D01*
X022077Y021711D01*
X022084Y021721D01*
X024658Y021721D01*
X024658Y018090D01*
X022041Y018090D01*
X022029Y018108D01*
X021985Y018137D01*
X022001Y018187D01*
X022075D01*
X022167Y018206D01*
X022246Y018258D01*
X022298Y018337D01*
X022317Y018429D01*
X022298Y018522D01*
X022246Y018600D01*
X022174Y018648D01*
X022170Y018675D01*
X022174Y018702D01*
X022246Y018750D01*
X022298Y018829D01*
X022317Y018921D01*
X022298Y019014D01*
X022246Y019092D01*
X022211Y019116D01*
X022215Y019171D01*
X022272Y019216D01*
X022317Y019274D01*
X022345Y019341D01*
X022348Y019363D01*
X021858D01*
Y019463D01*
X022348D01*
X022345Y019486D01*
X022317Y019553D01*
X022272Y019611D01*
X022215Y019655D01*
X022211Y019711D01*
X022246Y019735D01*
X022298Y019813D01*
X022317Y019906D01*
X022298Y019998D01*
X022246Y020077D01*
X022174Y020125D01*
X022170Y020152D01*
X022174Y020179D01*
X022246Y020227D01*
X022271Y020264D01*
X022347Y020296D01*
X023489D01*
X023588Y020197D01*
X023628Y020083D01*
X023629Y020080D01*
X023640Y020025D01*
X023684Y019960D01*
X023720Y019936D01*
Y019875D01*
X023684Y019851D01*
X023640Y019786D01*
X023625Y019709D01*
X023640Y019631D01*
X023650Y019617D01*
X023627Y019573D01*
X023589D01*
X023550Y019565D01*
X023517Y019543D01*
X023232Y019258D01*
X023118Y019219D01*
X023116Y019217D01*
X023061Y019206D01*
X022995Y019162D01*
X022951Y019097D01*
X022936Y019020D01*
X022951Y018943D01*
X022995Y018877D01*
X023061Y018833D01*
X023138Y018818D01*
X023215Y018833D01*
X023280Y018877D01*
X023324Y018943D01*
X023335Y018998D01*
X023337Y019000D01*
X023377Y019114D01*
X023631Y019369D01*
X023944D01*
X023983Y019377D01*
X024017Y019399D01*
X024391Y019773D01*
X024413Y019806D01*
X024421Y019845D01*
Y020851D01*
X024474Y020960D01*
X024474Y020963D01*
X024505Y021009D01*
X024521Y021087D01*
X024505Y021164D01*
X024462Y021229D01*
X024396Y021273D01*
X024319Y021288D01*
X024242Y021273D01*
X024176Y021229D01*
X024133Y021164D01*
X024117Y021087D01*
X024133Y021009D01*
X024164Y020963D01*
X024164Y020960D01*
X024217Y020851D01*
Y020358D01*
X024197Y020346D01*
X024167Y020339D01*
X023820Y020686D01*
X023787Y020708D01*
X023748Y020716D01*
X022719D01*
X022474Y020962D01*
X022441Y020984D01*
X022402Y020992D01*
X022347D01*
X022271Y021023D01*
X022246Y021061D01*
X022211Y021084D01*
X022215Y021140D01*
X022272Y021184D01*
X022317Y021242D01*
X022345Y021310D01*
X022348Y021332D01*
X021369D01*
X021372Y021310D01*
X021400Y021242D01*
X021444Y021184D01*
X021502Y021140D01*
X021506Y021084D01*
X021471Y021061D01*
X021418Y020982D01*
X021400Y020890D01*
X021405Y020863D01*
X021370Y020782D01*
X021078Y020489D01*
X021055Y020456D01*
X021043Y020418D01*
X021002Y020421D01*
X020794D01*
X020767Y020471D01*
X020785Y020498D01*
X020800Y020575D01*
X020785Y020652D01*
X020741Y020717D01*
X020690Y020751D01*
X020686Y020757D01*
X020571Y020827D01*
X020569Y020827D01*
X020257Y021139D01*
Y021187D01*
X020249Y021226D01*
X020227Y021259D01*
X020091Y021395D01*
X020058Y021417D01*
X020019Y021425D01*
X017812D01*
X017685Y021552D01*
X017652Y021575D01*
X017613Y021582D01*
X017200D01*
X017161Y021575D01*
X017128Y021552D01*
X017038Y021463D01*
X016708D01*
X016669Y021455D01*
X016649Y021442D01*
X016636Y021437D01*
X016560Y021368D01*
X016499Y021328D01*
X016490Y021315D01*
X016445Y021332D01*
X015463D01*
X015466Y021310D01*
X015494Y021242D01*
X015539Y021184D01*
X015596Y021140D01*
X015600Y021084D01*
X015565Y021061D01*
X015519Y020992D01*
X015480D01*
X015441Y020984D01*
X015408Y020962D01*
X015281Y020834D01*
X014319D01*
X014280Y020826D01*
X014247Y020804D01*
X014011Y020568D01*
X013988Y020535D01*
X013981Y020496D01*
Y020343D01*
X013907Y020328D01*
X013842Y020284D01*
X013798Y020219D01*
X013783Y020142D01*
X013798Y020065D01*
X013842Y019999D01*
X013907Y019955D01*
X013912Y019955D01*
X013920Y019905D01*
X013897Y019891D01*
X013893Y019885D01*
X013842Y019851D01*
X013798Y019786D01*
X013783Y019709D01*
X013798Y019631D01*
X013842Y019566D01*
X013907Y019522D01*
X013984Y019507D01*
X014061Y019522D01*
X014127Y019566D01*
X014171Y019631D01*
X014186Y019709D01*
X014175Y019763D01*
X014190Y019849D01*
X014214Y019873D01*
X014214Y019873D01*
X014332Y019991D01*
X014354Y020024D01*
X014362Y020063D01*
Y020414D01*
X014420Y020473D01*
X015281D01*
X015428Y020326D01*
X015461Y020303D01*
X015500Y020296D01*
X015519D01*
X015565Y020227D01*
X015637Y020179D01*
X015641Y020152D01*
X015637Y020125D01*
X015565Y020077D01*
X015513Y019998D01*
X015494Y019906D01*
X015513Y019813D01*
X015565Y019735D01*
X015600Y019711D01*
X015596Y019655D01*
X015539Y019611D01*
X015494Y019553D01*
X015466Y019486D01*
X015463Y019463D01*
X015953D01*
Y019363D01*
X015463D01*
X015466Y019341D01*
X015494Y019274D01*
X015539Y019216D01*
X015596Y019171D01*
X015600Y019116D01*
X015565Y019092D01*
X015513Y019014D01*
X015494Y018921D01*
X015513Y018829D01*
X015565Y018750D01*
X015637Y018702D01*
X015641Y018675D01*
X015637Y018648D01*
X015565Y018600D01*
X015513Y018522D01*
X015494Y018429D01*
X015513Y018337D01*
X015565Y018258D01*
X015644Y018206D01*
X015736Y018187D01*
X015811D01*
X015826Y018137D01*
X015782Y018108D01*
X015770Y018090D01*
X013153Y018090D01*
X013153Y021721D01*
X015727Y021721D01*
D02*
G37*
G36*
X032313Y018811D02*
X032120D01*
X032177Y018927D01*
X032257D01*
X032313Y018811D01*
D02*
G37*
G36*
X019502D02*
X019309D01*
X019366Y018927D01*
X019446D01*
X019502Y018811D01*
D02*
G37*
G36*
X034359Y018773D02*
X034270Y018741D01*
X034228Y018812D01*
X034277Y018917D01*
X034359Y018773D01*
D02*
G37*
G36*
X021548D02*
X021459Y018741D01*
X021417Y018812D01*
X021466Y018917D01*
X021548Y018773D01*
D02*
G37*
G36*
X031734Y018547D02*
X031541D01*
X031598Y018663D01*
X031678D01*
X031734Y018547D01*
D02*
G37*
G36*
X018923D02*
X018730D01*
X018787Y018663D01*
X018867D01*
X018923Y018547D01*
D02*
G37*
G36*
X030282Y018444D02*
X030226Y018387D01*
X030104Y018429D01*
X030240Y018566D01*
X030282Y018444D01*
D02*
G37*
G36*
X017471D02*
X017415Y018387D01*
X017293Y018429D01*
X017429Y018566D01*
X017471Y018444D01*
D02*
G37*
G36*
X029547Y016395D02*
X029540Y016354D01*
X029410Y016379D01*
X029490Y016452D01*
X029547Y016395D01*
D02*
G37*
G36*
X016736D02*
X016729Y016354D01*
X016599Y016379D01*
X016679Y016452D01*
X016736Y016395D01*
D02*
G37*
G36*
X030135Y016145D02*
X030019Y016202D01*
Y016282D01*
X030135Y016338D01*
Y016145D01*
D02*
G37*
G36*
X017324D02*
X017208Y016202D01*
Y016282D01*
X017324Y016338D01*
Y016145D01*
D02*
G37*
G36*
X037170Y015935D02*
X037090D01*
X037033Y016051D01*
X037226D01*
X037170Y015935D01*
D02*
G37*
G36*
X024359D02*
X024279D01*
X024222Y016051D01*
X024415D01*
X024359Y015935D01*
D02*
G37*
G36*
X035138Y015993D02*
Y015913D01*
X035042Y015873D01*
Y016032D01*
X035138Y015993D01*
D02*
G37*
G36*
X022327D02*
Y015913D01*
X022231Y015873D01*
Y016032D01*
X022327Y015993D01*
D02*
G37*
G36*
X034385Y015792D02*
X034292Y015755D01*
X034239Y015815D01*
X034282Y015913D01*
X034385Y015792D01*
D02*
G37*
G36*
X021574D02*
X021481Y015755D01*
X021428Y015815D01*
X021471Y015913D01*
X021574Y015792D01*
D02*
G37*
G36*
X033463Y015765D02*
X033284Y015695D01*
X033265Y015804D01*
X033349Y015834D01*
X033463Y015765D01*
D02*
G37*
G36*
X020652D02*
X020473Y015695D01*
X020454Y015804D01*
X020538Y015834D01*
X020652Y015765D01*
D02*
G37*
G36*
X030396Y015623D02*
X030316D01*
X030259Y015739D01*
X030452D01*
X030396Y015623D01*
D02*
G37*
G36*
X017585D02*
X017505D01*
X017448Y015739D01*
X017641D01*
X017585Y015623D01*
D02*
G37*
G36*
X035138Y015501D02*
Y015421D01*
X035042Y015381D01*
Y015540D01*
X035138Y015501D01*
D02*
G37*
G36*
X034297Y015381D02*
X034201Y015421D01*
Y015501D01*
X034297Y015540D01*
Y015381D01*
D02*
G37*
G36*
X022327Y015501D02*
Y015421D01*
X022231Y015381D01*
Y015540D01*
X022327Y015501D01*
D02*
G37*
G36*
X021486Y015381D02*
X021390Y015421D01*
Y015501D01*
X021486Y015540D01*
Y015381D01*
D02*
G37*
G36*
X036636Y015303D02*
X036500Y015167D01*
X036458Y015289D01*
X036514Y015345D01*
X036636Y015303D01*
D02*
G37*
G36*
X023825D02*
X023689Y015167D01*
X023647Y015289D01*
X023703Y015345D01*
X023825Y015303D01*
D02*
G37*
G36*
X030107Y016087D02*
X030110Y016087D01*
X030157Y016055D01*
X030218Y016043D01*
X030232Y015993D01*
X030213Y015980D01*
X030169Y015914D01*
X030154Y015837D01*
X030169Y015760D01*
X030201Y015713D01*
X030201Y015710D01*
X030254Y015602D01*
Y015362D01*
X029888Y014997D01*
X029842Y015022D01*
X029851Y015067D01*
X029836Y015144D01*
X029792Y015210D01*
X029727Y015253D01*
X029650Y015269D01*
X029572Y015253D01*
X029507Y015210D01*
X029463Y015144D01*
X029448Y015067D01*
X029463Y014990D01*
X029507Y014924D01*
X029548Y014897D01*
Y014043D01*
X029555Y014004D01*
X029578Y013971D01*
X029737Y013812D01*
X029770Y013789D01*
X029809Y013782D01*
X029906D01*
X029932Y013732D01*
X029916Y013707D01*
X029901Y013630D01*
X029916Y013553D01*
X029960Y013487D01*
X030025Y013444D01*
X030080Y013433D01*
X030083Y013431D01*
X030197Y013391D01*
X030266Y013322D01*
X030300Y013300D01*
X030339Y013292D01*
X030887D01*
X030976Y013203D01*
X030955Y013153D01*
X028947Y013153D01*
X028935Y013171D01*
X028891Y013200D01*
X028906Y013250D01*
X028980D01*
X029073Y013269D01*
X029151Y013321D01*
X029204Y013400D01*
X029222Y013492D01*
X029204Y013585D01*
X029151Y013663D01*
X029079Y013711D01*
X029076Y013738D01*
X029079Y013765D01*
X029151Y013813D01*
X029167Y013836D01*
X029217Y013821D01*
Y013787D01*
X029227Y013735D01*
X029257Y013690D01*
X029469Y013478D01*
X029468Y013472D01*
X029483Y013395D01*
X029527Y013330D01*
X029592Y013286D01*
X029669Y013271D01*
X029746Y013286D01*
X029812Y013330D01*
X029856Y013395D01*
X029871Y013472D01*
X029856Y013550D01*
X029812Y013615D01*
X029746Y013659D01*
X029669Y013674D01*
X029663Y013673D01*
X029492Y013844D01*
Y014732D01*
X029492Y014732D01*
X029481Y014785D01*
X029452Y014830D01*
X029452Y014830D01*
X029215Y015066D01*
X029188Y015084D01*
X029151Y015139D01*
X029079Y015188D01*
X029076Y015215D01*
X029079Y015242D01*
X029151Y015290D01*
X029197Y015359D01*
X029256D01*
X029295Y015366D01*
X029328Y015389D01*
X029426Y015487D01*
X029449Y015520D01*
X029456Y015559D01*
Y015714D01*
X029882Y016140D01*
X029998D01*
X030107Y016087D01*
D02*
G37*
G36*
X017296D02*
X017299Y016087D01*
X017346Y016055D01*
X017407Y016043D01*
X017421Y015993D01*
X017402Y015980D01*
X017358Y015914D01*
X017343Y015837D01*
X017358Y015760D01*
X017390Y015713D01*
X017390Y015710D01*
X017443Y015602D01*
Y015362D01*
X017077Y014997D01*
X017031Y015022D01*
X017040Y015067D01*
X017025Y015144D01*
X016981Y015210D01*
X016916Y015253D01*
X016839Y015269D01*
X016761Y015253D01*
X016696Y015210D01*
X016652Y015144D01*
X016637Y015067D01*
X016652Y014990D01*
X016696Y014924D01*
X016737Y014897D01*
Y014043D01*
X016744Y014004D01*
X016766Y013971D01*
X016926Y013812D01*
X016959Y013789D01*
X016998Y013782D01*
X017095D01*
X017121Y013732D01*
X017105Y013707D01*
X017090Y013630D01*
X017105Y013553D01*
X017149Y013487D01*
X017214Y013444D01*
X017269Y013433D01*
X017271Y013431D01*
X017386Y013391D01*
X017455Y013322D01*
X017489Y013300D01*
X017528Y013292D01*
X018076D01*
X018165Y013203D01*
X018144Y013153D01*
X016136Y013153D01*
X016124Y013171D01*
X016080Y013200D01*
X016095Y013250D01*
X016169D01*
X016262Y013269D01*
X016340Y013321D01*
X016393Y013400D01*
X016411Y013492D01*
X016393Y013585D01*
X016340Y013663D01*
X016268Y013711D01*
X016265Y013738D01*
X016268Y013765D01*
X016340Y013813D01*
X016356Y013836D01*
X016406Y013821D01*
Y013787D01*
X016416Y013735D01*
X016446Y013690D01*
X016658Y013478D01*
X016657Y013472D01*
X016672Y013395D01*
X016716Y013330D01*
X016781Y013286D01*
X016858Y013271D01*
X016935Y013286D01*
X017001Y013330D01*
X017045Y013395D01*
X017060Y013472D01*
X017045Y013550D01*
X017001Y013615D01*
X016935Y013659D01*
X016858Y013674D01*
X016852Y013673D01*
X016681Y013844D01*
Y014732D01*
X016681Y014732D01*
X016670Y014785D01*
X016641Y014830D01*
X016641Y014830D01*
X016404Y015066D01*
X016377Y015084D01*
X016340Y015139D01*
X016268Y015188D01*
X016265Y015215D01*
X016268Y015242D01*
X016340Y015290D01*
X016386Y015359D01*
X016445D01*
X016484Y015366D01*
X016517Y015389D01*
X016615Y015487D01*
X016638Y015520D01*
X016645Y015559D01*
Y015714D01*
X017071Y016140D01*
X017187D01*
X017296Y016087D01*
D02*
G37*
G36*
X026939Y014938D02*
X026921Y014829D01*
X026741Y014899D01*
X026856Y014968D01*
X026939Y014938D01*
D02*
G37*
G36*
X014128D02*
X014110Y014829D01*
X013930Y014899D01*
X014045Y014968D01*
X014128Y014938D01*
D02*
G37*
G36*
X036818Y014895D02*
X036776Y014773D01*
X036639Y014909D01*
X036761Y014952D01*
X036818Y014895D01*
D02*
G37*
G36*
X024007D02*
X023965Y014773D01*
X023828Y014909D01*
X023950Y014952D01*
X024007Y014895D01*
D02*
G37*
G36*
X030140Y014378D02*
X029947D01*
X030003Y014494D01*
X030083D01*
X030140Y014378D01*
D02*
G37*
G36*
X017329D02*
X017136D01*
X017192Y014494D01*
X017272D01*
X017329Y014378D01*
D02*
G37*
G36*
X036129Y014206D02*
X036087Y014084D01*
X035950Y014220D01*
X036072Y014263D01*
X036129Y014206D01*
D02*
G37*
G36*
X023318D02*
X023276Y014084D01*
X023139Y014220D01*
X023261Y014263D01*
X023318Y014206D01*
D02*
G37*
G36*
X028538Y016784D02*
X028545Y016774D01*
X028546Y016771D01*
X028522Y016721D01*
X028475Y016715D01*
X028407Y016687D01*
X028350Y016643D01*
X028305Y016585D01*
X028277Y016517D01*
X028274Y016495D01*
X029253D01*
X029250Y016517D01*
X029222Y016585D01*
X029178Y016643D01*
X029120Y016687D01*
X029053Y016715D01*
X029005Y016721D01*
X028982Y016771D01*
X028982Y016774D01*
X028990Y016784D01*
X034443Y016784D01*
X034451Y016774D01*
X034451Y016771D01*
X034428Y016721D01*
X034380Y016715D01*
X034313Y016687D01*
X034255Y016643D01*
X034211Y016585D01*
X034183Y016517D01*
X034180Y016495D01*
X035159D01*
X035156Y016517D01*
X035128Y016585D01*
X035084Y016643D01*
X035026Y016687D01*
X034958Y016715D01*
X034911Y016721D01*
X034887Y016771D01*
X034888Y016774D01*
X034895Y016784D01*
X037469Y016784D01*
X037469Y013153D01*
X034852Y013153D01*
X034840Y013171D01*
X034796Y013200D01*
X034812Y013250D01*
X034886D01*
X034978Y013269D01*
X035057Y013321D01*
X035109Y013400D01*
X035128Y013492D01*
X035109Y013585D01*
X035057Y013663D01*
X034985Y013711D01*
X034981Y013738D01*
X034985Y013765D01*
X035057Y013813D01*
X035109Y013892D01*
X035128Y013984D01*
X035109Y014077D01*
X035057Y014155D01*
X035022Y014179D01*
X035026Y014234D01*
X035084Y014279D01*
X035128Y014337D01*
X035156Y014404D01*
X035159Y014426D01*
X034669D01*
Y014526D01*
X035159D01*
X035156Y014549D01*
X035128Y014616D01*
X035084Y014674D01*
X035026Y014718D01*
X035022Y014774D01*
X035057Y014798D01*
X035109Y014876D01*
X035128Y014969D01*
X035109Y015061D01*
X035057Y015139D01*
X034985Y015188D01*
X034981Y015215D01*
X034985Y015242D01*
X035057Y015290D01*
X035082Y015327D01*
X035158Y015359D01*
X036300D01*
X036399Y015260D01*
X036439Y015146D01*
X036440Y015143D01*
X036451Y015088D01*
X036495Y015023D01*
X036531Y014999D01*
Y014938D01*
X036495Y014914D01*
X036451Y014849D01*
X036436Y014772D01*
X036451Y014694D01*
X036461Y014680D01*
X036438Y014636D01*
X036400D01*
X036361Y014628D01*
X036328Y014606D01*
X036043Y014321D01*
X035929Y014282D01*
X035927Y014280D01*
X035872Y014269D01*
X035806Y014225D01*
X035763Y014160D01*
X035747Y014083D01*
X035763Y014006D01*
X035806Y013940D01*
X035872Y013896D01*
X035949Y013881D01*
X036026Y013896D01*
X036091Y013940D01*
X036135Y014006D01*
X036146Y014061D01*
X036148Y014063D01*
X036188Y014177D01*
X036442Y014432D01*
X036755D01*
X036794Y014440D01*
X036828Y014462D01*
X037202Y014836D01*
X037224Y014869D01*
X037232Y014908D01*
Y015914D01*
X037285Y016023D01*
X037285Y016026D01*
X037316Y016072D01*
X037332Y016150D01*
X037316Y016227D01*
X037273Y016292D01*
X037207Y016336D01*
X037130Y016351D01*
X037053Y016336D01*
X036987Y016292D01*
X036944Y016227D01*
X036928Y016150D01*
X036944Y016072D01*
X036975Y016026D01*
X036975Y016023D01*
X037028Y015914D01*
Y015421D01*
X037008Y015409D01*
X036978Y015402D01*
X036631Y015749D01*
X036598Y015771D01*
X036559Y015779D01*
X035530D01*
X035285Y016025D01*
X035252Y016047D01*
X035213Y016055D01*
X035158D01*
X035082Y016086D01*
X035057Y016124D01*
X035022Y016147D01*
X035026Y016203D01*
X035084Y016247D01*
X035128Y016305D01*
X035156Y016373D01*
X035159Y016395D01*
X034180D01*
X034183Y016373D01*
X034211Y016305D01*
X034255Y016247D01*
X034313Y016203D01*
X034317Y016147D01*
X034282Y016124D01*
X034229Y016045D01*
X034211Y015953D01*
X034216Y015926D01*
X034181Y015845D01*
X033889Y015552D01*
X033866Y015519D01*
X033854Y015481D01*
X033813Y015484D01*
X033605D01*
X033578Y015534D01*
X033596Y015561D01*
X033611Y015638D01*
X033596Y015715D01*
X033552Y015780D01*
X033501Y015814D01*
X033497Y015820D01*
X033382Y015890D01*
X033380Y015890D01*
X033068Y016202D01*
Y016250D01*
X033060Y016289D01*
X033038Y016322D01*
X032903Y016458D01*
X032869Y016480D01*
X032830Y016488D01*
X030623D01*
X030496Y016615D01*
X030463Y016638D01*
X030424Y016645D01*
X030011D01*
X029972Y016638D01*
X029939Y016615D01*
X029849Y016526D01*
X029519D01*
X029480Y016518D01*
X029460Y016505D01*
X029447Y016500D01*
X029371Y016431D01*
X029310Y016391D01*
X029301Y016378D01*
X029256Y016395D01*
X028274D01*
X028277Y016373D01*
X028305Y016305D01*
X028350Y016247D01*
X028407Y016203D01*
X028411Y016147D01*
X028376Y016124D01*
X028330Y016055D01*
X028291D01*
X028252Y016047D01*
X028219Y016025D01*
X028092Y015897D01*
X027130D01*
X027091Y015889D01*
X027058Y015867D01*
X026822Y015631D01*
X026800Y015598D01*
X026792Y015559D01*
Y015406D01*
X026718Y015391D01*
X026653Y015347D01*
X026609Y015282D01*
X026594Y015205D01*
X026609Y015128D01*
X026653Y015062D01*
X026718Y015018D01*
X026723Y015017D01*
X026731Y014968D01*
X026708Y014954D01*
X026704Y014948D01*
X026653Y014914D01*
X026609Y014849D01*
X026594Y014772D01*
X026609Y014694D01*
X026653Y014629D01*
X026718Y014585D01*
X026795Y014570D01*
X026872Y014585D01*
X026938Y014629D01*
X026982Y014694D01*
X026997Y014772D01*
X026986Y014826D01*
X027001Y014912D01*
X027025Y014936D01*
X027025Y014936D01*
X027143Y015054D01*
X027165Y015087D01*
X027173Y015126D01*
Y015477D01*
X027231Y015536D01*
X028092D01*
X028239Y015389D01*
X028272Y015366D01*
X028311Y015359D01*
X028330D01*
X028376Y015290D01*
X028448Y015242D01*
X028452Y015215D01*
X028448Y015188D01*
X028376Y015139D01*
X028324Y015061D01*
X028305Y014969D01*
X028324Y014876D01*
X028376Y014798D01*
X028411Y014774D01*
X028407Y014718D01*
X028350Y014674D01*
X028305Y014616D01*
X028277Y014549D01*
X028274Y014526D01*
X028764D01*
Y014426D01*
X028274D01*
X028277Y014404D01*
X028305Y014337D01*
X028350Y014279D01*
X028407Y014234D01*
X028411Y014179D01*
X028376Y014155D01*
X028324Y014077D01*
X028305Y013984D01*
X028324Y013892D01*
X028376Y013813D01*
X028448Y013765D01*
X028452Y013738D01*
X028448Y013711D01*
X028376Y013663D01*
X028324Y013585D01*
X028305Y013492D01*
X028324Y013400D01*
X028376Y013321D01*
X028455Y013269D01*
X028547Y013250D01*
X028622D01*
X028637Y013200D01*
X028593Y013171D01*
X028581Y013153D01*
X025964Y013153D01*
X025964Y016784D01*
X028538Y016784D01*
D02*
G37*
G36*
X015727D02*
X015734Y016774D01*
X015735Y016771D01*
X015711Y016721D01*
X015664Y016715D01*
X015596Y016687D01*
X015539Y016643D01*
X015494Y016585D01*
X015466Y016517D01*
X015463Y016495D01*
X016442D01*
X016439Y016517D01*
X016411Y016585D01*
X016367Y016643D01*
X016309Y016687D01*
X016242Y016715D01*
X016194Y016721D01*
X016171Y016771D01*
X016171Y016774D01*
X016179Y016784D01*
X021632Y016784D01*
X021640Y016774D01*
X021640Y016771D01*
X021617Y016721D01*
X021569Y016715D01*
X021502Y016687D01*
X021444Y016643D01*
X021400Y016585D01*
X021372Y016517D01*
X021369Y016495D01*
X022348D01*
X022345Y016517D01*
X022317Y016585D01*
X022272Y016643D01*
X022215Y016687D01*
X022147Y016715D01*
X022100Y016721D01*
X022076Y016771D01*
X022077Y016774D01*
X022084Y016784D01*
X024658Y016784D01*
X024658Y013153D01*
X022041Y013153D01*
X022029Y013171D01*
X021985Y013200D01*
X022001Y013250D01*
X022075D01*
X022167Y013269D01*
X022246Y013321D01*
X022298Y013400D01*
X022317Y013492D01*
X022298Y013585D01*
X022246Y013663D01*
X022174Y013711D01*
X022170Y013738D01*
X022174Y013765D01*
X022246Y013813D01*
X022298Y013892D01*
X022317Y013984D01*
X022298Y014077D01*
X022246Y014155D01*
X022211Y014179D01*
X022215Y014234D01*
X022272Y014279D01*
X022317Y014337D01*
X022345Y014404D01*
X022348Y014426D01*
X021858D01*
Y014526D01*
X022348D01*
X022345Y014549D01*
X022317Y014616D01*
X022272Y014674D01*
X022215Y014718D01*
X022211Y014774D01*
X022246Y014798D01*
X022298Y014876D01*
X022317Y014969D01*
X022298Y015061D01*
X022246Y015139D01*
X022174Y015188D01*
X022170Y015215D01*
X022174Y015242D01*
X022246Y015290D01*
X022271Y015327D01*
X022347Y015359D01*
X023489D01*
X023588Y015260D01*
X023628Y015146D01*
X023629Y015143D01*
X023640Y015088D01*
X023684Y015023D01*
X023720Y014999D01*
Y014938D01*
X023684Y014914D01*
X023640Y014849D01*
X023625Y014772D01*
X023640Y014694D01*
X023650Y014680D01*
X023627Y014636D01*
X023589D01*
X023550Y014628D01*
X023517Y014606D01*
X023232Y014321D01*
X023118Y014282D01*
X023116Y014280D01*
X023061Y014269D01*
X022995Y014225D01*
X022951Y014160D01*
X022936Y014083D01*
X022951Y014006D01*
X022995Y013940D01*
X023061Y013896D01*
X023138Y013881D01*
X023215Y013896D01*
X023280Y013940D01*
X023324Y014006D01*
X023335Y014061D01*
X023337Y014063D01*
X023377Y014177D01*
X023631Y014432D01*
X023944D01*
X023983Y014440D01*
X024017Y014462D01*
X024391Y014836D01*
X024413Y014869D01*
X024421Y014908D01*
Y015914D01*
X024474Y016023D01*
X024474Y016026D01*
X024505Y016072D01*
X024521Y016150D01*
X024505Y016227D01*
X024462Y016292D01*
X024396Y016336D01*
X024319Y016351D01*
X024242Y016336D01*
X024176Y016292D01*
X024133Y016227D01*
X024117Y016150D01*
X024133Y016072D01*
X024164Y016026D01*
X024164Y016023D01*
X024217Y015914D01*
Y015421D01*
X024197Y015409D01*
X024167Y015402D01*
X023820Y015749D01*
X023787Y015771D01*
X023748Y015779D01*
X022719D01*
X022474Y016025D01*
X022441Y016047D01*
X022402Y016055D01*
X022347D01*
X022271Y016086D01*
X022246Y016124D01*
X022211Y016147D01*
X022215Y016203D01*
X022272Y016247D01*
X022317Y016305D01*
X022345Y016373D01*
X022348Y016395D01*
X021369D01*
X021372Y016373D01*
X021400Y016305D01*
X021444Y016247D01*
X021502Y016203D01*
X021506Y016147D01*
X021471Y016124D01*
X021418Y016045D01*
X021400Y015953D01*
X021405Y015926D01*
X021370Y015845D01*
X021078Y015552D01*
X021055Y015519D01*
X021043Y015481D01*
X021002Y015484D01*
X020794D01*
X020767Y015534D01*
X020785Y015561D01*
X020800Y015638D01*
X020785Y015715D01*
X020741Y015780D01*
X020690Y015814D01*
X020686Y015820D01*
X020571Y015890D01*
X020569Y015890D01*
X020257Y016202D01*
Y016250D01*
X020249Y016289D01*
X020227Y016322D01*
X020091Y016458D01*
X020058Y016480D01*
X020019Y016488D01*
X017812D01*
X017685Y016615D01*
X017652Y016638D01*
X017613Y016645D01*
X017200D01*
X017161Y016638D01*
X017128Y016615D01*
X017038Y016526D01*
X016708D01*
X016669Y016518D01*
X016649Y016505D01*
X016636Y016500D01*
X016560Y016431D01*
X016499Y016391D01*
X016490Y016378D01*
X016445Y016395D01*
X015463D01*
X015466Y016373D01*
X015494Y016305D01*
X015539Y016247D01*
X015596Y016203D01*
X015600Y016147D01*
X015565Y016124D01*
X015519Y016055D01*
X015480D01*
X015441Y016047D01*
X015408Y016025D01*
X015281Y015897D01*
X014319D01*
X014280Y015889D01*
X014247Y015867D01*
X014011Y015631D01*
X013988Y015598D01*
X013981Y015559D01*
Y015406D01*
X013907Y015391D01*
X013842Y015347D01*
X013798Y015282D01*
X013783Y015205D01*
X013798Y015128D01*
X013842Y015062D01*
X013907Y015018D01*
X013912Y015017D01*
X013920Y014968D01*
X013897Y014954D01*
X013893Y014948D01*
X013842Y014914D01*
X013798Y014849D01*
X013783Y014772D01*
X013798Y014694D01*
X013842Y014629D01*
X013907Y014585D01*
X013984Y014570D01*
X014061Y014585D01*
X014127Y014629D01*
X014171Y014694D01*
X014186Y014772D01*
X014175Y014826D01*
X014190Y014912D01*
X014214Y014936D01*
X014214Y014936D01*
X014332Y015054D01*
X014354Y015087D01*
X014362Y015126D01*
Y015477D01*
X014420Y015536D01*
X015281D01*
X015428Y015389D01*
X015461Y015366D01*
X015500Y015359D01*
X015519D01*
X015565Y015290D01*
X015637Y015242D01*
X015641Y015215D01*
X015637Y015188D01*
X015565Y015139D01*
X015513Y015061D01*
X015494Y014969D01*
X015513Y014876D01*
X015565Y014798D01*
X015600Y014774D01*
X015596Y014718D01*
X015539Y014674D01*
X015494Y014616D01*
X015466Y014549D01*
X015463Y014526D01*
X015953D01*
Y014426D01*
X015463D01*
X015466Y014404D01*
X015494Y014337D01*
X015539Y014279D01*
X015596Y014234D01*
X015600Y014179D01*
X015565Y014155D01*
X015513Y014077D01*
X015494Y013984D01*
X015513Y013892D01*
X015565Y013813D01*
X015637Y013765D01*
X015641Y013738D01*
X015637Y013711D01*
X015565Y013663D01*
X015513Y013585D01*
X015494Y013492D01*
X015513Y013400D01*
X015565Y013321D01*
X015644Y013269D01*
X015736Y013250D01*
X015811D01*
X015826Y013200D01*
X015782Y013171D01*
X015770Y013153D01*
X013153Y013153D01*
X013153Y016784D01*
X015727Y016784D01*
D02*
G37*
G36*
X032313Y013874D02*
X032120D01*
X032177Y013990D01*
X032257D01*
X032313Y013874D01*
D02*
G37*
G36*
X019502D02*
X019309D01*
X019366Y013990D01*
X019446D01*
X019502Y013874D01*
D02*
G37*
G36*
X034359Y013836D02*
X034270Y013804D01*
X034228Y013875D01*
X034277Y013980D01*
X034359Y013836D01*
D02*
G37*
G36*
X021548D02*
X021459Y013804D01*
X021417Y013875D01*
X021466Y013980D01*
X021548Y013836D01*
D02*
G37*
G36*
X031734Y013610D02*
X031541D01*
X031598Y013726D01*
X031678D01*
X031734Y013610D01*
D02*
G37*
G36*
X018923D02*
X018730D01*
X018787Y013726D01*
X018867D01*
X018923Y013610D01*
D02*
G37*
G36*
X030282Y013507D02*
X030226Y013450D01*
X030104Y013492D01*
X030240Y013629D01*
X030282Y013507D01*
D02*
G37*
G36*
X017471D02*
X017415Y013450D01*
X017293Y013492D01*
X017429Y013629D01*
X017471Y013507D01*
D02*
G37*
D17*
X020411Y013945D02*
D03*
X020785D02*
D03*
X020411Y013591D02*
D03*
X020785D02*
D03*
X033222Y013945D02*
D03*
X033596D02*
D03*
X033222Y013591D02*
D03*
X033596D02*
D03*
X020411Y018882D02*
D03*
X020785D02*
D03*
X020411Y018528D02*
D03*
X020785D02*
D03*
X033222Y018882D02*
D03*
X033596D02*
D03*
X033222Y018528D02*
D03*
X033596D02*
D03*
D19*
X020717Y014496D02*
D03*
Y015126D02*
D03*
X033528Y014496D02*
D03*
Y015126D02*
D03*
X020717Y019433D02*
D03*
Y020063D02*
D03*
X033528Y019433D02*
D03*
Y020063D02*
D03*
D21*
X020079Y013504D02*
X020087Y013512D01*
X032890Y013504D02*
X032898Y013512D01*
X020079Y018441D02*
X020087Y018449D01*
X032890Y018441D02*
X032898Y018449D01*
D22*
X021150Y015480D02*
X021622Y015953D01*
X022104D02*
X022402D01*
X021858D02*
X022104D01*
X020155Y016160D02*
X020677Y015638D01*
X020785Y013512D02*
X020864Y013591D01*
X022104Y015461D02*
X023531D01*
X021858D02*
X022104D01*
X021612D02*
X021858D01*
X021366D02*
X021612D01*
Y013984D02*
X021858D01*
X021583D02*
X021612D01*
X016199Y015461D02*
X016445D01*
X015953D02*
X016199D01*
X015480Y015953D02*
X015707D01*
X015953D01*
X015500Y015461D02*
X015707D01*
X015953D01*
X021622Y015953D02*
X021858D01*
X016839Y014043D02*
Y015067D01*
Y014043D02*
X016998Y013884D01*
X020598Y015638D02*
X020677D01*
X017906Y015992D02*
X017915D01*
X018846Y014141D02*
X018906Y014081D01*
X017232Y014634D02*
X017409Y014811D01*
X017232Y014280D02*
Y014634D01*
X017331Y014042D02*
X017490Y014201D01*
X017134Y014042D02*
X017331D01*
X016994Y014181D02*
X017134Y014042D01*
X016994Y014181D02*
Y014770D01*
X016998Y013884D02*
X017431D01*
X017291Y013630D02*
X017528Y013394D01*
X016994Y014770D02*
X017545Y015320D01*
Y015837D01*
X017902Y015996D02*
Y016051D01*
X020019Y016386D02*
X020155Y016250D01*
X017490Y014201D02*
X017906D01*
X015323Y015638D02*
X015500Y015461D01*
X014378Y015638D02*
X015323D01*
X015323Y015795D02*
X015480Y015953D01*
X014319Y015795D02*
X015323D01*
X019406Y013776D02*
Y014201D01*
X019156Y014806D02*
X019406Y015055D01*
Y015736D01*
X017915Y015992D02*
X017918Y015989D01*
X017902Y015996D02*
X017906Y015992D01*
X023531Y015461D02*
X023827Y015165D01*
X022677Y015677D02*
X023748D01*
X022402Y015953D02*
X022677Y015677D01*
X018406Y013917D02*
Y014201D01*
X018846Y014141D02*
X018906Y014201D01*
X018827Y014002D02*
X018906Y014081D01*
Y015165D02*
Y015736D01*
X018656Y014916D02*
X018906Y015165D01*
X018276Y014811D02*
X018406Y014941D01*
Y015736D01*
X020155Y016160D02*
Y016250D01*
X017431Y013884D02*
X017724Y013591D01*
X020864D02*
X020953D01*
X021307Y013945D01*
X020785Y013945D02*
X021031D01*
X021150Y014063D01*
X019156Y013537D02*
X019181Y013512D01*
X019156Y013537D02*
Y014806D01*
X017724Y013591D02*
X018079D01*
X018406Y013917D01*
X017528Y013394D02*
X018118D01*
X018276Y013236D01*
X020835D01*
X021583Y013984D01*
X014142Y015008D02*
Y015008D01*
X013984Y014850D02*
X014142Y015008D01*
X013984Y014772D02*
Y014850D01*
X013984Y015205D02*
X014083Y015303D01*
Y015559D01*
X014319Y015795D01*
X014142Y015008D02*
X014260Y015126D01*
Y015520D01*
X014378Y015638D01*
X023748Y015677D02*
X024102Y015323D01*
X021150Y014063D02*
Y015480D01*
X017409Y014811D02*
X018276D01*
X023138Y014083D02*
X023589Y014534D01*
X023944D01*
X024319Y014908D01*
Y016150D01*
X016642Y016358D02*
X016708Y016424D01*
X016642Y016248D02*
Y016358D01*
X018472Y013512D02*
X018480D01*
X018656Y013688D01*
Y014916D01*
X018827Y013512D02*
Y014002D01*
Y014122D01*
X018846Y014141D01*
X017029Y016242D02*
X017423D01*
X016445Y015461D02*
X016543Y015559D01*
Y015756D01*
X017029Y016242D01*
X017770Y016386D02*
X020019D01*
X016708Y016424D02*
X017080D01*
X017200Y016543D01*
X017613D01*
X017770Y016386D01*
X021307Y013945D02*
Y015402D01*
X021366Y015461D01*
X023827Y014772D02*
X024102Y015047D01*
Y015323D01*
X033961Y015480D02*
X034433Y015953D01*
X034915D02*
X035213D01*
X034669D02*
X034915D01*
X032966Y016160D02*
X033488Y015638D01*
X033596Y013512D02*
X033675Y013591D01*
X034915Y015461D02*
X036343D01*
X034669D02*
X034915D01*
X034423D02*
X034669D01*
X034177D02*
X034423D01*
Y013984D02*
X034669D01*
X034394D02*
X034423D01*
X029010Y015461D02*
X029256D01*
X028764D02*
X029010D01*
X028291Y015953D02*
X028518D01*
X028764D01*
X028311Y015461D02*
X028518D01*
X028764D01*
X034433Y015953D02*
X034669D01*
X029650Y014043D02*
Y015067D01*
Y014043D02*
X029809Y013884D01*
X033409Y015638D02*
X033488D01*
X030717Y015992D02*
X030726D01*
X031657Y014141D02*
X031717Y014081D01*
X030043Y014634D02*
X030220Y014811D01*
X030043Y014280D02*
Y014634D01*
X030142Y014042D02*
X030301Y014201D01*
X029945Y014042D02*
X030142D01*
X029806Y014181D02*
X029945Y014042D01*
X029806Y014181D02*
Y014770D01*
X029809Y013884D02*
X030242D01*
X030102Y013630D02*
X030339Y013394D01*
X029806Y014770D02*
X030356Y015320D01*
Y015837D01*
X030713Y015996D02*
Y016051D01*
X032830Y016386D02*
X032966Y016250D01*
X030301Y014201D02*
X030717D01*
X028134Y015638D02*
X028311Y015461D01*
X027189Y015638D02*
X028134D01*
X028134Y015795D02*
X028291Y015953D01*
X027130Y015795D02*
X028134D01*
X032217Y013776D02*
Y014201D01*
X031967Y014806D02*
X032217Y015055D01*
Y015736D01*
X030726Y015992D02*
X030729Y015989D01*
X030713Y015996D02*
X030717Y015992D01*
X036343Y015461D02*
X036638Y015165D01*
X035488Y015677D02*
X036559D01*
X035213Y015953D02*
X035488Y015677D01*
X031217Y013917D02*
Y014201D01*
X031657Y014141D02*
X031717Y014201D01*
X031638Y014002D02*
X031717Y014081D01*
Y015165D02*
Y015736D01*
X031467Y014916D02*
X031717Y015165D01*
X031087Y014811D02*
X031217Y014941D01*
Y015736D01*
X032966Y016160D02*
Y016250D01*
X030242Y013884D02*
X030535Y013591D01*
X033675D02*
X033764D01*
X034118Y013945D01*
X033596Y013945D02*
X033843D01*
X033961Y014063D01*
X031967Y013537D02*
X031992Y013512D01*
X031967Y013537D02*
Y014806D01*
X030535Y013591D02*
X030890D01*
X031217Y013917D01*
X030339Y013394D02*
X030929D01*
X031087Y013236D01*
X033646D01*
X034394Y013984D01*
X026953Y015008D02*
Y015008D01*
X026795Y014850D02*
X026953Y015008D01*
X026795Y014772D02*
Y014850D01*
X026795Y015205D02*
X026894Y015303D01*
Y015559D01*
X027130Y015795D01*
X026953Y015008D02*
X027071Y015126D01*
Y015520D01*
X027189Y015638D01*
X036559Y015677D02*
X036913Y015323D01*
X033961Y014063D02*
Y015480D01*
X030220Y014811D02*
X031087D01*
X035949Y014083D02*
X036400Y014534D01*
X036755D01*
X037130Y014908D01*
Y016150D01*
X029453Y016358D02*
X029519Y016424D01*
X029453Y016248D02*
Y016358D01*
X031283Y013512D02*
X031291D01*
X031467Y013688D01*
Y014916D01*
X031638Y013512D02*
Y014002D01*
Y014122D01*
X031657Y014141D01*
X029840Y016242D02*
X030234D01*
X029256Y015461D02*
X029354Y015559D01*
Y015756D01*
X029840Y016242D01*
X030581Y016386D02*
X032830D01*
X029519Y016424D02*
X029891D01*
X030011Y016543D01*
X030424D01*
X030581Y016386D01*
X034118Y013945D02*
Y015402D01*
X034177Y015461D01*
X036638Y014772D02*
X036913Y015047D01*
Y015323D01*
X021150Y020417D02*
X021622Y020890D01*
X022104D02*
X022402D01*
X021858D02*
X022104D01*
X020155Y021097D02*
X020677Y020575D01*
X020785Y018449D02*
X020864Y018528D01*
X022104Y020398D02*
X023531D01*
X021858D02*
X022104D01*
X021612D02*
X021858D01*
X021366D02*
X021612D01*
Y018921D02*
X021858D01*
X021583D02*
X021612D01*
X016199Y020398D02*
X016445D01*
X015953D02*
X016199D01*
X015480Y020890D02*
X015707D01*
X015953D01*
X015500Y020398D02*
X015707D01*
X015953D01*
X021622Y020890D02*
X021858D01*
X016839Y018980D02*
Y020004D01*
Y018980D02*
X016998Y018821D01*
X020598Y020575D02*
X020677D01*
X017906Y020929D02*
X017915D01*
X018846Y019078D02*
X018906Y019018D01*
X017232Y019571D02*
X017409Y019748D01*
X017232Y019217D02*
Y019571D01*
X017331Y018979D02*
X017490Y019138D01*
X017134Y018979D02*
X017331D01*
X016994Y019118D02*
X017134Y018979D01*
X016994Y019118D02*
Y019707D01*
X016998Y018821D02*
X017431D01*
X017291Y018567D02*
X017528Y018331D01*
X016994Y019707D02*
X017545Y020257D01*
Y020774D01*
X017902Y020933D02*
Y020988D01*
X020019Y021323D02*
X020155Y021187D01*
X017490Y019138D02*
X017906D01*
X015323Y020575D02*
X015500Y020398D01*
X014378Y020575D02*
X015323D01*
X015323Y020732D02*
X015480Y020890D01*
X014319Y020732D02*
X015323D01*
X019406Y018713D02*
Y019138D01*
X019156Y019743D02*
X019406Y019992D01*
Y020673D01*
X017915Y020929D02*
X017918Y020926D01*
X017902Y020933D02*
X017906Y020929D01*
X023531Y020398D02*
X023827Y020102D01*
X022677Y020614D02*
X023748D01*
X022402Y020890D02*
X022677Y020614D01*
X018406Y018854D02*
Y019138D01*
X018846Y019078D02*
X018906Y019138D01*
X018827Y018939D02*
X018906Y019018D01*
Y020102D02*
Y020673D01*
X018656Y019853D02*
X018906Y020102D01*
X018276Y019748D02*
X018406Y019878D01*
Y020673D01*
X020155Y021097D02*
Y021187D01*
X017431Y018821D02*
X017724Y018528D01*
X020864D02*
X020953D01*
X021307Y018882D01*
X020785Y018882D02*
X021031D01*
X021150Y019000D01*
X019156Y018474D02*
X019181Y018449D01*
X019156Y018474D02*
Y019743D01*
X017724Y018528D02*
X018079D01*
X018406Y018854D01*
X017528Y018331D02*
X018118D01*
X018276Y018173D01*
X020835D01*
X021583Y018921D01*
X014142Y019945D02*
Y019945D01*
X013984Y019787D02*
X014142Y019945D01*
X013984Y019709D02*
Y019787D01*
X013984Y020142D02*
X014083Y020240D01*
Y020496D01*
X014319Y020732D01*
X014142Y019945D02*
X014260Y020063D01*
Y020457D01*
X014378Y020575D01*
X023748Y020614D02*
X024102Y020260D01*
X021150Y019000D02*
Y020417D01*
X017409Y019748D02*
X018276D01*
X023138Y019020D02*
X023589Y019471D01*
X023944D01*
X024319Y019845D01*
Y021087D01*
X016642Y021295D02*
X016708Y021361D01*
X016642Y021185D02*
Y021295D01*
X018472Y018449D02*
X018480D01*
X018656Y018625D01*
Y019853D01*
X018827Y018449D02*
Y018939D01*
Y019059D01*
X018846Y019078D01*
X017029Y021179D02*
X017423D01*
X016445Y020398D02*
X016543Y020496D01*
Y020693D01*
X017029Y021179D01*
X017770Y021323D02*
X020019D01*
X016708Y021361D02*
X017080D01*
X017200Y021480D01*
X017613D01*
X017770Y021323D01*
X021307Y018882D02*
Y020339D01*
X021366Y020398D01*
X023827Y019709D02*
X024102Y019984D01*
Y020260D01*
X033961Y020417D02*
X034433Y020890D01*
X034915D02*
X035213D01*
X034669D02*
X034915D01*
X032966Y021097D02*
X033488Y020575D01*
X033596Y018449D02*
X033675Y018528D01*
X034915Y020398D02*
X036343D01*
X034669D02*
X034915D01*
X034423D02*
X034669D01*
X034177D02*
X034423D01*
Y018921D02*
X034669D01*
X034394D02*
X034423D01*
X029010Y020398D02*
X029256D01*
X028764D02*
X029010D01*
X028291Y020890D02*
X028518D01*
X028764D01*
X028311Y020398D02*
X028518D01*
X028764D01*
X034433Y020890D02*
X034669D01*
X029650Y018980D02*
Y020004D01*
Y018980D02*
X029809Y018821D01*
X033409Y020575D02*
X033488D01*
X030717Y020929D02*
X030726D01*
X031657Y019078D02*
X031717Y019018D01*
X030043Y019571D02*
X030220Y019748D01*
X030043Y019217D02*
Y019571D01*
X030142Y018979D02*
X030301Y019138D01*
X029945Y018979D02*
X030142D01*
X029806Y019118D02*
X029945Y018979D01*
X029806Y019118D02*
Y019707D01*
X029809Y018821D02*
X030242D01*
X030102Y018567D02*
X030339Y018331D01*
X029806Y019707D02*
X030356Y020257D01*
Y020774D01*
X030713Y020933D02*
Y020988D01*
X032830Y021323D02*
X032966Y021187D01*
X030301Y019138D02*
X030717D01*
X028134Y020575D02*
X028311Y020398D01*
X027189Y020575D02*
X028134D01*
X028134Y020732D02*
X028291Y020890D01*
X027130Y020732D02*
X028134D01*
X032217Y018713D02*
Y019138D01*
X031967Y019743D02*
X032217Y019992D01*
Y020673D01*
X030726Y020929D02*
X030729Y020926D01*
X030713Y020933D02*
X030717Y020929D01*
X036343Y020398D02*
X036638Y020102D01*
X035488Y020614D02*
X036559D01*
X035213Y020890D02*
X035488Y020614D01*
X031217Y018854D02*
Y019138D01*
X031657Y019078D02*
X031717Y019138D01*
X031638Y018939D02*
X031717Y019018D01*
Y020102D02*
Y020673D01*
X031467Y019853D02*
X031717Y020102D01*
X031087Y019748D02*
X031217Y019878D01*
Y020673D01*
X032966Y021097D02*
Y021187D01*
X030242Y018821D02*
X030535Y018528D01*
X033675D02*
X033764D01*
X034118Y018882D01*
X033596Y018882D02*
X033843D01*
X033961Y019000D01*
X031967Y018474D02*
X031992Y018449D01*
X031967Y018474D02*
Y019743D01*
X030535Y018528D02*
X030890D01*
X031217Y018854D01*
X030339Y018331D02*
X030929D01*
X031087Y018173D01*
X033646D01*
X034394Y018921D01*
X026953Y019945D02*
Y019945D01*
X026795Y019787D02*
X026953Y019945D01*
X026795Y019709D02*
Y019787D01*
X026795Y020142D02*
X026894Y020240D01*
Y020496D01*
X027130Y020732D01*
X026953Y019945D02*
X027071Y020063D01*
Y020457D01*
X027189Y020575D01*
X036559Y020614D02*
X036913Y020260D01*
X033961Y019000D02*
Y020417D01*
X030220Y019748D02*
X031087D01*
X035949Y019020D02*
X036400Y019471D01*
X036755D01*
X037130Y019845D01*
Y021087D01*
X029453Y021295D02*
X029519Y021361D01*
X029453Y021185D02*
Y021295D01*
X031283Y018449D02*
X031291D01*
X031467Y018625D01*
Y019853D01*
X031638Y018449D02*
Y018939D01*
Y019059D01*
X031657Y019078D01*
X029840Y021179D02*
X030234D01*
X029256Y020398D02*
X029354Y020496D01*
Y020693D01*
X029840Y021179D01*
X030581Y021323D02*
X032830D01*
X029519Y021361D02*
X029891D01*
X030011Y021480D01*
X030424D01*
X030581Y021323D01*
X034118Y018882D02*
Y020339D01*
X034177Y020398D01*
X036638Y019709D02*
X036913Y019984D01*
Y020260D01*
D23*
X020638Y015126D02*
X020677Y015087D01*
X020717Y015047D01*
X019906Y014201D02*
X020411D01*
X020638Y015126D02*
X020717D01*
X020598D02*
X020638D01*
X020283Y015480D02*
X020638Y015126D01*
X019906Y014834D02*
X020194Y015123D01*
X020411Y014201D02*
X020421D01*
X020717Y014496D01*
X020411Y013945D02*
Y014201D01*
X020717Y015330D02*
X021205Y015819D01*
X020717Y015126D02*
Y015330D01*
X021205Y015819D02*
Y015819D01*
X021150Y015874D02*
X021205Y015819D01*
X019929Y015480D02*
X020283D01*
X019906Y015504D02*
X019929Y015480D01*
X019906Y015504D02*
Y015736D01*
X020717Y015047D02*
Y015126D01*
X019906Y014201D02*
Y014299D01*
X020411Y013591D02*
Y013945D01*
X019611Y013504D02*
X020079D01*
X019906Y014299D02*
Y014834D01*
X021150Y015874D02*
Y016189D01*
X033449Y015126D02*
X033488Y015087D01*
X033528Y015047D01*
X032717Y014201D02*
X033222D01*
X033449Y015126D02*
X033528D01*
X033409D02*
X033449D01*
X033094Y015480D02*
X033449Y015126D01*
X032717Y014834D02*
X033005Y015123D01*
X033222Y014201D02*
X033232D01*
X033528Y014496D01*
X033222Y013945D02*
Y014201D01*
X033528Y015330D02*
X034016Y015819D01*
X033528Y015126D02*
Y015330D01*
X034016Y015819D02*
Y015819D01*
X033961Y015874D02*
X034016Y015819D01*
X032740Y015480D02*
X033094D01*
X032717Y015504D02*
X032740Y015480D01*
X032717Y015504D02*
Y015736D01*
X033528Y015047D02*
Y015126D01*
X032717Y014201D02*
Y014299D01*
X033222Y013591D02*
Y013945D01*
X032422Y013504D02*
X032890D01*
X032717Y014299D02*
Y014834D01*
X033961Y015874D02*
Y016189D01*
X020638Y020063D02*
X020677Y020024D01*
X020717Y019984D01*
X019906Y019138D02*
X020411D01*
X020638Y020063D02*
X020717D01*
X020598D02*
X020638D01*
X020283Y020417D02*
X020638Y020063D01*
X019906Y019771D02*
X020194Y020060D01*
X020411Y019138D02*
X020421D01*
X020717Y019433D01*
X020411Y018882D02*
Y019138D01*
X020717Y020267D02*
X021205Y020756D01*
X020717Y020063D02*
Y020267D01*
X021205Y020756D02*
Y020756D01*
X021150Y020811D02*
X021205Y020756D01*
X019929Y020417D02*
X020283D01*
X019906Y020441D02*
X019929Y020417D01*
X019906Y020441D02*
Y020673D01*
X020717Y019984D02*
Y020063D01*
X019906Y019138D02*
Y019236D01*
X020411Y018528D02*
Y018882D01*
X019611Y018441D02*
X020079D01*
X019906Y019236D02*
Y019771D01*
X021150Y020811D02*
Y021126D01*
X033449Y020063D02*
X033488Y020024D01*
X033528Y019984D01*
X032717Y019138D02*
X033222D01*
X033449Y020063D02*
X033528D01*
X033409D02*
X033449D01*
X033094Y020417D02*
X033449Y020063D01*
X032717Y019771D02*
X033005Y020060D01*
X033222Y019138D02*
X033232D01*
X033528Y019433D01*
X033222Y018882D02*
Y019138D01*
X033528Y020267D02*
X034016Y020756D01*
X033528Y020063D02*
Y020267D01*
X034016Y020756D02*
Y020756D01*
X033961Y020811D02*
X034016Y020756D01*
X032740Y020417D02*
X033094D01*
X032717Y020441D02*
X032740Y020417D01*
X032717Y020441D02*
Y020673D01*
X033528Y019984D02*
Y020063D01*
X032717Y019138D02*
Y019236D01*
X033222Y018528D02*
Y018882D01*
X032422Y018441D02*
X032890D01*
X032717Y019236D02*
Y019771D01*
X033961Y020811D02*
Y021126D01*
D24*
X016199Y014969D02*
X016307D01*
X015953D02*
X016199D01*
X020244Y014772D02*
X020598Y015126D01*
X020244Y014535D02*
Y014772D01*
X016307Y014969D02*
X016543Y014732D01*
Y013787D02*
Y014732D01*
Y013787D02*
X016858Y013472D01*
X029010Y014969D02*
X029118D01*
X028764D02*
X029010D01*
X033055Y014772D02*
X033409Y015126D01*
X033055Y014535D02*
Y014772D01*
X029118Y014969D02*
X029354Y014732D01*
Y013787D02*
Y014732D01*
Y013787D02*
X029669Y013472D01*
X016199Y019906D02*
X016307D01*
X015953D02*
X016199D01*
X020244Y019709D02*
X020598Y020063D01*
X020244Y019472D02*
Y019709D01*
X016307Y019906D02*
X016543Y019669D01*
Y018724D02*
Y019669D01*
Y018724D02*
X016858Y018409D01*
X029010Y019906D02*
X029118D01*
X028764D02*
X029010D01*
X033055Y019709D02*
X033409Y020063D01*
X033055Y019472D02*
Y019709D01*
X029118Y019906D02*
X029354Y019669D01*
Y018724D02*
Y019669D01*
Y018724D02*
X029669Y018409D01*
D27*
X021858Y014969D02*
D03*
Y014476D02*
D03*
Y015461D02*
D03*
Y015953D02*
D03*
Y013984D02*
D03*
Y013492D02*
D03*
Y016445D02*
D03*
X015953D02*
D03*
Y013492D02*
D03*
Y013984D02*
D03*
Y015953D02*
D03*
Y015461D02*
D03*
Y014476D02*
D03*
Y014969D02*
D03*
X034669D02*
D03*
Y014476D02*
D03*
Y015461D02*
D03*
Y015953D02*
D03*
Y013984D02*
D03*
Y013492D02*
D03*
Y016445D02*
D03*
X028764D02*
D03*
Y013492D02*
D03*
Y013984D02*
D03*
Y015953D02*
D03*
Y015461D02*
D03*
Y014476D02*
D03*
Y014969D02*
D03*
X021858Y019906D02*
D03*
Y019413D02*
D03*
Y020398D02*
D03*
Y020890D02*
D03*
Y018921D02*
D03*
Y018429D02*
D03*
Y021382D02*
D03*
X015953D02*
D03*
Y018429D02*
D03*
Y018921D02*
D03*
Y020890D02*
D03*
Y020398D02*
D03*
Y019413D02*
D03*
Y019906D02*
D03*
X034669D02*
D03*
Y019413D02*
D03*
Y020398D02*
D03*
Y020890D02*
D03*
Y018921D02*
D03*
Y018429D02*
D03*
Y021382D02*
D03*
X028764D02*
D03*
Y018429D02*
D03*
Y018921D02*
D03*
Y020890D02*
D03*
Y020398D02*
D03*
Y019413D02*
D03*
Y019906D02*
D03*
D28*
X015953Y016937D02*
D03*
Y013000D02*
D03*
X021858D02*
D03*
Y016937D02*
D03*
X028764D02*
D03*
Y013000D02*
D03*
X034669D02*
D03*
Y016937D02*
D03*
X015953Y021874D02*
D03*
Y017937D02*
D03*
X021858D02*
D03*
Y021874D02*
D03*
X028764D02*
D03*
Y017937D02*
D03*
X034669D02*
D03*
Y021874D02*
D03*
D29*
X022104Y016445D02*
D03*
X021612D02*
D03*
Y015953D02*
D03*
X022104D02*
D03*
Y015461D02*
D03*
X021612D02*
D03*
Y014969D02*
D03*
X022104D02*
D03*
Y014476D02*
D03*
X021612D02*
D03*
Y013984D02*
D03*
X022104D02*
D03*
Y013492D02*
D03*
X021612D02*
D03*
X015707D02*
D03*
X016199D02*
D03*
X015707Y013984D02*
D03*
X016199D02*
D03*
Y014969D02*
D03*
Y014476D02*
D03*
Y015461D02*
D03*
X016200Y015953D02*
D03*
X016199Y016445D02*
D03*
X015707D02*
D03*
Y015953D02*
D03*
Y015461D02*
D03*
Y014969D02*
D03*
Y014476D02*
D03*
X024457Y013354D02*
D03*
X013394Y016543D02*
D03*
X013354Y013315D02*
D03*
X018315Y016642D02*
D03*
X020244Y014535D02*
D03*
X021150Y016189D02*
D03*
X022941Y016543D02*
D03*
X024417D02*
D03*
X016543Y016642D02*
D03*
X019594D02*
D03*
X034915Y016445D02*
D03*
X034423D02*
D03*
Y015953D02*
D03*
X034915D02*
D03*
Y015461D02*
D03*
X034423D02*
D03*
Y014969D02*
D03*
X034915D02*
D03*
Y014476D02*
D03*
X034423D02*
D03*
Y013984D02*
D03*
X034915D02*
D03*
Y013492D02*
D03*
X034423D02*
D03*
X028518D02*
D03*
X029010D02*
D03*
X028518Y013984D02*
D03*
X029010D02*
D03*
Y014969D02*
D03*
Y014476D02*
D03*
Y015461D02*
D03*
X029011Y015953D02*
D03*
X029010Y016445D02*
D03*
X028518D02*
D03*
Y015953D02*
D03*
Y015461D02*
D03*
Y014969D02*
D03*
Y014476D02*
D03*
X037268Y013354D02*
D03*
X026205Y016543D02*
D03*
X026165Y013315D02*
D03*
X031126Y016642D02*
D03*
X033055Y014535D02*
D03*
X033961Y016189D02*
D03*
X035752Y016543D02*
D03*
X037228D02*
D03*
X029354Y016642D02*
D03*
X032406D02*
D03*
X022104Y021382D02*
D03*
X021612D02*
D03*
Y020890D02*
D03*
X022104D02*
D03*
Y020398D02*
D03*
X021612D02*
D03*
Y019906D02*
D03*
X022104D02*
D03*
Y019413D02*
D03*
X021612D02*
D03*
Y018921D02*
D03*
X022104D02*
D03*
Y018429D02*
D03*
X021612D02*
D03*
X015707D02*
D03*
X016199D02*
D03*
X015707Y018921D02*
D03*
X016199D02*
D03*
Y019906D02*
D03*
Y019413D02*
D03*
Y020398D02*
D03*
X016200Y020890D02*
D03*
X016199Y021382D02*
D03*
X015707D02*
D03*
Y020890D02*
D03*
Y020398D02*
D03*
Y019906D02*
D03*
Y019413D02*
D03*
X024457Y018291D02*
D03*
X013394Y021480D02*
D03*
X013354Y018252D02*
D03*
X018315Y021579D02*
D03*
X020244Y019472D02*
D03*
X021150Y021126D02*
D03*
X022941Y021480D02*
D03*
X024417D02*
D03*
X016543Y021579D02*
D03*
X019594D02*
D03*
X034915Y021382D02*
D03*
X034423D02*
D03*
Y020890D02*
D03*
X034915D02*
D03*
Y020398D02*
D03*
X034423D02*
D03*
Y019906D02*
D03*
X034915D02*
D03*
Y019413D02*
D03*
X034423D02*
D03*
Y018921D02*
D03*
X034915D02*
D03*
Y018429D02*
D03*
X034423D02*
D03*
X028518D02*
D03*
X029010D02*
D03*
X028518Y018921D02*
D03*
X029010D02*
D03*
Y019906D02*
D03*
Y019413D02*
D03*
Y020398D02*
D03*
X029011Y020890D02*
D03*
X029010Y021382D02*
D03*
X028518D02*
D03*
Y020890D02*
D03*
Y020398D02*
D03*
Y019906D02*
D03*
Y019413D02*
D03*
X037268Y018291D02*
D03*
X026205Y021480D02*
D03*
X026165Y018252D02*
D03*
X031126Y021579D02*
D03*
X033055Y019472D02*
D03*
X033961Y021126D02*
D03*
X035752Y021480D02*
D03*
X037228D02*
D03*
X029354Y021579D02*
D03*
X032406D02*
D03*
D30*
X020194Y015123D02*
D03*
X020598Y015638D02*
D03*
X017232Y014280D02*
D03*
X017291Y013630D02*
D03*
X017423Y016242D02*
D03*
X017545Y015837D02*
D03*
X017902Y016051D02*
D03*
X017253Y015654D02*
D03*
X016839Y015067D02*
D03*
X014969Y014378D02*
D03*
X022843Y014417D02*
D03*
X019406Y013776D02*
D03*
X023827Y015165D02*
D03*
Y014772D02*
D03*
X019906Y014299D02*
D03*
X019181Y013512D02*
D03*
X018827Y013512D02*
D03*
X018472Y013512D02*
D03*
X016858Y013472D02*
D03*
X020087Y013512D02*
D03*
X019611Y013504D02*
D03*
X013984Y015205D02*
D03*
X013984Y014772D02*
D03*
X024457Y014654D02*
D03*
X023827Y014083D02*
D03*
X023138D02*
D03*
X024319Y016150D02*
D03*
X016642Y016248D02*
D03*
X014772Y016445D02*
D03*
X033005Y015123D02*
D03*
X033409Y015638D02*
D03*
X030043Y014280D02*
D03*
X030102Y013630D02*
D03*
X030234Y016242D02*
D03*
X030356Y015837D02*
D03*
X030713Y016051D02*
D03*
X030064Y015654D02*
D03*
X029650Y015067D02*
D03*
X027780Y014378D02*
D03*
X035654Y014417D02*
D03*
X032217Y013776D02*
D03*
X036638Y015165D02*
D03*
Y014772D02*
D03*
X032717Y014299D02*
D03*
X031992Y013512D02*
D03*
X031638Y013512D02*
D03*
X031283Y013512D02*
D03*
X029669Y013472D02*
D03*
X032898Y013512D02*
D03*
X032422Y013504D02*
D03*
X026795Y015205D02*
D03*
X026795Y014772D02*
D03*
X037268Y014654D02*
D03*
X036638Y014083D02*
D03*
X035949D02*
D03*
X037130Y016150D02*
D03*
X029453Y016248D02*
D03*
X027583Y016445D02*
D03*
X020194Y020060D02*
D03*
X020598Y020575D02*
D03*
X017232Y019217D02*
D03*
X017291Y018567D02*
D03*
X017423Y021179D02*
D03*
X017545Y020774D02*
D03*
X017902Y020988D02*
D03*
X017253Y020591D02*
D03*
X016839Y020004D02*
D03*
X014969Y019315D02*
D03*
X022843Y019354D02*
D03*
X019406Y018713D02*
D03*
X023827Y020102D02*
D03*
Y019709D02*
D03*
X019906Y019236D02*
D03*
X019181Y018449D02*
D03*
X018827Y018449D02*
D03*
X018472Y018449D02*
D03*
X016858Y018409D02*
D03*
X020087Y018449D02*
D03*
X019611Y018441D02*
D03*
X013984Y020142D02*
D03*
X013984Y019709D02*
D03*
X024457Y019591D02*
D03*
X023827Y019020D02*
D03*
X023138D02*
D03*
X024319Y021087D02*
D03*
X016642Y021185D02*
D03*
X014772Y021382D02*
D03*
X033005Y020060D02*
D03*
X033409Y020575D02*
D03*
X030043Y019217D02*
D03*
X030102Y018567D02*
D03*
X030234Y021179D02*
D03*
X030356Y020774D02*
D03*
X030713Y020988D02*
D03*
X030064Y020591D02*
D03*
X029650Y020004D02*
D03*
X027780Y019315D02*
D03*
X035654Y019354D02*
D03*
X032217Y018713D02*
D03*
X036638Y020102D02*
D03*
Y019709D02*
D03*
X032717Y019236D02*
D03*
X031992Y018449D02*
D03*
X031638Y018449D02*
D03*
X031283Y018449D02*
D03*
X029669Y018409D02*
D03*
X032898Y018449D02*
D03*
X032422Y018441D02*
D03*
X026795Y020142D02*
D03*
X026795Y019709D02*
D03*
X037268Y019591D02*
D03*
X036638Y019020D02*
D03*
X035949D02*
D03*
X037130Y021087D02*
D03*
X029453Y021185D02*
D03*
X027583Y021382D02*
D03*
D31*
X019906Y014201D02*
D03*
Y015736D02*
D03*
X019406Y014201D02*
D03*
X018906D02*
D03*
X018406D02*
D03*
X017906D02*
D03*
X019906Y015736D02*
D03*
X019406D02*
D03*
X018906D02*
D03*
X018406D02*
D03*
X017906D02*
D03*
X032717Y014201D02*
D03*
Y015736D02*
D03*
X032217Y014201D02*
D03*
X031717D02*
D03*
X031217D02*
D03*
X030717D02*
D03*
X032717Y015736D02*
D03*
X032217D02*
D03*
X031717D02*
D03*
X031217D02*
D03*
X030717D02*
D03*
X019906Y019138D02*
D03*
Y020673D02*
D03*
X019406Y019138D02*
D03*
X018906D02*
D03*
X018406D02*
D03*
X017906D02*
D03*
X019906Y020673D02*
D03*
X019406D02*
D03*
X018906D02*
D03*
X018406D02*
D03*
X017906D02*
D03*
X032717Y019138D02*
D03*
Y020673D02*
D03*
X032217Y019138D02*
D03*
X031717D02*
D03*
X031217D02*
D03*
X030717D02*
D03*
X032717Y020673D02*
D03*
X032217D02*
D03*
X031717D02*
D03*
X031217D02*
D03*
X030717D02*
D03*
M02*
