G04 Layer_Color=32896*
%FSAX24Y24*%
%MOIN*%
G70*
G01*
G75*
%ADD21C,0.0100*%
%ADD23C,0.0080*%
%ADD34C,0.0079*%
%ADD35C,0.0050*%
D21*
X023539Y013695D02*
X023639Y013595D01*
Y013395D01*
X023539Y013295D01*
X023139D01*
X023039Y013395D01*
Y013595D01*
X023139Y013695D01*
X023339D01*
Y013495D01*
X023039Y013895D02*
X023639D01*
Y014195D01*
X023539Y014295D01*
X023339D01*
X023239Y014195D01*
Y013895D01*
X023039Y014495D02*
X023439D01*
X023639Y014695D01*
X023439Y014895D01*
X023039D01*
X023339D01*
Y014495D01*
Y015095D02*
Y015495D01*
X023039Y015695D02*
Y015894D01*
Y015794D01*
X023639D01*
X023539Y015695D01*
X023639Y016194D02*
Y016594D01*
X023539D01*
X023139Y016194D01*
X023039D01*
X036350Y013695D02*
X036450Y013595D01*
Y013395D01*
X036350Y013295D01*
X035950D01*
X035850Y013395D01*
Y013595D01*
X035950Y013695D01*
X036150D01*
Y013495D01*
X035850Y013895D02*
X036450D01*
Y014195D01*
X036350Y014295D01*
X036150D01*
X036050Y014195D01*
Y013895D01*
X035850Y014495D02*
X036250D01*
X036450Y014695D01*
X036250Y014895D01*
X035850D01*
X036150D01*
Y014495D01*
Y015095D02*
Y015495D01*
X035850Y015695D02*
Y015894D01*
Y015794D01*
X036450D01*
X036350Y015695D01*
X036450Y016194D02*
Y016594D01*
X036350D01*
X035950Y016194D01*
X035850D01*
X023539Y018632D02*
X023639Y018532D01*
Y018332D01*
X023539Y018232D01*
X023139D01*
X023039Y018332D01*
Y018532D01*
X023139Y018632D01*
X023339D01*
Y018432D01*
X023039Y018832D02*
X023639D01*
Y019132D01*
X023539Y019232D01*
X023339D01*
X023239Y019132D01*
Y018832D01*
X023039Y019432D02*
X023439D01*
X023639Y019632D01*
X023439Y019832D01*
X023039D01*
X023339D01*
Y019432D01*
Y020032D02*
Y020432D01*
X023039Y020632D02*
Y020831D01*
Y020731D01*
X023639D01*
X023539Y020632D01*
X023639Y021131D02*
Y021531D01*
X023539D01*
X023139Y021131D01*
X023039D01*
X036350Y018632D02*
X036450Y018532D01*
Y018332D01*
X036350Y018232D01*
X035950D01*
X035850Y018332D01*
Y018532D01*
X035950Y018632D01*
X036150D01*
Y018432D01*
X035850Y018832D02*
X036450D01*
Y019132D01*
X036350Y019232D01*
X036150D01*
X036050Y019132D01*
Y018832D01*
X035850Y019432D02*
X036250D01*
X036450Y019632D01*
X036250Y019832D01*
X035850D01*
X036150D01*
Y019432D01*
Y020032D02*
Y020432D01*
X035850Y020632D02*
Y020831D01*
Y020731D01*
X036450D01*
X036350Y020632D01*
X036450Y021131D02*
Y021531D01*
X036350D01*
X035950Y021131D01*
X035850D01*
D23*
X015082Y013592D02*
X014815D01*
X014682Y013725D01*
X014815Y013859D01*
X015082D01*
Y013992D02*
X014682D01*
Y014259D01*
X015082Y014658D02*
Y014392D01*
X014882D01*
X014948Y014525D01*
Y014592D01*
X014882Y014658D01*
X014748D01*
X014682Y014592D01*
Y014459D01*
X014748Y014392D01*
X015015Y014792D02*
X015082Y014858D01*
Y014992D01*
X015015Y015058D01*
X014948D01*
X014882Y014992D01*
Y014925D01*
Y014992D01*
X014815Y015058D01*
X014748D01*
X014682Y014992D01*
Y014858D01*
X014748Y014792D01*
X015082Y015192D02*
X014682D01*
Y015458D01*
X015015Y015591D02*
X015082Y015658D01*
Y015791D01*
X015015Y015858D01*
X014748D01*
X014682Y015791D01*
Y015658D01*
X014748Y015591D01*
X015015D01*
X015082Y015991D02*
X014682Y016258D01*
X015082D02*
X014682Y015991D01*
X014010Y013992D02*
X014276D01*
X014410Y014125D01*
X014276Y014259D01*
X014010D01*
X014210D01*
Y013992D01*
X014010Y014392D02*
X014410D01*
Y014592D01*
X014343Y014658D01*
X014210D01*
X014143Y014592D01*
Y014392D01*
Y014525D02*
X014010Y014658D01*
Y014792D02*
X014410D01*
Y014992D01*
X014343Y015058D01*
X014210D01*
X014143Y014992D01*
Y014792D01*
Y014925D02*
X014010Y015058D01*
Y015192D02*
X014276D01*
X014410Y015325D01*
X014276Y015458D01*
X014010D01*
X014210D01*
Y015192D01*
X014410Y015591D02*
X014343D01*
X014210Y015725D01*
X014343Y015858D01*
X014410D01*
X014210Y015725D02*
X014010D01*
X027893Y013592D02*
X027626D01*
X027493Y013725D01*
X027626Y013859D01*
X027893D01*
Y013992D02*
X027493D01*
Y014259D01*
X027893Y014658D02*
Y014392D01*
X027693D01*
X027759Y014525D01*
Y014592D01*
X027693Y014658D01*
X027559D01*
X027493Y014592D01*
Y014459D01*
X027559Y014392D01*
X027826Y014792D02*
X027893Y014858D01*
Y014992D01*
X027826Y015058D01*
X027759D01*
X027693Y014992D01*
Y014925D01*
Y014992D01*
X027626Y015058D01*
X027559D01*
X027493Y014992D01*
Y014858D01*
X027559Y014792D01*
X027893Y015192D02*
X027493D01*
Y015458D01*
X027826Y015591D02*
X027893Y015658D01*
Y015791D01*
X027826Y015858D01*
X027559D01*
X027493Y015791D01*
Y015658D01*
X027559Y015591D01*
X027826D01*
X027893Y015991D02*
X027493Y016258D01*
X027893D02*
X027493Y015991D01*
X026821Y013992D02*
X027087D01*
X027221Y014125D01*
X027087Y014259D01*
X026821D01*
X027021D01*
Y013992D01*
X026821Y014392D02*
X027221D01*
Y014592D01*
X027154Y014658D01*
X027021D01*
X026954Y014592D01*
Y014392D01*
Y014525D02*
X026821Y014658D01*
Y014792D02*
X027221D01*
Y014992D01*
X027154Y015058D01*
X027021D01*
X026954Y014992D01*
Y014792D01*
Y014925D02*
X026821Y015058D01*
Y015192D02*
X027087D01*
X027221Y015325D01*
X027087Y015458D01*
X026821D01*
X027021D01*
Y015192D01*
X027221Y015591D02*
X027154D01*
X027021Y015725D01*
X027154Y015858D01*
X027221D01*
X027021Y015725D02*
X026821D01*
X015082Y018529D02*
X014815D01*
X014682Y018662D01*
X014815Y018796D01*
X015082D01*
Y018929D02*
X014682D01*
Y019196D01*
X015082Y019595D02*
Y019329D01*
X014882D01*
X014948Y019462D01*
Y019529D01*
X014882Y019595D01*
X014748D01*
X014682Y019529D01*
Y019396D01*
X014748Y019329D01*
X015015Y019729D02*
X015082Y019795D01*
Y019929D01*
X015015Y019995D01*
X014948D01*
X014882Y019929D01*
Y019862D01*
Y019929D01*
X014815Y019995D01*
X014748D01*
X014682Y019929D01*
Y019795D01*
X014748Y019729D01*
X015082Y020129D02*
X014682D01*
Y020395D01*
X015015Y020529D02*
X015082Y020595D01*
Y020728D01*
X015015Y020795D01*
X014748D01*
X014682Y020728D01*
Y020595D01*
X014748Y020529D01*
X015015D01*
X015082Y020928D02*
X014682Y021195D01*
X015082D02*
X014682Y020928D01*
X014010Y018929D02*
X014276D01*
X014410Y019062D01*
X014276Y019196D01*
X014010D01*
X014210D01*
Y018929D01*
X014010Y019329D02*
X014410D01*
Y019529D01*
X014343Y019595D01*
X014210D01*
X014143Y019529D01*
Y019329D01*
Y019462D02*
X014010Y019595D01*
Y019729D02*
X014410D01*
Y019929D01*
X014343Y019995D01*
X014210D01*
X014143Y019929D01*
Y019729D01*
Y019862D02*
X014010Y019995D01*
Y020129D02*
X014276D01*
X014410Y020262D01*
X014276Y020395D01*
X014010D01*
X014210D01*
Y020129D01*
X014410Y020529D02*
X014343D01*
X014210Y020662D01*
X014343Y020795D01*
X014410D01*
X014210Y020662D02*
X014010D01*
X027893Y018529D02*
X027626D01*
X027493Y018662D01*
X027626Y018796D01*
X027893D01*
Y018929D02*
X027493D01*
Y019196D01*
X027893Y019595D02*
Y019329D01*
X027693D01*
X027759Y019462D01*
Y019529D01*
X027693Y019595D01*
X027559D01*
X027493Y019529D01*
Y019396D01*
X027559Y019329D01*
X027826Y019729D02*
X027893Y019795D01*
Y019929D01*
X027826Y019995D01*
X027759D01*
X027693Y019929D01*
Y019862D01*
Y019929D01*
X027626Y019995D01*
X027559D01*
X027493Y019929D01*
Y019795D01*
X027559Y019729D01*
X027893Y020129D02*
X027493D01*
Y020395D01*
X027826Y020529D02*
X027893Y020595D01*
Y020728D01*
X027826Y020795D01*
X027559D01*
X027493Y020728D01*
Y020595D01*
X027559Y020529D01*
X027826D01*
X027893Y020928D02*
X027493Y021195D01*
X027893D02*
X027493Y020928D01*
X026821Y018929D02*
X027087D01*
X027221Y019062D01*
X027087Y019196D01*
X026821D01*
X027021D01*
Y018929D01*
X026821Y019329D02*
X027221D01*
Y019529D01*
X027154Y019595D01*
X027021D01*
X026954Y019529D01*
Y019329D01*
Y019462D02*
X026821Y019595D01*
Y019729D02*
X027221D01*
Y019929D01*
X027154Y019995D01*
X027021D01*
X026954Y019929D01*
Y019729D01*
Y019862D02*
X026821Y019995D01*
Y020129D02*
X027087D01*
X027221Y020262D01*
X027087Y020395D01*
X026821D01*
X027021D01*
Y020129D01*
X027221Y020529D02*
X027154D01*
X027021Y020662D01*
X027154Y020795D01*
X027221D01*
X027021Y020662D02*
X026821D01*
D34*
X020185Y013886D02*
X020283Y013984D01*
X020185Y013886D02*
X020283Y013787D01*
Y013984D01*
X017626Y014476D02*
Y015461D01*
X020185Y014476D02*
Y015461D01*
X032996Y013886D02*
X033094Y013984D01*
X032996Y013886D02*
X033094Y013787D01*
Y013984D01*
X030437Y014476D02*
Y015461D01*
X032996Y014476D02*
Y015461D01*
X020185Y018823D02*
X020283Y018921D01*
X020185Y018823D02*
X020283Y018724D01*
Y018921D01*
X017626Y019413D02*
Y020398D01*
X020185Y019413D02*
Y020398D01*
X032996Y018823D02*
X033094Y018921D01*
X032996Y018823D02*
X033094Y018724D01*
Y018921D01*
X030437Y019413D02*
Y020398D01*
X032996Y019413D02*
Y020398D01*
D35*
X021148Y016644D02*
Y016344D01*
X021048Y016444D01*
X020948Y016344D01*
Y016644D01*
X020848Y016344D02*
Y016644D01*
X020698D01*
X020648Y016594D01*
Y016494D01*
X020698Y016444D01*
X020848D01*
X020748D02*
X020648Y016344D01*
X020398Y016644D02*
X020498D01*
X020548Y016594D01*
Y016394D01*
X020498Y016344D01*
X020398D01*
X020348Y016394D01*
Y016594D01*
X020398Y016644D01*
X020248Y016344D02*
Y016644D01*
X020048Y016344D01*
Y016644D01*
X019748Y016594D02*
X019798Y016644D01*
X019898D01*
X019948Y016594D01*
Y016394D01*
X019898Y016344D01*
X019798D01*
X019748Y016394D01*
Y016494D01*
X019848D01*
X019348Y016644D02*
Y016344D01*
X019248Y016444D01*
X019148Y016344D01*
Y016644D01*
X019048Y016344D02*
Y016544D01*
X018948Y016644D01*
X018848Y016544D01*
Y016344D01*
Y016494D01*
X019048D01*
X018748Y016644D02*
Y016594D01*
X018648Y016494D01*
X018548Y016594D01*
Y016644D01*
X018648Y016494D02*
Y016344D01*
X018149D02*
Y016644D01*
X018049Y016544D01*
X017949Y016644D01*
Y016344D01*
X017699Y016644D02*
X017799D01*
X017849Y016594D01*
Y016394D01*
X017799Y016344D01*
X017699D01*
X017649Y016394D01*
Y016594D01*
X017699Y016644D01*
X017549Y016344D02*
Y016644D01*
X017399D01*
X017349Y016594D01*
Y016494D01*
X017399Y016444D01*
X017549D01*
X017449D02*
X017349Y016344D01*
X017099Y016644D02*
X017199D01*
X017249Y016594D01*
Y016394D01*
X017199Y016344D01*
X017099D01*
X017049Y016394D01*
Y016594D01*
X017099Y016644D01*
X016949Y016344D02*
Y016644D01*
X016749Y016344D01*
Y016644D01*
X021003Y015767D02*
X021044Y015809D01*
X021128D01*
X021169Y015767D01*
Y015601D01*
X021128Y015559D01*
X021044D01*
X021003Y015601D01*
X020919Y015809D02*
X020753D01*
Y015767D01*
X020919Y015601D01*
Y015559D01*
X017263Y015120D02*
X017346D01*
X017304D01*
Y014912D01*
X017346Y014870D01*
X017387D01*
X017429Y014912D01*
X017179Y014870D02*
X017096D01*
X017138D01*
Y015120D01*
X017179Y015078D01*
X021400Y013350D02*
Y013600D01*
X021275D01*
X021233Y013558D01*
Y013475D01*
X021275Y013433D01*
X021400D01*
X021317D02*
X021233Y013350D01*
X021025D02*
Y013600D01*
X021150Y013475D01*
X020983D01*
X021400Y013800D02*
Y014050D01*
X021275D01*
X021233Y014008D01*
Y013925D01*
X021275Y013883D01*
X021400D01*
X021317D02*
X021233Y013800D01*
X020983Y014050D02*
X021150D01*
Y013925D01*
X021067Y013967D01*
X021025D01*
X020983Y013925D01*
Y013842D01*
X021025Y013800D01*
X021108D01*
X021150Y013842D01*
X033959Y016644D02*
Y016344D01*
X033859Y016444D01*
X033759Y016344D01*
Y016644D01*
X033659Y016344D02*
Y016644D01*
X033509D01*
X033459Y016594D01*
Y016494D01*
X033509Y016444D01*
X033659D01*
X033559D02*
X033459Y016344D01*
X033209Y016644D02*
X033309D01*
X033359Y016594D01*
Y016394D01*
X033309Y016344D01*
X033209D01*
X033159Y016394D01*
Y016594D01*
X033209Y016644D01*
X033059Y016344D02*
Y016644D01*
X032859Y016344D01*
Y016644D01*
X032559Y016594D02*
X032609Y016644D01*
X032709D01*
X032759Y016594D01*
Y016394D01*
X032709Y016344D01*
X032609D01*
X032559Y016394D01*
Y016494D01*
X032659D01*
X032159Y016644D02*
Y016344D01*
X032059Y016444D01*
X031959Y016344D01*
Y016644D01*
X031859Y016344D02*
Y016544D01*
X031759Y016644D01*
X031659Y016544D01*
Y016344D01*
Y016494D01*
X031859D01*
X031559Y016644D02*
Y016594D01*
X031459Y016494D01*
X031359Y016594D01*
Y016644D01*
X031459Y016494D02*
Y016344D01*
X030960D02*
Y016644D01*
X030860Y016544D01*
X030760Y016644D01*
Y016344D01*
X030510Y016644D02*
X030610D01*
X030660Y016594D01*
Y016394D01*
X030610Y016344D01*
X030510D01*
X030460Y016394D01*
Y016594D01*
X030510Y016644D01*
X030360Y016344D02*
Y016644D01*
X030210D01*
X030160Y016594D01*
Y016494D01*
X030210Y016444D01*
X030360D01*
X030260D02*
X030160Y016344D01*
X029910Y016644D02*
X030010D01*
X030060Y016594D01*
Y016394D01*
X030010Y016344D01*
X029910D01*
X029860Y016394D01*
Y016594D01*
X029910Y016644D01*
X029760Y016344D02*
Y016644D01*
X029560Y016344D01*
Y016644D01*
X033814Y015767D02*
X033855Y015809D01*
X033939D01*
X033980Y015767D01*
Y015601D01*
X033939Y015559D01*
X033855D01*
X033814Y015601D01*
X033730Y015809D02*
X033564D01*
Y015767D01*
X033730Y015601D01*
Y015559D01*
X030074Y015120D02*
X030157D01*
X030115D01*
Y014912D01*
X030157Y014870D01*
X030199D01*
X030240Y014912D01*
X029990Y014870D02*
X029907D01*
X029949D01*
Y015120D01*
X029990Y015078D01*
X034211Y013350D02*
Y013600D01*
X034086D01*
X034044Y013558D01*
Y013475D01*
X034086Y013433D01*
X034211D01*
X034128D02*
X034044Y013350D01*
X033836D02*
Y013600D01*
X033961Y013475D01*
X033795D01*
X034211Y013800D02*
Y014050D01*
X034086D01*
X034044Y014008D01*
Y013925D01*
X034086Y013883D01*
X034211D01*
X034128D02*
X034044Y013800D01*
X033795Y014050D02*
X033961D01*
Y013925D01*
X033878Y013967D01*
X033836D01*
X033795Y013925D01*
Y013842D01*
X033836Y013800D01*
X033919D01*
X033961Y013842D01*
X021148Y021581D02*
Y021281D01*
X021048Y021381D01*
X020948Y021281D01*
Y021581D01*
X020848Y021281D02*
Y021581D01*
X020698D01*
X020648Y021531D01*
Y021431D01*
X020698Y021381D01*
X020848D01*
X020748D02*
X020648Y021281D01*
X020398Y021581D02*
X020498D01*
X020548Y021531D01*
Y021331D01*
X020498Y021281D01*
X020398D01*
X020348Y021331D01*
Y021531D01*
X020398Y021581D01*
X020248Y021281D02*
Y021581D01*
X020048Y021281D01*
Y021581D01*
X019748Y021531D02*
X019798Y021581D01*
X019898D01*
X019948Y021531D01*
Y021331D01*
X019898Y021281D01*
X019798D01*
X019748Y021331D01*
Y021431D01*
X019848D01*
X019348Y021581D02*
Y021281D01*
X019248Y021381D01*
X019148Y021281D01*
Y021581D01*
X019048Y021281D02*
Y021481D01*
X018948Y021581D01*
X018848Y021481D01*
Y021281D01*
Y021431D01*
X019048D01*
X018748Y021581D02*
Y021531D01*
X018648Y021431D01*
X018548Y021531D01*
Y021581D01*
X018648Y021431D02*
Y021281D01*
X018149D02*
Y021581D01*
X018049Y021481D01*
X017949Y021581D01*
Y021281D01*
X017699Y021581D02*
X017799D01*
X017849Y021531D01*
Y021331D01*
X017799Y021281D01*
X017699D01*
X017649Y021331D01*
Y021531D01*
X017699Y021581D01*
X017549Y021281D02*
Y021581D01*
X017399D01*
X017349Y021531D01*
Y021431D01*
X017399Y021381D01*
X017549D01*
X017449D02*
X017349Y021281D01*
X017099Y021581D02*
X017199D01*
X017249Y021531D01*
Y021331D01*
X017199Y021281D01*
X017099D01*
X017049Y021331D01*
Y021531D01*
X017099Y021581D01*
X016949Y021281D02*
Y021581D01*
X016749Y021281D01*
Y021581D01*
X021003Y020704D02*
X021044Y020746D01*
X021128D01*
X021169Y020704D01*
Y020538D01*
X021128Y020496D01*
X021044D01*
X021003Y020538D01*
X020919Y020746D02*
X020753D01*
Y020704D01*
X020919Y020538D01*
Y020496D01*
X017263Y020057D02*
X017346D01*
X017304D01*
Y019849D01*
X017346Y019807D01*
X017387D01*
X017429Y019849D01*
X017179Y019807D02*
X017096D01*
X017138D01*
Y020057D01*
X017179Y020015D01*
X021400Y018287D02*
Y018537D01*
X021275D01*
X021233Y018495D01*
Y018412D01*
X021275Y018370D01*
X021400D01*
X021317D02*
X021233Y018287D01*
X021025D02*
Y018537D01*
X021150Y018412D01*
X020983D01*
X021400Y018737D02*
Y018987D01*
X021275D01*
X021233Y018945D01*
Y018862D01*
X021275Y018820D01*
X021400D01*
X021317D02*
X021233Y018737D01*
X020983Y018987D02*
X021150D01*
Y018862D01*
X021067Y018904D01*
X021025D01*
X020983Y018862D01*
Y018779D01*
X021025Y018737D01*
X021108D01*
X021150Y018779D01*
X033959Y021581D02*
Y021281D01*
X033859Y021381D01*
X033759Y021281D01*
Y021581D01*
X033659Y021281D02*
Y021581D01*
X033509D01*
X033459Y021531D01*
Y021431D01*
X033509Y021381D01*
X033659D01*
X033559D02*
X033459Y021281D01*
X033209Y021581D02*
X033309D01*
X033359Y021531D01*
Y021331D01*
X033309Y021281D01*
X033209D01*
X033159Y021331D01*
Y021531D01*
X033209Y021581D01*
X033059Y021281D02*
Y021581D01*
X032859Y021281D01*
Y021581D01*
X032559Y021531D02*
X032609Y021581D01*
X032709D01*
X032759Y021531D01*
Y021331D01*
X032709Y021281D01*
X032609D01*
X032559Y021331D01*
Y021431D01*
X032659D01*
X032159Y021581D02*
Y021281D01*
X032059Y021381D01*
X031959Y021281D01*
Y021581D01*
X031859Y021281D02*
Y021481D01*
X031759Y021581D01*
X031659Y021481D01*
Y021281D01*
Y021431D01*
X031859D01*
X031559Y021581D02*
Y021531D01*
X031459Y021431D01*
X031359Y021531D01*
Y021581D01*
X031459Y021431D02*
Y021281D01*
X030960D02*
Y021581D01*
X030860Y021481D01*
X030760Y021581D01*
Y021281D01*
X030510Y021581D02*
X030610D01*
X030660Y021531D01*
Y021331D01*
X030610Y021281D01*
X030510D01*
X030460Y021331D01*
Y021531D01*
X030510Y021581D01*
X030360Y021281D02*
Y021581D01*
X030210D01*
X030160Y021531D01*
Y021431D01*
X030210Y021381D01*
X030360D01*
X030260D02*
X030160Y021281D01*
X029910Y021581D02*
X030010D01*
X030060Y021531D01*
Y021331D01*
X030010Y021281D01*
X029910D01*
X029860Y021331D01*
Y021531D01*
X029910Y021581D01*
X029760Y021281D02*
Y021581D01*
X029560Y021281D01*
Y021581D01*
X033814Y020704D02*
X033855Y020746D01*
X033939D01*
X033980Y020704D01*
Y020538D01*
X033939Y020496D01*
X033855D01*
X033814Y020538D01*
X033730Y020746D02*
X033564D01*
Y020704D01*
X033730Y020538D01*
Y020496D01*
X030074Y020057D02*
X030157D01*
X030115D01*
Y019849D01*
X030157Y019807D01*
X030199D01*
X030240Y019849D01*
X029990Y019807D02*
X029907D01*
X029949D01*
Y020057D01*
X029990Y020015D01*
X034211Y018287D02*
Y018537D01*
X034086D01*
X034044Y018495D01*
Y018412D01*
X034086Y018370D01*
X034211D01*
X034128D02*
X034044Y018287D01*
X033836D02*
Y018537D01*
X033961Y018412D01*
X033795D01*
X034211Y018737D02*
Y018987D01*
X034086D01*
X034044Y018945D01*
Y018862D01*
X034086Y018820D01*
X034211D01*
X034128D02*
X034044Y018737D01*
X033795Y018987D02*
X033961D01*
Y018862D01*
X033878Y018904D01*
X033836D01*
X033795Y018862D01*
Y018779D01*
X033836Y018737D01*
X033919D01*
X033961Y018779D01*
M02*
