G04 Layer_Color=8388736*
%FSAX24Y24*%
%MOIN*%
G70*
G01*
G75*
%ADD37R,0.0414X0.0237*%
%ADD38R,0.0257X0.0257*%
%ADD39R,0.0198X0.0178*%
%ADD40R,0.0336X0.0178*%
%ADD41R,0.0178X0.0198*%
%ADD42R,0.0178X0.0336*%
%ADD43R,0.0296X0.0277*%
%ADD44R,0.0277X0.0296*%
%ADD45R,0.0312X0.0312*%
%ADD46R,0.0631X0.0572*%
%ADD47R,0.0312X0.0312*%
G04:AMPARAMS|DCode=48|XSize=84.7mil|YSize=41.4mil|CornerRadius=20.7mil|HoleSize=0mil|Usage=FLASHONLY|Rotation=0.000|XOffset=0mil|YOffset=0mil|HoleType=Round|Shape=RoundedRectangle|*
%AMROUNDEDRECTD48*
21,1,0.0847,0.0000,0,0,0.0*
21,1,0.0433,0.0414,0,0,0.0*
1,1,0.0414,0.0217,0.0000*
1,1,0.0414,-0.0217,0.0000*
1,1,0.0414,-0.0217,0.0000*
1,1,0.0414,0.0217,0.0000*
%
%ADD48ROUNDEDRECTD48*%
G04:AMPARAMS|DCode=49|XSize=41.4mil|YSize=41.4mil|CornerRadius=20.7mil|HoleSize=0mil|Usage=FLASHONLY|Rotation=0.000|XOffset=0mil|YOffset=0mil|HoleType=Round|Shape=RoundedRectangle|*
%AMROUNDEDRECTD49*
21,1,0.0414,0.0000,0,0,0.0*
21,1,0.0000,0.0414,0,0,0.0*
1,1,0.0414,0.0000,0.0000*
1,1,0.0414,0.0000,0.0000*
1,1,0.0414,0.0000,0.0000*
1,1,0.0414,0.0000,0.0000*
%
%ADD49ROUNDEDRECTD49*%
%ADD50C,0.0316*%
%ADD51C,0.0336*%
G36*
X030402Y020605D02*
X030407Y020603D01*
X030411Y020602D01*
X030415Y020599D01*
X030419Y020596D01*
X030422Y020593D01*
X030424Y020588D01*
X030426Y020584D01*
X030427Y020580D01*
X030428Y020575D01*
Y020339D01*
X030428Y020336D01*
X030427Y020334D01*
X030427Y020334D01*
Y020334D01*
X030427Y020332D01*
X030426Y020329D01*
X030426Y020329D01*
X030426Y020329D01*
X030426Y020328D01*
X030424Y020325D01*
X030424Y020325D01*
X030424Y020325D01*
X030423Y020323D01*
X030422Y020321D01*
X030422Y020321D01*
X030422Y020321D01*
X030420Y020319D01*
X030419Y020317D01*
X030419Y020317D01*
X030419Y020317D01*
X030417Y020316D01*
X030415Y020314D01*
X030415Y020314D01*
X030415Y020314D01*
X030413Y020313D01*
X030411Y020312D01*
X030411Y020312D01*
X030411Y020312D01*
X030409Y020311D01*
X030407Y020310D01*
X030407Y020310D01*
X030407Y020310D01*
X030404Y020309D01*
X030402Y020309D01*
X030402D01*
X030402Y020309D01*
X030400Y020309D01*
X030398Y020308D01*
X030348Y020308D01*
X030348Y020308D01*
X030348Y020308D01*
X030347Y020309D01*
X030344Y020309D01*
X030344Y020309D01*
X030344D01*
X030342Y020309D01*
X030339Y020310D01*
X030339Y020310D01*
X030339Y020310D01*
X030337Y020311D01*
X030335Y020312D01*
X030335Y020312D01*
X030335Y020312D01*
X030332Y020313D01*
X030331Y020314D01*
X030331Y020314D01*
X030331Y020314D01*
X030329Y020316D01*
X030327Y020317D01*
X030327Y020317D01*
X030327Y020317D01*
X030258Y020386D01*
X030257Y020388D01*
X030255Y020390D01*
X030255Y020390D01*
X030255Y020390D01*
X030255Y020391D01*
X030253Y020394D01*
X030251Y020398D01*
Y020398D01*
X030251Y020398D01*
X030250Y020400D01*
X030250Y020403D01*
X030250Y020403D01*
Y020403D01*
X030250Y020404D01*
X030249Y020407D01*
X030249Y020575D01*
Y020575D01*
D01*
X030250Y020580D01*
X030251Y020584D01*
X030253Y020588D01*
X030255Y020593D01*
X030258Y020596D01*
X030258Y020596D01*
X030258D01*
Y020596D01*
X030259Y020597D01*
X030262Y020599D01*
X030266Y020602D01*
X030270Y020603D01*
X030275Y020605D01*
X030280Y020605D01*
X030280D01*
D01*
X030398D01*
X030402Y020605D01*
D02*
G37*
G36*
X017591D02*
X017596Y020603D01*
X017600Y020602D01*
X017604Y020599D01*
X017608Y020596D01*
X017611Y020593D01*
X017613Y020588D01*
X017615Y020584D01*
X017616Y020580D01*
X017617Y020575D01*
Y020339D01*
X017617Y020336D01*
X017616Y020334D01*
X017616Y020334D01*
Y020334D01*
X017616Y020332D01*
X017615Y020329D01*
X017615Y020329D01*
X017615Y020329D01*
X017615Y020328D01*
X017613Y020325D01*
X017613Y020325D01*
X017613Y020325D01*
X017612Y020323D01*
X017611Y020321D01*
X017611Y020321D01*
X017611Y020321D01*
X017609Y020319D01*
X017608Y020317D01*
X017608Y020317D01*
X017608Y020317D01*
X017606Y020316D01*
X017604Y020314D01*
X017604Y020314D01*
X017604Y020314D01*
X017602Y020313D01*
X017600Y020312D01*
X017600Y020312D01*
X017600Y020312D01*
X017598Y020311D01*
X017596Y020310D01*
X017596Y020310D01*
X017596Y020310D01*
X017593Y020309D01*
X017591Y020309D01*
X017591D01*
X017591Y020309D01*
X017589Y020309D01*
X017587Y020308D01*
X017537Y020308D01*
X017537Y020308D01*
X017537Y020308D01*
X017536Y020309D01*
X017533Y020309D01*
X017533Y020309D01*
X017533D01*
X017531Y020309D01*
X017528Y020310D01*
X017528Y020310D01*
X017528Y020310D01*
X017526Y020311D01*
X017524Y020312D01*
X017524Y020312D01*
X017524Y020312D01*
X017521Y020313D01*
X017520Y020314D01*
X017520Y020314D01*
X017520Y020314D01*
X017517Y020316D01*
X017516Y020317D01*
X017516Y020317D01*
X017516Y020317D01*
X017447Y020386D01*
X017446Y020388D01*
X017444Y020390D01*
X017444Y020390D01*
X017444Y020390D01*
X017443Y020391D01*
X017442Y020394D01*
X017440Y020398D01*
Y020398D01*
X017440Y020398D01*
X017439Y020400D01*
X017439Y020403D01*
X017439Y020403D01*
Y020403D01*
X017439Y020404D01*
X017438Y020407D01*
X017438Y020575D01*
Y020575D01*
D01*
X017439Y020580D01*
X017440Y020584D01*
X017442Y020588D01*
X017444Y020593D01*
X017447Y020596D01*
X017447Y020596D01*
X017447D01*
Y020596D01*
X017448Y020597D01*
X017451Y020599D01*
X017455Y020602D01*
X017459Y020603D01*
X017464Y020605D01*
X017469Y020605D01*
X017469D01*
D01*
X017587D01*
X017591Y020605D01*
D02*
G37*
G36*
X031402Y020388D02*
X031406Y020388D01*
X031410Y020387D01*
X031411Y020387D01*
X031411Y020387D01*
X031411D01*
X031413Y020386D01*
X031415Y020385D01*
X031415Y020385D01*
X031415D01*
X031416Y020385D01*
X031419Y020383D01*
X031423Y020380D01*
X031423Y020380D01*
X031423Y020380D01*
X031426Y020376D01*
X031428Y020373D01*
X031428Y020372D01*
Y020372D01*
X031428Y020372D01*
X031429Y020370D01*
X031430Y020368D01*
Y020368D01*
X031430Y020368D01*
X031430Y020366D01*
X031431Y020363D01*
X031432Y020358D01*
Y020240D01*
X031431Y020235D01*
X031430Y020231D01*
X031428Y020227D01*
X031426Y020222D01*
X031423Y020219D01*
X031419Y020216D01*
X031415Y020213D01*
X031411Y020212D01*
X031406Y020210D01*
X031402Y020210D01*
X031165D01*
X031163Y020210D01*
X031161Y020210D01*
X031161Y020210D01*
X031161D01*
X031159Y020211D01*
X031156Y020212D01*
X031156Y020212D01*
X031156Y020212D01*
X031154Y020212D01*
X031152Y020213D01*
X031152Y020213D01*
X031152Y020213D01*
X031150Y020214D01*
X031148Y020216D01*
X031148Y020216D01*
X031148Y020216D01*
X031146Y020217D01*
X031144Y020219D01*
X031144Y020219D01*
X031144Y020219D01*
X031143Y020221D01*
X031141Y020222D01*
X031141Y020222D01*
X031141Y020222D01*
X031140Y020225D01*
X031139Y020226D01*
X031139Y020227D01*
X031139Y020227D01*
X031137Y020229D01*
X031137Y020231D01*
X031137Y020231D01*
X031137Y020231D01*
X031136Y020233D01*
X031136Y020235D01*
Y020235D01*
X031136Y020235D01*
X031135Y020238D01*
X031135Y020240D01*
X031135Y020289D01*
Y020289D01*
Y020289D01*
X031135Y020292D01*
X031136Y020294D01*
X031136Y020294D01*
Y020294D01*
X031136Y020296D01*
X031137Y020299D01*
X031137Y020299D01*
X031137Y020299D01*
X031137Y020300D01*
X031139Y020303D01*
X031139Y020303D01*
X031139Y020303D01*
X031140Y020305D01*
X031141Y020307D01*
X031141Y020307D01*
X031141Y020307D01*
X031143Y020309D01*
X031144Y020311D01*
X031144Y020311D01*
X031144Y020311D01*
X031213Y020380D01*
X031213Y020380D01*
X031213Y020380D01*
X031214Y020381D01*
X031217Y020383D01*
X031217Y020383D01*
X031217Y020383D01*
X031221Y020385D01*
X031224Y020387D01*
X031225Y020387D01*
X031225D01*
X031225Y020387D01*
X031230Y020388D01*
X031233Y020388D01*
X031234Y020388D01*
X031234D01*
X031234D01*
X031402Y020388D01*
D02*
G37*
G36*
X018591D02*
X018595Y020388D01*
X018599Y020387D01*
X018600Y020387D01*
X018600Y020387D01*
X018600D01*
X018602Y020386D01*
X018604Y020385D01*
X018604Y020385D01*
X018604D01*
X018605Y020385D01*
X018608Y020383D01*
X018612Y020380D01*
X018612Y020380D01*
X018612Y020380D01*
X018615Y020376D01*
X018617Y020373D01*
X018617Y020372D01*
Y020372D01*
X018617Y020372D01*
X018618Y020370D01*
X018619Y020368D01*
Y020368D01*
X018619Y020368D01*
X018619Y020366D01*
X018620Y020363D01*
X018621Y020358D01*
Y020240D01*
X018620Y020235D01*
X018619Y020231D01*
X018617Y020227D01*
X018615Y020222D01*
X018612Y020219D01*
X018608Y020216D01*
X018604Y020213D01*
X018600Y020212D01*
X018595Y020210D01*
X018591Y020210D01*
X018354D01*
X018352Y020210D01*
X018350Y020210D01*
X018350Y020210D01*
X018350D01*
X018348Y020211D01*
X018345Y020212D01*
X018345Y020212D01*
X018345Y020212D01*
X018343Y020212D01*
X018341Y020213D01*
X018341Y020213D01*
X018341Y020213D01*
X018339Y020214D01*
X018337Y020216D01*
X018337Y020216D01*
X018337Y020216D01*
X018335Y020217D01*
X018333Y020219D01*
X018333Y020219D01*
X018333Y020219D01*
X018332Y020221D01*
X018330Y020222D01*
X018330Y020222D01*
X018330Y020222D01*
X018329Y020225D01*
X018328Y020226D01*
X018328Y020227D01*
X018328Y020227D01*
X018326Y020229D01*
X018326Y020231D01*
X018326Y020231D01*
X018326Y020231D01*
X018325Y020233D01*
X018325Y020235D01*
Y020235D01*
X018325Y020235D01*
X018324Y020238D01*
X018324Y020240D01*
X018324Y020289D01*
Y020289D01*
Y020289D01*
X018324Y020292D01*
X018325Y020294D01*
X018325Y020294D01*
Y020294D01*
X018325Y020296D01*
X018326Y020299D01*
X018326Y020299D01*
X018326Y020299D01*
X018326Y020300D01*
X018327Y020303D01*
X018327Y020303D01*
X018327Y020303D01*
X018329Y020305D01*
X018330Y020307D01*
X018330Y020307D01*
X018330Y020307D01*
X018332Y020309D01*
X018333Y020311D01*
X018333Y020311D01*
X018333Y020311D01*
X018402Y020380D01*
X018402Y020380D01*
X018402Y020380D01*
X018403Y020381D01*
X018406Y020383D01*
X018406Y020383D01*
X018406Y020383D01*
X018410Y020385D01*
X018413Y020387D01*
X018414Y020387D01*
X018414D01*
X018414Y020387D01*
X018419Y020388D01*
X018422Y020388D01*
X018423Y020388D01*
X018423D01*
X018423D01*
X018591Y020388D01*
D02*
G37*
G36*
X030232Y020388D02*
X030235Y020388D01*
X030235Y020388D01*
X030235D01*
X030238Y020387D01*
X030240Y020387D01*
X030240Y020387D01*
X030240Y020387D01*
X030242Y020386D01*
X030244Y020385D01*
X030244Y020385D01*
X030244Y020385D01*
X030246Y020384D01*
X030248Y020383D01*
X030248Y020383D01*
X030248Y020383D01*
X030250Y020381D01*
X030252Y020380D01*
X030252Y020380D01*
X030252Y020380D01*
X030320Y020311D01*
X030323Y020308D01*
X030324Y020307D01*
X030324Y020307D01*
X030324Y020307D01*
X030325Y020305D01*
X030326Y020303D01*
X030328Y020299D01*
D01*
X030328Y020299D01*
X030329Y020296D01*
X030329Y020294D01*
Y020294D01*
X030329Y020294D01*
X030329Y020292D01*
X030329Y020289D01*
Y020289D01*
D01*
D01*
X030329Y020240D01*
X030329Y020235D01*
X030328Y020233D01*
X030328Y020231D01*
X030326Y020227D01*
X030326Y020227D01*
Y020227D01*
X030325Y020225D01*
X030324Y020222D01*
X030320Y020219D01*
X030320D01*
Y020219D01*
X030317Y020216D01*
X030314Y020214D01*
X030313Y020213D01*
X030313D01*
X030313Y020213D01*
X030309Y020212D01*
X030306Y020211D01*
X030304Y020210D01*
X030299Y020210D01*
X030063D01*
X030058Y020210D01*
X030054Y020212D01*
X030049Y020213D01*
X030045Y020216D01*
X030042Y020219D01*
X030039Y020222D01*
X030036Y020227D01*
X030034Y020231D01*
X030033Y020235D01*
X030033Y020240D01*
Y020358D01*
X030033Y020363D01*
X030034Y020366D01*
X030034Y020368D01*
X030034Y020368D01*
Y020368D01*
X030035Y020370D01*
X030036Y020372D01*
X030036Y020372D01*
Y020372D01*
X030037Y020373D01*
X030039Y020376D01*
X030042Y020380D01*
X030042Y020380D01*
X030042Y020380D01*
X030045Y020383D01*
X030048Y020385D01*
X030049Y020385D01*
X030049D01*
X030049Y020385D01*
X030051Y020386D01*
X030054Y020387D01*
X030054D01*
X030054Y020387D01*
X030055Y020387D01*
X030058Y020388D01*
X030063Y020388D01*
X030230Y020388D01*
X030230D01*
X030230D01*
X030232Y020388D01*
D02*
G37*
G36*
X017421D02*
X017424Y020388D01*
X017424Y020388D01*
X017424D01*
X017427Y020387D01*
X017429Y020387D01*
X017429Y020387D01*
X017429Y020387D01*
X017431Y020386D01*
X017433Y020385D01*
X017433Y020385D01*
X017433Y020385D01*
X017435Y020384D01*
X017437Y020383D01*
X017437Y020383D01*
X017437Y020383D01*
X017439Y020381D01*
X017441Y020380D01*
X017441Y020380D01*
X017441Y020380D01*
X017509Y020311D01*
X017512Y020308D01*
X017513Y020307D01*
X017513Y020307D01*
X017513Y020307D01*
X017514Y020305D01*
X017515Y020303D01*
X017517Y020299D01*
D01*
X017517Y020299D01*
X017518Y020296D01*
X017518Y020294D01*
Y020294D01*
X017518Y020294D01*
X017518Y020292D01*
X017518Y020289D01*
Y020289D01*
D01*
D01*
X017518Y020240D01*
X017518Y020235D01*
X017517Y020233D01*
X017517Y020231D01*
X017515Y020227D01*
X017515Y020227D01*
Y020227D01*
X017514Y020225D01*
X017513Y020222D01*
X017509Y020219D01*
X017509D01*
Y020219D01*
X017506Y020216D01*
X017503Y020214D01*
X017502Y020213D01*
X017502D01*
X017502Y020213D01*
X017497Y020212D01*
X017495Y020211D01*
X017493Y020210D01*
X017488Y020210D01*
X017252D01*
X017247Y020210D01*
X017243Y020212D01*
X017238Y020213D01*
X017234Y020216D01*
X017231Y020219D01*
X017228Y020222D01*
X017225Y020227D01*
X017223Y020231D01*
X017222Y020235D01*
X017222Y020240D01*
Y020358D01*
X017222Y020363D01*
X017223Y020366D01*
X017223Y020368D01*
X017223Y020368D01*
Y020368D01*
X017224Y020370D01*
X017225Y020372D01*
X017225Y020372D01*
Y020372D01*
X017226Y020373D01*
X017228Y020376D01*
X017231Y020380D01*
X017231Y020380D01*
X017231Y020380D01*
X017234Y020383D01*
X017237Y020385D01*
X017238Y020385D01*
X017238D01*
X017238Y020385D01*
X017240Y020386D01*
X017243Y020387D01*
X017243D01*
X017243Y020387D01*
X017244Y020387D01*
X017247Y020388D01*
X017252Y020388D01*
X017419Y020388D01*
X017419D01*
X017419D01*
X017421Y020388D01*
D02*
G37*
G36*
X031190Y020605D02*
X031193Y020604D01*
X031194Y020603D01*
X031194Y020603D01*
X031194D01*
X031197Y020602D01*
X031199Y020602D01*
X031199Y020602D01*
X031199D01*
X031200Y020601D01*
X031203Y020599D01*
X031206Y020596D01*
X031206Y020596D01*
X031206Y020596D01*
X031209Y020593D01*
X031211Y020589D01*
X031212Y020588D01*
Y020588D01*
X031212Y020588D01*
X031213Y020587D01*
X031214Y020584D01*
Y020584D01*
X031214Y020584D01*
X031214Y020583D01*
X031215Y020580D01*
X031215Y020575D01*
X031215Y020408D01*
Y020408D01*
Y020408D01*
X031215Y020403D01*
X031214Y020399D01*
X031214Y020398D01*
X031214Y020398D01*
Y020398D01*
X031213Y020396D01*
X031212Y020394D01*
X031212Y020394D01*
Y020394D01*
X031209Y020390D01*
X031207Y020387D01*
X031206Y020386D01*
X031206Y020386D01*
X031206Y020386D01*
X031137Y020317D01*
X031137Y020317D01*
X031137Y020317D01*
X031136Y020316D01*
X031134Y020314D01*
X031134Y020314D01*
X031134Y020314D01*
X031132Y020313D01*
X031130Y020312D01*
X031130Y020312D01*
X031130Y020312D01*
X031127Y020311D01*
X031125Y020310D01*
X031125Y020310D01*
X031125Y020310D01*
X031123Y020309D01*
X031121Y020309D01*
X031121D01*
X031121Y020309D01*
X031118Y020309D01*
X031116Y020308D01*
X031116D01*
X031116D01*
X031067Y020308D01*
X031065Y020309D01*
X031062Y020309D01*
X031062Y020309D01*
X031062D01*
X031060Y020309D01*
X031058Y020310D01*
X031058Y020310D01*
X031058Y020310D01*
X031056Y020311D01*
X031053Y020312D01*
X031053Y020312D01*
X031053Y020312D01*
X031051Y020313D01*
X031049Y020314D01*
X031049Y020314D01*
X031049Y020314D01*
X031047Y020316D01*
X031046Y020317D01*
X031046Y020317D01*
X031046Y020317D01*
X031044Y020319D01*
X031043Y020321D01*
X031043Y020321D01*
X031043Y020321D01*
X031041Y020323D01*
X031040Y020325D01*
X031040Y020325D01*
X031040Y020325D01*
X031039Y020328D01*
X031038Y020329D01*
X031038Y020329D01*
X031038Y020329D01*
X031038Y020332D01*
X031037Y020334D01*
Y020334D01*
X031037Y020334D01*
X031037Y020336D01*
X031037Y020339D01*
Y020575D01*
X031037Y020580D01*
X031038Y020584D01*
X031040Y020588D01*
X031043Y020593D01*
X031046Y020596D01*
X031049Y020599D01*
X031053Y020602D01*
X031058Y020603D01*
X031062Y020605D01*
X031067Y020605D01*
X031185D01*
X031190Y020605D01*
D02*
G37*
G36*
X018379D02*
X018382Y020604D01*
X018383Y020603D01*
X018383Y020603D01*
X018383D01*
X018386Y020602D01*
X018388Y020602D01*
X018388Y020602D01*
X018388D01*
X018389Y020601D01*
X018392Y020599D01*
X018395Y020596D01*
X018395Y020596D01*
X018395Y020596D01*
X018398Y020593D01*
X018400Y020589D01*
X018401Y020588D01*
Y020588D01*
X018401Y020588D01*
X018402Y020587D01*
X018403Y020584D01*
Y020584D01*
X018403Y020584D01*
X018403Y020583D01*
X018404Y020580D01*
X018404Y020575D01*
X018404Y020408D01*
Y020408D01*
Y020408D01*
X018404Y020403D01*
X018403Y020399D01*
X018403Y020398D01*
X018403Y020398D01*
Y020398D01*
X018402Y020396D01*
X018401Y020394D01*
X018401Y020394D01*
Y020394D01*
X018398Y020390D01*
X018396Y020387D01*
X018395Y020386D01*
X018395Y020386D01*
X018395Y020386D01*
X018326Y020317D01*
X018326Y020317D01*
X018326Y020317D01*
X018325Y020316D01*
X018323Y020314D01*
X018323Y020314D01*
X018323Y020314D01*
X018321Y020313D01*
X018319Y020312D01*
X018319Y020312D01*
X018319Y020312D01*
X018316Y020311D01*
X018314Y020310D01*
X018314Y020310D01*
X018314Y020310D01*
X018312Y020309D01*
X018310Y020309D01*
X018310D01*
X018310Y020309D01*
X018307Y020309D01*
X018305Y020308D01*
X018305D01*
X018305D01*
X018256Y020308D01*
X018254Y020309D01*
X018251Y020309D01*
X018251Y020309D01*
X018251D01*
X018249Y020309D01*
X018247Y020310D01*
X018247Y020310D01*
X018247Y020310D01*
X018245Y020311D01*
X018242Y020312D01*
X018242Y020312D01*
X018242Y020312D01*
X018240Y020313D01*
X018238Y020314D01*
X018238Y020314D01*
X018238Y020314D01*
X018236Y020316D01*
X018235Y020317D01*
X018235Y020317D01*
X018235Y020317D01*
X018233Y020319D01*
X018232Y020321D01*
X018232Y020321D01*
X018232Y020321D01*
X018230Y020323D01*
X018229Y020325D01*
X018229Y020325D01*
X018229Y020325D01*
X018228Y020328D01*
X018227Y020329D01*
X018227Y020329D01*
X018227Y020329D01*
X018227Y020332D01*
X018226Y020334D01*
Y020334D01*
X018226Y020334D01*
X018226Y020336D01*
X018226Y020339D01*
Y020575D01*
X018226Y020580D01*
X018227Y020584D01*
X018229Y020588D01*
X018232Y020593D01*
X018235Y020596D01*
X018238Y020599D01*
X018242Y020602D01*
X018247Y020603D01*
X018251Y020605D01*
X018256Y020605D01*
X018374D01*
X018379Y020605D01*
D02*
G37*
G36*
X031118Y019502D02*
X031121Y019502D01*
X031121Y019502D01*
X031121D01*
X031122Y019502D01*
X031125Y019501D01*
X031125Y019501D01*
D01*
X031130Y019499D01*
X031132Y019498D01*
X031134Y019497D01*
X031134Y019497D01*
X031134Y019497D01*
X031135Y019496D01*
X031137Y019494D01*
X031206Y019425D01*
X031206Y019425D01*
X031206Y019425D01*
X031208Y019423D01*
X031209Y019421D01*
X031209Y019421D01*
X031209Y019421D01*
X031211Y019419D01*
X031212Y019417D01*
X031212Y019417D01*
X031212Y019417D01*
X031213Y019415D01*
X031214Y019413D01*
X031214Y019413D01*
X031214Y019413D01*
X031214Y019411D01*
X031215Y019408D01*
Y019408D01*
X031215Y019408D01*
X031215Y019406D01*
X031215Y019404D01*
Y019404D01*
Y019404D01*
X031215Y019236D01*
X031215Y019232D01*
X031214Y019228D01*
X031214Y019227D01*
X031214Y019227D01*
Y019227D01*
X031213Y019224D01*
X031212Y019223D01*
X031212Y019223D01*
Y019223D01*
X031211Y019222D01*
X031209Y019219D01*
X031206Y019215D01*
X031206Y019215D01*
X031206Y019215D01*
X031203Y019212D01*
X031200Y019210D01*
X031199Y019209D01*
X031199D01*
X031199Y019209D01*
X031197Y019209D01*
X031194Y019208D01*
X031194D01*
X031194Y019208D01*
X031193Y019207D01*
X031190Y019207D01*
X031185Y019206D01*
X031067D01*
X031062Y019207D01*
X031058Y019208D01*
X031053Y019209D01*
X031049Y019212D01*
X031046Y019215D01*
X031043Y019219D01*
X031040Y019223D01*
X031038Y019227D01*
X031037Y019232D01*
X031037Y019236D01*
Y019472D01*
X031037Y019477D01*
X031038Y019479D01*
X031038Y019482D01*
X031040Y019486D01*
X031040Y019486D01*
Y019486D01*
X031041Y019488D01*
X031043Y019490D01*
X031046Y019494D01*
X031046D01*
Y019494D01*
X031049Y019497D01*
X031052Y019498D01*
X031053Y019499D01*
X031053D01*
X031053Y019499D01*
X031058Y019501D01*
X031060Y019502D01*
X031062Y019502D01*
X031067Y019503D01*
X031116Y019503D01*
D01*
D01*
X031116D01*
X031118Y019502D01*
D02*
G37*
G36*
X018307D02*
X018310Y019502D01*
X018310Y019502D01*
X018310D01*
X018311Y019502D01*
X018314Y019501D01*
X018314Y019501D01*
D01*
X018319Y019499D01*
X018321Y019498D01*
X018323Y019497D01*
X018323Y019497D01*
X018323Y019497D01*
X018324Y019496D01*
X018326Y019494D01*
X018395Y019425D01*
X018395Y019425D01*
X018395Y019425D01*
X018397Y019423D01*
X018398Y019421D01*
X018398Y019421D01*
X018398Y019421D01*
X018400Y019419D01*
X018401Y019417D01*
X018401Y019417D01*
X018401Y019417D01*
X018402Y019415D01*
X018403Y019413D01*
X018403Y019413D01*
X018403Y019413D01*
X018403Y019411D01*
X018404Y019408D01*
Y019408D01*
X018404Y019408D01*
X018404Y019406D01*
X018404Y019404D01*
Y019404D01*
Y019404D01*
X018404Y019236D01*
X018404Y019232D01*
X018403Y019228D01*
X018403Y019227D01*
X018403Y019227D01*
Y019227D01*
X018402Y019224D01*
X018401Y019223D01*
X018401Y019223D01*
Y019223D01*
X018400Y019222D01*
X018398Y019219D01*
X018395Y019215D01*
X018395Y019215D01*
X018395Y019215D01*
X018392Y019212D01*
X018389Y019210D01*
X018388Y019209D01*
X018388D01*
X018388Y019209D01*
X018386Y019209D01*
X018383Y019208D01*
X018383D01*
X018383Y019208D01*
X018382Y019207D01*
X018379Y019207D01*
X018374Y019206D01*
X018256D01*
X018251Y019207D01*
X018247Y019208D01*
X018242Y019209D01*
X018238Y019212D01*
X018235Y019215D01*
X018232Y019219D01*
X018229Y019223D01*
X018227Y019227D01*
X018226Y019232D01*
X018226Y019236D01*
Y019472D01*
X018226Y019477D01*
X018227Y019479D01*
X018227Y019482D01*
X018229Y019486D01*
X018229Y019486D01*
Y019486D01*
X018230Y019488D01*
X018232Y019490D01*
X018235Y019494D01*
X018235D01*
Y019494D01*
X018238Y019497D01*
X018241Y019498D01*
X018242Y019499D01*
X018242D01*
X018242Y019499D01*
X018247Y019501D01*
X018249Y019502D01*
X018251Y019502D01*
X018256Y019503D01*
X018305Y019503D01*
D01*
D01*
X018305D01*
X018307Y019502D01*
D02*
G37*
G36*
X030398Y019503D02*
X030402Y019502D01*
X030405Y019502D01*
X030407Y019501D01*
X030411Y019499D01*
X030411Y019499D01*
X030411D01*
X030413Y019498D01*
X030415Y019497D01*
X030419Y019494D01*
Y019494D01*
X030419D01*
X030422Y019490D01*
X030424Y019488D01*
X030424Y019486D01*
Y019486D01*
X030424Y019486D01*
X030426Y019482D01*
X030427Y019479D01*
X030427Y019477D01*
X030428Y019472D01*
Y019236D01*
X030427Y019232D01*
X030426Y019227D01*
X030424Y019223D01*
X030422Y019219D01*
X030419Y019215D01*
X030415Y019212D01*
X030411Y019209D01*
X030407Y019208D01*
X030402Y019207D01*
X030398Y019206D01*
X030280D01*
D01*
X030280D01*
X030275Y019207D01*
X030270Y019208D01*
X030266Y019209D01*
X030262Y019212D01*
X030259Y019215D01*
X030258Y019215D01*
Y019215D01*
X030258D01*
X030258Y019215D01*
X030255Y019219D01*
X030253Y019223D01*
X030251Y019227D01*
X030250Y019232D01*
X030249Y019236D01*
D01*
Y019236D01*
X030249Y019404D01*
X030250Y019408D01*
X030251Y019413D01*
X030253Y019417D01*
X030254Y019420D01*
X030255Y019421D01*
X030258Y019425D01*
X030327Y019494D01*
X030327D01*
Y019494D01*
X030331Y019497D01*
X030333Y019498D01*
X030335Y019499D01*
X030335D01*
X030335Y019499D01*
X030339Y019501D01*
X030342Y019502D01*
X030344Y019502D01*
X030348Y019503D01*
X030348D01*
X030348D01*
X030398Y019503D01*
D02*
G37*
G36*
X017587D02*
X017591Y019502D01*
X017594Y019502D01*
X017596Y019501D01*
X017600Y019499D01*
X017600Y019499D01*
X017600D01*
X017602Y019498D01*
X017604Y019497D01*
X017608Y019494D01*
Y019494D01*
X017608D01*
X017611Y019490D01*
X017613Y019488D01*
X017613Y019486D01*
Y019486D01*
X017613Y019486D01*
X017615Y019482D01*
X017616Y019479D01*
X017616Y019477D01*
X017617Y019472D01*
Y019236D01*
X017616Y019232D01*
X017615Y019227D01*
X017613Y019223D01*
X017611Y019219D01*
X017608Y019215D01*
X017604Y019212D01*
X017600Y019209D01*
X017596Y019208D01*
X017591Y019207D01*
X017587Y019206D01*
X017469D01*
D01*
X017469D01*
X017464Y019207D01*
X017459Y019208D01*
X017455Y019209D01*
X017451Y019212D01*
X017448Y019215D01*
X017447Y019215D01*
Y019215D01*
X017447D01*
X017447Y019215D01*
X017444Y019219D01*
X017442Y019223D01*
X017440Y019227D01*
X017439Y019232D01*
X017438Y019236D01*
D01*
Y019236D01*
X017438Y019404D01*
X017439Y019408D01*
X017440Y019413D01*
X017442Y019417D01*
X017443Y019420D01*
X017444Y019421D01*
X017447Y019425D01*
X017516Y019494D01*
X017516D01*
Y019494D01*
X017520Y019497D01*
X017522Y019498D01*
X017524Y019499D01*
X017524D01*
X017524Y019499D01*
X017528Y019501D01*
X017530Y019502D01*
X017533Y019502D01*
X017537Y019503D01*
X017537D01*
X017537D01*
X017587Y019503D01*
D02*
G37*
G36*
X031406Y019601D02*
X031411Y019599D01*
X031415Y019598D01*
X031419Y019595D01*
X031423Y019592D01*
X031426Y019589D01*
X031428Y019585D01*
X031430Y019580D01*
X031431Y019576D01*
X031432Y019571D01*
Y019453D01*
D01*
Y019453D01*
X031431Y019448D01*
X031430Y019443D01*
X031428Y019439D01*
X031426Y019435D01*
X031423Y019432D01*
X031423Y019431D01*
X031423D01*
Y019431D01*
X031422Y019431D01*
X031419Y019428D01*
X031415Y019426D01*
X031411Y019424D01*
X031406Y019423D01*
X031402Y019423D01*
D01*
X031402D01*
X031234Y019423D01*
X031230Y019423D01*
X031225Y019424D01*
X031225Y019424D01*
D01*
X031225Y019424D01*
X031221Y019426D01*
X031218Y019428D01*
X031217Y019428D01*
X031217Y019428D01*
X031217Y019428D01*
X031215Y019430D01*
X031213Y019431D01*
X031144Y019500D01*
X031144Y019500D01*
X031144Y019500D01*
X031143Y019502D01*
X031141Y019504D01*
X031141Y019504D01*
X031141Y019504D01*
X031140Y019505D01*
X031139Y019508D01*
X031139Y019508D01*
X031139Y019508D01*
X031138Y019510D01*
X031137Y019512D01*
X031137Y019512D01*
X031137Y019512D01*
X031136Y019515D01*
X031136Y019517D01*
Y019517D01*
X031136Y019517D01*
X031135Y019520D01*
X031135Y019522D01*
X031135Y019522D01*
X031135Y019522D01*
X031135Y019571D01*
X031135Y019573D01*
X031136Y019576D01*
X031136Y019576D01*
Y019576D01*
X031136Y019578D01*
X031137Y019580D01*
X031137Y019580D01*
X031137Y019580D01*
X031137Y019582D01*
X031139Y019585D01*
X031139Y019585D01*
X031139Y019585D01*
X031140Y019586D01*
X031141Y019589D01*
X031141Y019589D01*
X031141Y019589D01*
X031143Y019591D01*
X031144Y019592D01*
X031144Y019592D01*
X031144Y019592D01*
X031146Y019594D01*
X031148Y019595D01*
X031148Y019595D01*
X031148Y019595D01*
X031150Y019597D01*
X031152Y019598D01*
X031152Y019598D01*
X031152Y019598D01*
X031154Y019599D01*
X031156Y019599D01*
X031156Y019599D01*
X031156Y019599D01*
X031159Y019600D01*
X031161Y019601D01*
X031161D01*
X031161Y019601D01*
X031163Y019601D01*
X031165Y019601D01*
X031402D01*
X031406Y019601D01*
D02*
G37*
G36*
X030304D02*
X030306Y019600D01*
X030309Y019599D01*
X030313Y019598D01*
X030313Y019598D01*
X030313D01*
X030314Y019597D01*
X030317Y019595D01*
X030320Y019592D01*
Y019592D01*
X030320D01*
X030324Y019589D01*
X030325Y019586D01*
X030326Y019585D01*
Y019585D01*
X030326Y019585D01*
X030328Y019580D01*
X030328Y019578D01*
X030329Y019576D01*
X030329Y019571D01*
X030329Y019522D01*
Y019522D01*
Y019522D01*
X030329Y019517D01*
X030328Y019515D01*
X030328Y019512D01*
X030326Y019508D01*
X030326Y019508D01*
Y019508D01*
X030325Y019507D01*
X030324Y019504D01*
X030320Y019500D01*
X030320D01*
Y019500D01*
X030252Y019432D01*
X030248Y019428D01*
X030246Y019427D01*
X030244Y019426D01*
X030240Y019424D01*
X030235Y019423D01*
X030230Y019423D01*
X030063Y019423D01*
X030063D01*
D01*
X030058Y019423D01*
X030054Y019424D01*
X030049Y019426D01*
X030045Y019428D01*
X030042Y019431D01*
X030042Y019431D01*
Y019431D01*
X030042D01*
X030041Y019432D01*
X030039Y019435D01*
X030036Y019439D01*
X030034Y019443D01*
X030033Y019448D01*
X030033Y019453D01*
Y019453D01*
D01*
Y019571D01*
X030033Y019576D01*
X030034Y019580D01*
X030036Y019585D01*
X030039Y019589D01*
X030042Y019592D01*
X030045Y019595D01*
X030049Y019598D01*
X030054Y019599D01*
X030058Y019601D01*
X030063Y019601D01*
X030299D01*
X030304Y019601D01*
D02*
G37*
G36*
X018595D02*
X018600Y019599D01*
X018604Y019598D01*
X018608Y019595D01*
X018612Y019592D01*
X018615Y019589D01*
X018617Y019585D01*
X018619Y019580D01*
X018620Y019576D01*
X018621Y019571D01*
Y019453D01*
D01*
Y019453D01*
X018620Y019448D01*
X018619Y019443D01*
X018617Y019439D01*
X018615Y019435D01*
X018612Y019432D01*
X018612Y019431D01*
X018612D01*
Y019431D01*
X018611Y019431D01*
X018608Y019428D01*
X018604Y019426D01*
X018600Y019424D01*
X018595Y019423D01*
X018591Y019423D01*
D01*
X018591D01*
X018423Y019423D01*
X018419Y019423D01*
X018414Y019424D01*
X018414Y019424D01*
D01*
X018414Y019424D01*
X018410Y019426D01*
X018407Y019428D01*
X018406Y019428D01*
X018406Y019428D01*
X018406Y019428D01*
X018404Y019430D01*
X018402Y019431D01*
X018333Y019500D01*
X018333Y019500D01*
X018333Y019500D01*
X018332Y019502D01*
X018330Y019504D01*
X018330Y019504D01*
X018330Y019504D01*
X018329Y019505D01*
X018328Y019508D01*
X018327Y019508D01*
X018327Y019508D01*
X018327Y019510D01*
X018326Y019512D01*
X018326Y019512D01*
X018326Y019512D01*
X018325Y019515D01*
X018325Y019517D01*
Y019517D01*
X018325Y019517D01*
X018324Y019520D01*
X018324Y019522D01*
X018324Y019522D01*
X018324Y019522D01*
X018324Y019571D01*
X018324Y019573D01*
X018325Y019576D01*
X018325Y019576D01*
Y019576D01*
X018325Y019578D01*
X018326Y019580D01*
X018326Y019580D01*
X018326Y019580D01*
X018326Y019582D01*
X018328Y019585D01*
X018328Y019585D01*
X018328Y019585D01*
X018329Y019586D01*
X018330Y019589D01*
X018330Y019589D01*
X018330Y019589D01*
X018332Y019591D01*
X018333Y019592D01*
X018333Y019592D01*
X018333Y019592D01*
X018335Y019594D01*
X018337Y019595D01*
X018337Y019595D01*
X018337Y019595D01*
X018339Y019597D01*
X018341Y019598D01*
X018341Y019598D01*
X018341Y019598D01*
X018343Y019599D01*
X018345Y019599D01*
X018345Y019599D01*
X018345Y019599D01*
X018348Y019600D01*
X018350Y019601D01*
X018350D01*
X018350Y019601D01*
X018352Y019601D01*
X018354Y019601D01*
X018591D01*
X018595Y019601D01*
D02*
G37*
G36*
X017493D02*
X017495Y019600D01*
X017497Y019599D01*
X017502Y019598D01*
X017502Y019598D01*
X017502D01*
X017503Y019597D01*
X017506Y019595D01*
X017509Y019592D01*
Y019592D01*
X017509D01*
X017513Y019589D01*
X017514Y019586D01*
X017515Y019585D01*
Y019585D01*
X017515Y019585D01*
X017517Y019580D01*
X017517Y019578D01*
X017518Y019576D01*
X017518Y019571D01*
X017518Y019522D01*
Y019522D01*
Y019522D01*
X017518Y019517D01*
X017517Y019515D01*
X017517Y019512D01*
X017515Y019508D01*
X017515Y019508D01*
Y019508D01*
X017514Y019507D01*
X017513Y019504D01*
X017509Y019500D01*
X017509D01*
Y019500D01*
X017441Y019432D01*
X017437Y019428D01*
X017435Y019427D01*
X017433Y019426D01*
X017429Y019424D01*
X017424Y019423D01*
X017419Y019423D01*
X017252Y019423D01*
X017252D01*
D01*
X017247Y019423D01*
X017243Y019424D01*
X017238Y019426D01*
X017234Y019428D01*
X017231Y019431D01*
X017231Y019431D01*
Y019431D01*
X017231D01*
X017230Y019432D01*
X017228Y019435D01*
X017225Y019439D01*
X017223Y019443D01*
X017222Y019448D01*
X017222Y019453D01*
Y019453D01*
D01*
Y019571D01*
X017222Y019576D01*
X017223Y019580D01*
X017225Y019585D01*
X017228Y019589D01*
X017231Y019592D01*
X017234Y019595D01*
X017238Y019598D01*
X017243Y019599D01*
X017247Y019601D01*
X017252Y019601D01*
X017488D01*
X017493Y019601D01*
D02*
G37*
G36*
X030402Y015668D02*
X030407Y015666D01*
X030411Y015665D01*
X030415Y015662D01*
X030419Y015659D01*
X030422Y015655D01*
X030424Y015651D01*
X030426Y015647D01*
X030427Y015642D01*
X030428Y015638D01*
Y015402D01*
X030428Y015399D01*
X030427Y015397D01*
X030427Y015397D01*
Y015397D01*
X030427Y015395D01*
X030426Y015392D01*
X030426Y015392D01*
X030426Y015392D01*
X030426Y015391D01*
X030424Y015388D01*
X030424Y015388D01*
X030424Y015388D01*
X030423Y015386D01*
X030422Y015384D01*
X030422Y015384D01*
X030422Y015384D01*
X030420Y015382D01*
X030419Y015380D01*
X030419Y015380D01*
X030419Y015380D01*
X030417Y015379D01*
X030415Y015377D01*
X030415Y015377D01*
X030415Y015377D01*
X030413Y015376D01*
X030411Y015375D01*
X030411Y015375D01*
X030411Y015375D01*
X030409Y015374D01*
X030407Y015373D01*
X030407Y015373D01*
X030407Y015373D01*
X030404Y015372D01*
X030402Y015372D01*
X030402D01*
X030402Y015372D01*
X030400Y015372D01*
X030398Y015371D01*
X030348Y015371D01*
X030348Y015371D01*
X030348Y015371D01*
X030347Y015372D01*
X030344Y015372D01*
X030344Y015372D01*
X030344D01*
X030342Y015372D01*
X030339Y015373D01*
X030339Y015373D01*
X030339Y015373D01*
X030337Y015374D01*
X030335Y015375D01*
X030335Y015375D01*
X030335Y015375D01*
X030332Y015376D01*
X030331Y015377D01*
X030331Y015377D01*
X030331Y015377D01*
X030329Y015379D01*
X030327Y015380D01*
X030327Y015380D01*
X030327Y015380D01*
X030258Y015449D01*
X030257Y015451D01*
X030255Y015453D01*
X030255Y015453D01*
X030255Y015453D01*
X030255Y015454D01*
X030253Y015457D01*
X030251Y015461D01*
Y015461D01*
X030251Y015461D01*
X030250Y015463D01*
X030250Y015466D01*
X030250Y015466D01*
Y015466D01*
X030250Y015467D01*
X030249Y015470D01*
X030249Y015638D01*
Y015638D01*
D01*
X030250Y015642D01*
X030251Y015647D01*
X030253Y015651D01*
X030255Y015655D01*
X030258Y015659D01*
X030258Y015659D01*
X030258D01*
Y015659D01*
X030259Y015660D01*
X030262Y015662D01*
X030266Y015665D01*
X030270Y015666D01*
X030275Y015668D01*
X030280Y015668D01*
X030280D01*
D01*
X030398D01*
X030402Y015668D01*
D02*
G37*
G36*
X017591D02*
X017596Y015666D01*
X017600Y015665D01*
X017604Y015662D01*
X017608Y015659D01*
X017611Y015655D01*
X017613Y015651D01*
X017615Y015647D01*
X017616Y015642D01*
X017617Y015638D01*
Y015402D01*
X017617Y015399D01*
X017616Y015397D01*
X017616Y015397D01*
Y015397D01*
X017616Y015395D01*
X017615Y015392D01*
X017615Y015392D01*
X017615Y015392D01*
X017615Y015391D01*
X017613Y015388D01*
X017613Y015388D01*
X017613Y015388D01*
X017612Y015386D01*
X017611Y015384D01*
X017611Y015384D01*
X017611Y015384D01*
X017609Y015382D01*
X017608Y015380D01*
X017608Y015380D01*
X017608Y015380D01*
X017606Y015379D01*
X017604Y015377D01*
X017604Y015377D01*
X017604Y015377D01*
X017602Y015376D01*
X017600Y015375D01*
X017600Y015375D01*
X017600Y015375D01*
X017598Y015374D01*
X017596Y015373D01*
X017596Y015373D01*
X017596Y015373D01*
X017593Y015372D01*
X017591Y015372D01*
X017591D01*
X017591Y015372D01*
X017589Y015372D01*
X017587Y015371D01*
X017537Y015371D01*
X017537Y015371D01*
X017537Y015371D01*
X017536Y015372D01*
X017533Y015372D01*
X017533Y015372D01*
X017533D01*
X017531Y015372D01*
X017528Y015373D01*
X017528Y015373D01*
X017528Y015373D01*
X017526Y015374D01*
X017524Y015375D01*
X017524Y015375D01*
X017524Y015375D01*
X017521Y015376D01*
X017520Y015377D01*
X017520Y015377D01*
X017520Y015377D01*
X017517Y015379D01*
X017516Y015380D01*
X017516Y015380D01*
X017516Y015380D01*
X017447Y015449D01*
X017446Y015451D01*
X017444Y015453D01*
X017444Y015453D01*
X017444Y015453D01*
X017443Y015454D01*
X017442Y015457D01*
X017440Y015461D01*
Y015461D01*
X017440Y015461D01*
X017439Y015463D01*
X017439Y015466D01*
X017439Y015466D01*
Y015466D01*
X017439Y015467D01*
X017438Y015470D01*
X017438Y015638D01*
Y015638D01*
D01*
X017439Y015642D01*
X017440Y015647D01*
X017442Y015651D01*
X017444Y015655D01*
X017447Y015659D01*
X017447Y015659D01*
X017447D01*
Y015659D01*
X017448Y015660D01*
X017451Y015662D01*
X017455Y015665D01*
X017459Y015666D01*
X017464Y015668D01*
X017469Y015668D01*
X017469D01*
D01*
X017587D01*
X017591Y015668D01*
D02*
G37*
G36*
X031402Y015451D02*
X031406Y015451D01*
X031410Y015450D01*
X031411Y015450D01*
X031411Y015450D01*
X031411D01*
X031413Y015449D01*
X031415Y015448D01*
X031415Y015448D01*
X031415D01*
X031416Y015448D01*
X031419Y015446D01*
X031423Y015443D01*
X031423Y015443D01*
X031423Y015443D01*
X031426Y015439D01*
X031428Y015436D01*
X031428Y015435D01*
Y015435D01*
X031428Y015435D01*
X031429Y015433D01*
X031430Y015431D01*
Y015431D01*
X031430Y015431D01*
X031430Y015429D01*
X031431Y015426D01*
X031432Y015421D01*
Y015303D01*
X031431Y015298D01*
X031430Y015294D01*
X031428Y015289D01*
X031426Y015285D01*
X031423Y015282D01*
X031419Y015279D01*
X031415Y015276D01*
X031411Y015275D01*
X031406Y015273D01*
X031402Y015273D01*
X031165D01*
X031163Y015273D01*
X031161Y015273D01*
X031161Y015273D01*
X031161D01*
X031159Y015274D01*
X031156Y015275D01*
X031156Y015275D01*
X031156Y015275D01*
X031154Y015275D01*
X031152Y015276D01*
X031152Y015276D01*
X031152Y015276D01*
X031150Y015277D01*
X031148Y015279D01*
X031148Y015279D01*
X031148Y015279D01*
X031146Y015280D01*
X031144Y015282D01*
X031144Y015282D01*
X031144Y015282D01*
X031143Y015284D01*
X031141Y015285D01*
X031141Y015285D01*
X031141Y015285D01*
X031140Y015288D01*
X031139Y015289D01*
X031139Y015289D01*
X031139Y015289D01*
X031137Y015292D01*
X031137Y015294D01*
X031137Y015294D01*
X031137Y015294D01*
X031136Y015296D01*
X031136Y015298D01*
Y015298D01*
X031136Y015298D01*
X031135Y015301D01*
X031135Y015303D01*
X031135Y015352D01*
Y015352D01*
Y015352D01*
X031135Y015355D01*
X031136Y015357D01*
X031136Y015357D01*
Y015357D01*
X031136Y015359D01*
X031137Y015362D01*
X031137Y015362D01*
X031137Y015362D01*
X031137Y015363D01*
X031139Y015366D01*
X031139Y015366D01*
X031139Y015366D01*
X031140Y015368D01*
X031141Y015370D01*
X031141Y015370D01*
X031141Y015370D01*
X031143Y015372D01*
X031144Y015374D01*
X031144Y015374D01*
X031144Y015374D01*
X031213Y015443D01*
X031213Y015443D01*
X031213Y015443D01*
X031214Y015444D01*
X031217Y015446D01*
X031217Y015446D01*
X031217Y015446D01*
X031221Y015448D01*
X031224Y015450D01*
X031225Y015450D01*
X031225D01*
X031225Y015450D01*
X031230Y015451D01*
X031233Y015451D01*
X031234Y015451D01*
X031234D01*
X031234D01*
X031402Y015451D01*
D02*
G37*
G36*
X018591D02*
X018595Y015451D01*
X018599Y015450D01*
X018600Y015450D01*
X018600Y015450D01*
X018600D01*
X018602Y015449D01*
X018604Y015448D01*
X018604Y015448D01*
X018604D01*
X018605Y015448D01*
X018608Y015446D01*
X018612Y015443D01*
X018612Y015443D01*
X018612Y015443D01*
X018615Y015439D01*
X018617Y015436D01*
X018617Y015435D01*
Y015435D01*
X018617Y015435D01*
X018618Y015433D01*
X018619Y015431D01*
Y015431D01*
X018619Y015431D01*
X018619Y015429D01*
X018620Y015426D01*
X018621Y015421D01*
Y015303D01*
X018620Y015298D01*
X018619Y015294D01*
X018617Y015289D01*
X018615Y015285D01*
X018612Y015282D01*
X018608Y015279D01*
X018604Y015276D01*
X018600Y015275D01*
X018595Y015273D01*
X018591Y015273D01*
X018354D01*
X018352Y015273D01*
X018350Y015273D01*
X018350Y015273D01*
X018350D01*
X018348Y015274D01*
X018345Y015275D01*
X018345Y015275D01*
X018345Y015275D01*
X018343Y015275D01*
X018341Y015276D01*
X018341Y015276D01*
X018341Y015276D01*
X018339Y015277D01*
X018337Y015279D01*
X018337Y015279D01*
X018337Y015279D01*
X018335Y015280D01*
X018333Y015282D01*
X018333Y015282D01*
X018333Y015282D01*
X018332Y015284D01*
X018330Y015285D01*
X018330Y015285D01*
X018330Y015285D01*
X018329Y015288D01*
X018328Y015289D01*
X018328Y015289D01*
X018328Y015289D01*
X018326Y015292D01*
X018326Y015294D01*
X018326Y015294D01*
X018326Y015294D01*
X018325Y015296D01*
X018325Y015298D01*
Y015298D01*
X018325Y015298D01*
X018324Y015301D01*
X018324Y015303D01*
X018324Y015352D01*
Y015352D01*
Y015352D01*
X018324Y015355D01*
X018325Y015357D01*
X018325Y015357D01*
Y015357D01*
X018325Y015359D01*
X018326Y015362D01*
X018326Y015362D01*
X018326Y015362D01*
X018326Y015363D01*
X018327Y015366D01*
X018327Y015366D01*
X018327Y015366D01*
X018329Y015368D01*
X018330Y015370D01*
X018330Y015370D01*
X018330Y015370D01*
X018332Y015372D01*
X018333Y015374D01*
X018333Y015374D01*
X018333Y015374D01*
X018402Y015443D01*
X018402Y015443D01*
X018402Y015443D01*
X018403Y015444D01*
X018406Y015446D01*
X018406Y015446D01*
X018406Y015446D01*
X018410Y015448D01*
X018413Y015450D01*
X018414Y015450D01*
X018414D01*
X018414Y015450D01*
X018419Y015451D01*
X018422Y015451D01*
X018423Y015451D01*
X018423D01*
X018423D01*
X018591Y015451D01*
D02*
G37*
G36*
X030232Y015451D02*
X030235Y015451D01*
X030235Y015451D01*
X030235D01*
X030238Y015450D01*
X030240Y015450D01*
X030240Y015450D01*
X030240Y015450D01*
X030242Y015449D01*
X030244Y015448D01*
X030244Y015448D01*
X030244Y015448D01*
X030246Y015447D01*
X030248Y015446D01*
X030248Y015446D01*
X030248Y015446D01*
X030250Y015444D01*
X030252Y015443D01*
X030252Y015443D01*
X030252Y015443D01*
X030320Y015374D01*
X030323Y015371D01*
X030324Y015370D01*
X030324Y015370D01*
X030324Y015370D01*
X030325Y015368D01*
X030326Y015366D01*
X030328Y015362D01*
D01*
X030328Y015362D01*
X030329Y015359D01*
X030329Y015357D01*
Y015357D01*
X030329Y015357D01*
X030329Y015355D01*
X030329Y015352D01*
Y015352D01*
D01*
D01*
X030329Y015303D01*
X030329Y015298D01*
X030328Y015296D01*
X030328Y015294D01*
X030326Y015289D01*
X030326Y015289D01*
Y015289D01*
X030325Y015288D01*
X030324Y015285D01*
X030320Y015282D01*
X030320D01*
Y015282D01*
X030317Y015279D01*
X030314Y015277D01*
X030313Y015276D01*
X030313D01*
X030313Y015276D01*
X030309Y015275D01*
X030306Y015274D01*
X030304Y015273D01*
X030299Y015273D01*
X030063D01*
X030058Y015273D01*
X030054Y015275D01*
X030049Y015276D01*
X030045Y015279D01*
X030042Y015282D01*
X030039Y015285D01*
X030036Y015289D01*
X030034Y015294D01*
X030033Y015298D01*
X030033Y015303D01*
Y015421D01*
X030033Y015426D01*
X030034Y015429D01*
X030034Y015431D01*
X030034Y015431D01*
Y015431D01*
X030035Y015433D01*
X030036Y015435D01*
X030036Y015435D01*
Y015435D01*
X030037Y015436D01*
X030039Y015439D01*
X030042Y015443D01*
X030042Y015443D01*
X030042Y015443D01*
X030045Y015446D01*
X030048Y015448D01*
X030049Y015448D01*
X030049D01*
X030049Y015448D01*
X030051Y015449D01*
X030054Y015450D01*
X030054D01*
X030054Y015450D01*
X030055Y015450D01*
X030058Y015451D01*
X030063Y015451D01*
X030230Y015451D01*
X030230D01*
X030230D01*
X030232Y015451D01*
D02*
G37*
G36*
X017421D02*
X017424Y015451D01*
X017424Y015451D01*
X017424D01*
X017427Y015450D01*
X017429Y015450D01*
X017429Y015450D01*
X017429Y015450D01*
X017431Y015449D01*
X017433Y015448D01*
X017433Y015448D01*
X017433Y015448D01*
X017435Y015447D01*
X017437Y015446D01*
X017437Y015446D01*
X017437Y015446D01*
X017439Y015444D01*
X017441Y015443D01*
X017441Y015443D01*
X017441Y015443D01*
X017509Y015374D01*
X017512Y015371D01*
X017513Y015370D01*
X017513Y015370D01*
X017513Y015370D01*
X017514Y015368D01*
X017515Y015366D01*
X017517Y015362D01*
D01*
X017517Y015362D01*
X017518Y015359D01*
X017518Y015357D01*
Y015357D01*
X017518Y015357D01*
X017518Y015355D01*
X017518Y015352D01*
Y015352D01*
D01*
D01*
X017518Y015303D01*
X017518Y015298D01*
X017517Y015296D01*
X017517Y015294D01*
X017515Y015289D01*
X017515Y015289D01*
Y015289D01*
X017514Y015288D01*
X017513Y015285D01*
X017509Y015282D01*
X017509D01*
Y015282D01*
X017506Y015279D01*
X017503Y015277D01*
X017502Y015276D01*
X017502D01*
X017502Y015276D01*
X017497Y015275D01*
X017495Y015274D01*
X017493Y015273D01*
X017488Y015273D01*
X017252D01*
X017247Y015273D01*
X017243Y015275D01*
X017238Y015276D01*
X017234Y015279D01*
X017231Y015282D01*
X017228Y015285D01*
X017225Y015289D01*
X017223Y015294D01*
X017222Y015298D01*
X017222Y015303D01*
Y015421D01*
X017222Y015426D01*
X017223Y015429D01*
X017223Y015431D01*
X017223Y015431D01*
Y015431D01*
X017224Y015433D01*
X017225Y015435D01*
X017225Y015435D01*
Y015435D01*
X017226Y015436D01*
X017228Y015439D01*
X017231Y015443D01*
X017231Y015443D01*
X017231Y015443D01*
X017234Y015446D01*
X017237Y015448D01*
X017238Y015448D01*
X017238D01*
X017238Y015448D01*
X017240Y015449D01*
X017243Y015450D01*
X017243D01*
X017243Y015450D01*
X017244Y015450D01*
X017247Y015451D01*
X017252Y015451D01*
X017419Y015451D01*
X017419D01*
X017419D01*
X017421Y015451D01*
D02*
G37*
G36*
X031190Y015668D02*
X031193Y015667D01*
X031194Y015666D01*
X031194Y015666D01*
X031194D01*
X031197Y015665D01*
X031199Y015665D01*
X031199Y015665D01*
X031199D01*
X031200Y015664D01*
X031203Y015662D01*
X031206Y015659D01*
X031206Y015659D01*
X031206Y015659D01*
X031209Y015655D01*
X031211Y015652D01*
X031212Y015651D01*
Y015651D01*
X031212Y015651D01*
X031213Y015650D01*
X031214Y015647D01*
Y015647D01*
X031214Y015647D01*
X031214Y015646D01*
X031215Y015643D01*
X031215Y015638D01*
X031215Y015470D01*
Y015470D01*
Y015470D01*
X031215Y015466D01*
X031214Y015462D01*
X031214Y015461D01*
X031214Y015461D01*
Y015461D01*
X031213Y015459D01*
X031212Y015457D01*
X031212Y015457D01*
Y015457D01*
X031209Y015453D01*
X031207Y015450D01*
X031206Y015449D01*
X031206Y015449D01*
X031206Y015449D01*
X031137Y015380D01*
X031137Y015380D01*
X031137Y015380D01*
X031136Y015379D01*
X031134Y015377D01*
X031134Y015377D01*
X031134Y015377D01*
X031132Y015376D01*
X031130Y015375D01*
X031130Y015375D01*
X031130Y015375D01*
X031127Y015374D01*
X031125Y015373D01*
X031125Y015373D01*
X031125Y015373D01*
X031123Y015372D01*
X031121Y015372D01*
X031121D01*
X031121Y015372D01*
X031118Y015372D01*
X031116Y015371D01*
X031116D01*
X031116D01*
X031067Y015371D01*
X031065Y015372D01*
X031062Y015372D01*
X031062Y015372D01*
X031062D01*
X031060Y015372D01*
X031058Y015373D01*
X031058Y015373D01*
X031058Y015373D01*
X031056Y015374D01*
X031053Y015375D01*
X031053Y015375D01*
X031053Y015375D01*
X031051Y015376D01*
X031049Y015377D01*
X031049Y015377D01*
X031049Y015377D01*
X031047Y015379D01*
X031046Y015380D01*
X031046Y015380D01*
X031046Y015380D01*
X031044Y015382D01*
X031043Y015384D01*
X031043Y015384D01*
X031043Y015384D01*
X031041Y015386D01*
X031040Y015388D01*
X031040Y015388D01*
X031040Y015388D01*
X031039Y015391D01*
X031038Y015392D01*
X031038Y015392D01*
X031038Y015392D01*
X031038Y015395D01*
X031037Y015397D01*
Y015397D01*
X031037Y015397D01*
X031037Y015399D01*
X031037Y015402D01*
Y015638D01*
X031037Y015642D01*
X031038Y015647D01*
X031040Y015651D01*
X031043Y015655D01*
X031046Y015659D01*
X031049Y015662D01*
X031053Y015665D01*
X031058Y015666D01*
X031062Y015668D01*
X031067Y015668D01*
X031185D01*
X031190Y015668D01*
D02*
G37*
G36*
X018379D02*
X018382Y015667D01*
X018383Y015666D01*
X018383Y015666D01*
X018383D01*
X018386Y015665D01*
X018388Y015665D01*
X018388Y015665D01*
X018388D01*
X018389Y015664D01*
X018392Y015662D01*
X018395Y015659D01*
X018395Y015659D01*
X018395Y015659D01*
X018398Y015655D01*
X018400Y015652D01*
X018401Y015651D01*
Y015651D01*
X018401Y015651D01*
X018402Y015650D01*
X018403Y015647D01*
Y015647D01*
X018403Y015647D01*
X018403Y015646D01*
X018404Y015643D01*
X018404Y015638D01*
X018404Y015470D01*
Y015470D01*
Y015470D01*
X018404Y015466D01*
X018403Y015462D01*
X018403Y015461D01*
X018403Y015461D01*
Y015461D01*
X018402Y015459D01*
X018401Y015457D01*
X018401Y015457D01*
Y015457D01*
X018398Y015453D01*
X018396Y015450D01*
X018395Y015449D01*
X018395Y015449D01*
X018395Y015449D01*
X018326Y015380D01*
X018326Y015380D01*
X018326Y015380D01*
X018325Y015379D01*
X018323Y015377D01*
X018323Y015377D01*
X018323Y015377D01*
X018321Y015376D01*
X018319Y015375D01*
X018319Y015375D01*
X018319Y015375D01*
X018316Y015374D01*
X018314Y015373D01*
X018314Y015373D01*
X018314Y015373D01*
X018312Y015372D01*
X018310Y015372D01*
X018310D01*
X018310Y015372D01*
X018307Y015372D01*
X018305Y015371D01*
X018305D01*
X018305D01*
X018256Y015371D01*
X018254Y015372D01*
X018251Y015372D01*
X018251Y015372D01*
X018251D01*
X018249Y015372D01*
X018247Y015373D01*
X018247Y015373D01*
X018247Y015373D01*
X018245Y015374D01*
X018242Y015375D01*
X018242Y015375D01*
X018242Y015375D01*
X018240Y015376D01*
X018238Y015377D01*
X018238Y015377D01*
X018238Y015377D01*
X018236Y015379D01*
X018235Y015380D01*
X018235Y015380D01*
X018235Y015380D01*
X018233Y015382D01*
X018232Y015384D01*
X018232Y015384D01*
X018232Y015384D01*
X018230Y015386D01*
X018229Y015388D01*
X018229Y015388D01*
X018229Y015388D01*
X018228Y015391D01*
X018227Y015392D01*
X018227Y015392D01*
X018227Y015392D01*
X018227Y015395D01*
X018226Y015397D01*
Y015397D01*
X018226Y015397D01*
X018226Y015399D01*
X018226Y015402D01*
Y015638D01*
X018226Y015642D01*
X018227Y015647D01*
X018229Y015651D01*
X018232Y015655D01*
X018235Y015659D01*
X018238Y015662D01*
X018242Y015665D01*
X018247Y015666D01*
X018251Y015668D01*
X018256Y015668D01*
X018374D01*
X018379Y015668D01*
D02*
G37*
G36*
X031118Y014565D02*
X031121Y014565D01*
X031121Y014565D01*
X031121D01*
X031122Y014565D01*
X031125Y014564D01*
X031125Y014564D01*
D01*
X031130Y014562D01*
X031132Y014561D01*
X031134Y014560D01*
X031134Y014560D01*
X031134Y014560D01*
X031135Y014559D01*
X031137Y014557D01*
X031206Y014488D01*
X031206Y014488D01*
X031206Y014488D01*
X031208Y014486D01*
X031209Y014484D01*
X031209Y014484D01*
X031209Y014484D01*
X031211Y014482D01*
X031212Y014480D01*
X031212Y014480D01*
X031212Y014480D01*
X031213Y014478D01*
X031214Y014476D01*
X031214Y014476D01*
X031214Y014476D01*
X031214Y014474D01*
X031215Y014471D01*
Y014471D01*
X031215Y014471D01*
X031215Y014469D01*
X031215Y014467D01*
Y014467D01*
Y014467D01*
X031215Y014299D01*
X031215Y014295D01*
X031214Y014291D01*
X031214Y014290D01*
X031214Y014290D01*
Y014290D01*
X031213Y014287D01*
X031212Y014286D01*
X031212Y014286D01*
Y014286D01*
X031211Y014285D01*
X031209Y014282D01*
X031206Y014278D01*
X031206Y014278D01*
X031206Y014278D01*
X031203Y014275D01*
X031200Y014273D01*
X031199Y014272D01*
X031199D01*
X031199Y014272D01*
X031197Y014272D01*
X031194Y014271D01*
X031194D01*
X031194Y014271D01*
X031193Y014270D01*
X031190Y014269D01*
X031185Y014269D01*
X031067D01*
X031062Y014269D01*
X031058Y014271D01*
X031053Y014272D01*
X031049Y014275D01*
X031046Y014278D01*
X031043Y014282D01*
X031040Y014286D01*
X031038Y014290D01*
X031037Y014295D01*
X031037Y014299D01*
Y014535D01*
X031037Y014540D01*
X031038Y014542D01*
X031038Y014545D01*
X031040Y014549D01*
X031040Y014549D01*
Y014549D01*
X031041Y014551D01*
X031043Y014553D01*
X031046Y014557D01*
X031046D01*
Y014557D01*
X031049Y014560D01*
X031052Y014561D01*
X031053Y014562D01*
X031053D01*
X031053Y014562D01*
X031058Y014564D01*
X031060Y014565D01*
X031062Y014565D01*
X031067Y014566D01*
X031116Y014566D01*
D01*
D01*
X031116D01*
X031118Y014565D01*
D02*
G37*
G36*
X018307D02*
X018310Y014565D01*
X018310Y014565D01*
X018310D01*
X018311Y014565D01*
X018314Y014564D01*
X018314Y014564D01*
D01*
X018319Y014562D01*
X018321Y014561D01*
X018323Y014560D01*
X018323Y014560D01*
X018323Y014560D01*
X018324Y014559D01*
X018326Y014557D01*
X018395Y014488D01*
X018395Y014488D01*
X018395Y014488D01*
X018397Y014486D01*
X018398Y014484D01*
X018398Y014484D01*
X018398Y014484D01*
X018400Y014482D01*
X018401Y014480D01*
X018401Y014480D01*
X018401Y014480D01*
X018402Y014478D01*
X018403Y014476D01*
X018403Y014476D01*
X018403Y014476D01*
X018403Y014474D01*
X018404Y014471D01*
Y014471D01*
X018404Y014471D01*
X018404Y014469D01*
X018404Y014467D01*
Y014467D01*
Y014467D01*
X018404Y014299D01*
X018404Y014295D01*
X018403Y014291D01*
X018403Y014290D01*
X018403Y014290D01*
Y014290D01*
X018402Y014287D01*
X018401Y014286D01*
X018401Y014286D01*
Y014286D01*
X018400Y014285D01*
X018398Y014282D01*
X018395Y014278D01*
X018395Y014278D01*
X018395Y014278D01*
X018392Y014275D01*
X018389Y014273D01*
X018388Y014272D01*
X018388D01*
X018388Y014272D01*
X018386Y014272D01*
X018383Y014271D01*
X018383D01*
X018383Y014271D01*
X018382Y014270D01*
X018379Y014269D01*
X018374Y014269D01*
X018256D01*
X018251Y014269D01*
X018247Y014271D01*
X018242Y014272D01*
X018238Y014275D01*
X018235Y014278D01*
X018232Y014282D01*
X018229Y014286D01*
X018227Y014290D01*
X018226Y014295D01*
X018226Y014299D01*
Y014535D01*
X018226Y014540D01*
X018227Y014542D01*
X018227Y014545D01*
X018229Y014549D01*
X018229Y014549D01*
Y014549D01*
X018230Y014551D01*
X018232Y014553D01*
X018235Y014557D01*
X018235D01*
Y014557D01*
X018238Y014560D01*
X018241Y014561D01*
X018242Y014562D01*
X018242D01*
X018242Y014562D01*
X018247Y014564D01*
X018249Y014565D01*
X018251Y014565D01*
X018256Y014566D01*
X018305Y014566D01*
D01*
D01*
X018305D01*
X018307Y014565D01*
D02*
G37*
G36*
X030398Y014566D02*
X030402Y014565D01*
X030405Y014565D01*
X030407Y014564D01*
X030411Y014562D01*
X030411Y014562D01*
X030411D01*
X030413Y014561D01*
X030415Y014560D01*
X030419Y014557D01*
Y014557D01*
X030419D01*
X030422Y014553D01*
X030424Y014551D01*
X030424Y014549D01*
Y014549D01*
X030424Y014549D01*
X030426Y014545D01*
X030427Y014542D01*
X030427Y014540D01*
X030428Y014535D01*
Y014299D01*
X030427Y014295D01*
X030426Y014290D01*
X030424Y014286D01*
X030422Y014282D01*
X030419Y014278D01*
X030415Y014275D01*
X030411Y014272D01*
X030407Y014271D01*
X030402Y014269D01*
X030398Y014269D01*
X030280D01*
D01*
X030280D01*
X030275Y014269D01*
X030270Y014271D01*
X030266Y014272D01*
X030262Y014275D01*
X030259Y014277D01*
X030258Y014278D01*
Y014278D01*
X030258D01*
X030258Y014278D01*
X030255Y014282D01*
X030253Y014286D01*
X030251Y014290D01*
X030250Y014295D01*
X030249Y014299D01*
D01*
Y014299D01*
X030249Y014467D01*
X030250Y014471D01*
X030251Y014476D01*
X030253Y014480D01*
X030254Y014483D01*
X030255Y014484D01*
X030258Y014488D01*
X030327Y014557D01*
X030327D01*
Y014557D01*
X030331Y014560D01*
X030333Y014561D01*
X030335Y014562D01*
X030335D01*
X030335Y014562D01*
X030339Y014564D01*
X030342Y014565D01*
X030344Y014565D01*
X030348Y014566D01*
X030348D01*
X030348D01*
X030398Y014566D01*
D02*
G37*
G36*
X017587D02*
X017591Y014565D01*
X017594Y014565D01*
X017596Y014564D01*
X017600Y014562D01*
X017600Y014562D01*
X017600D01*
X017602Y014561D01*
X017604Y014560D01*
X017608Y014557D01*
Y014557D01*
X017608D01*
X017611Y014553D01*
X017613Y014551D01*
X017613Y014549D01*
Y014549D01*
X017613Y014549D01*
X017615Y014545D01*
X017616Y014542D01*
X017616Y014540D01*
X017617Y014535D01*
Y014299D01*
X017616Y014295D01*
X017615Y014290D01*
X017613Y014286D01*
X017611Y014282D01*
X017608Y014278D01*
X017604Y014275D01*
X017600Y014272D01*
X017596Y014271D01*
X017591Y014269D01*
X017587Y014269D01*
X017469D01*
D01*
X017469D01*
X017464Y014269D01*
X017459Y014271D01*
X017455Y014272D01*
X017451Y014275D01*
X017448Y014277D01*
X017447Y014278D01*
Y014278D01*
X017447D01*
X017447Y014278D01*
X017444Y014282D01*
X017442Y014286D01*
X017440Y014290D01*
X017439Y014295D01*
X017438Y014299D01*
D01*
Y014299D01*
X017438Y014467D01*
X017439Y014471D01*
X017440Y014476D01*
X017442Y014480D01*
X017443Y014483D01*
X017444Y014484D01*
X017447Y014488D01*
X017516Y014557D01*
X017516D01*
Y014557D01*
X017520Y014560D01*
X017522Y014561D01*
X017524Y014562D01*
X017524D01*
X017524Y014562D01*
X017528Y014564D01*
X017530Y014565D01*
X017533Y014565D01*
X017537Y014566D01*
X017537D01*
X017537D01*
X017587Y014566D01*
D02*
G37*
G36*
X031406Y014664D02*
X031411Y014662D01*
X031415Y014661D01*
X031419Y014658D01*
X031423Y014655D01*
X031426Y014652D01*
X031428Y014648D01*
X031430Y014643D01*
X031431Y014639D01*
X031432Y014634D01*
Y014516D01*
D01*
Y014516D01*
X031431Y014511D01*
X031430Y014506D01*
X031428Y014502D01*
X031426Y014498D01*
X031423Y014495D01*
X031423Y014494D01*
X031423D01*
Y014494D01*
X031422Y014494D01*
X031419Y014491D01*
X031415Y014489D01*
X031411Y014487D01*
X031406Y014486D01*
X031402Y014486D01*
D01*
X031402D01*
X031234Y014486D01*
X031230Y014486D01*
X031225Y014487D01*
X031225Y014487D01*
D01*
X031225Y014487D01*
X031221Y014489D01*
X031218Y014491D01*
X031217Y014491D01*
X031217Y014491D01*
X031217Y014491D01*
X031215Y014493D01*
X031213Y014494D01*
X031144Y014563D01*
X031144Y014563D01*
X031144Y014563D01*
X031143Y014565D01*
X031141Y014567D01*
X031141Y014567D01*
X031141Y014567D01*
X031140Y014568D01*
X031139Y014571D01*
X031139Y014571D01*
X031139Y014571D01*
X031138Y014573D01*
X031137Y014575D01*
X031137Y014575D01*
X031137Y014575D01*
X031136Y014578D01*
X031136Y014580D01*
Y014580D01*
X031136Y014580D01*
X031135Y014583D01*
X031135Y014585D01*
X031135Y014585D01*
X031135Y014585D01*
X031135Y014634D01*
X031135Y014636D01*
X031136Y014639D01*
X031136Y014639D01*
Y014639D01*
X031136Y014641D01*
X031137Y014643D01*
X031137Y014643D01*
X031137Y014643D01*
X031137Y014645D01*
X031139Y014648D01*
X031139Y014648D01*
X031139Y014648D01*
X031140Y014649D01*
X031141Y014652D01*
X031141Y014652D01*
X031141Y014652D01*
X031143Y014654D01*
X031144Y014655D01*
X031144Y014655D01*
X031144Y014655D01*
X031146Y014657D01*
X031148Y014658D01*
X031148Y014658D01*
X031148Y014658D01*
X031150Y014660D01*
X031152Y014661D01*
X031152Y014661D01*
X031152Y014661D01*
X031154Y014662D01*
X031156Y014662D01*
X031156Y014662D01*
X031156Y014662D01*
X031159Y014663D01*
X031161Y014664D01*
X031161D01*
X031161Y014664D01*
X031163Y014664D01*
X031165Y014664D01*
X031402D01*
X031406Y014664D01*
D02*
G37*
G36*
X030304D02*
X030306Y014663D01*
X030309Y014662D01*
X030313Y014661D01*
X030313Y014661D01*
X030313D01*
X030314Y014660D01*
X030317Y014658D01*
X030320Y014655D01*
Y014655D01*
X030320D01*
X030324Y014652D01*
X030325Y014649D01*
X030326Y014648D01*
Y014648D01*
X030326Y014648D01*
X030328Y014643D01*
X030328Y014641D01*
X030329Y014639D01*
X030329Y014634D01*
X030329Y014585D01*
Y014585D01*
Y014585D01*
X030329Y014580D01*
X030328Y014578D01*
X030328Y014575D01*
X030326Y014571D01*
X030326Y014571D01*
Y014571D01*
X030325Y014570D01*
X030324Y014567D01*
X030320Y014563D01*
X030320D01*
Y014563D01*
X030252Y014494D01*
X030248Y014491D01*
X030246Y014490D01*
X030244Y014489D01*
X030240Y014487D01*
X030235Y014486D01*
X030230Y014486D01*
X030063Y014486D01*
X030063D01*
D01*
X030058Y014486D01*
X030054Y014487D01*
X030049Y014489D01*
X030045Y014491D01*
X030042Y014494D01*
X030042Y014494D01*
Y014494D01*
X030042D01*
X030041Y014495D01*
X030039Y014498D01*
X030036Y014502D01*
X030034Y014506D01*
X030033Y014511D01*
X030033Y014516D01*
Y014516D01*
D01*
Y014634D01*
X030033Y014639D01*
X030034Y014643D01*
X030036Y014648D01*
X030039Y014652D01*
X030042Y014655D01*
X030045Y014658D01*
X030049Y014661D01*
X030054Y014662D01*
X030058Y014664D01*
X030063Y014664D01*
X030299D01*
X030304Y014664D01*
D02*
G37*
G36*
X018595D02*
X018600Y014662D01*
X018604Y014661D01*
X018608Y014658D01*
X018612Y014655D01*
X018615Y014652D01*
X018617Y014648D01*
X018619Y014643D01*
X018620Y014639D01*
X018621Y014634D01*
Y014516D01*
D01*
Y014516D01*
X018620Y014511D01*
X018619Y014506D01*
X018617Y014502D01*
X018615Y014498D01*
X018612Y014495D01*
X018612Y014494D01*
X018612D01*
Y014494D01*
X018611Y014494D01*
X018608Y014491D01*
X018604Y014489D01*
X018600Y014487D01*
X018595Y014486D01*
X018591Y014486D01*
D01*
X018591D01*
X018423Y014486D01*
X018419Y014486D01*
X018414Y014487D01*
X018414Y014487D01*
D01*
X018414Y014487D01*
X018410Y014489D01*
X018407Y014491D01*
X018406Y014491D01*
X018406Y014491D01*
X018406Y014491D01*
X018404Y014493D01*
X018402Y014494D01*
X018333Y014563D01*
X018333Y014563D01*
X018333Y014563D01*
X018332Y014565D01*
X018330Y014567D01*
X018330Y014567D01*
X018330Y014567D01*
X018329Y014568D01*
X018328Y014571D01*
X018327Y014571D01*
X018327Y014571D01*
X018327Y014573D01*
X018326Y014575D01*
X018326Y014575D01*
X018326Y014575D01*
X018325Y014578D01*
X018325Y014580D01*
Y014580D01*
X018325Y014580D01*
X018324Y014583D01*
X018324Y014585D01*
X018324Y014585D01*
X018324Y014585D01*
X018324Y014634D01*
X018324Y014636D01*
X018325Y014639D01*
X018325Y014639D01*
Y014639D01*
X018325Y014641D01*
X018326Y014643D01*
X018326Y014643D01*
X018326Y014643D01*
X018326Y014645D01*
X018328Y014648D01*
X018328Y014648D01*
X018328Y014648D01*
X018329Y014649D01*
X018330Y014652D01*
X018330Y014652D01*
X018330Y014652D01*
X018332Y014654D01*
X018333Y014655D01*
X018333Y014655D01*
X018333Y014655D01*
X018335Y014657D01*
X018337Y014658D01*
X018337Y014658D01*
X018337Y014658D01*
X018339Y014660D01*
X018341Y014661D01*
X018341Y014661D01*
X018341Y014661D01*
X018343Y014662D01*
X018345Y014662D01*
X018345Y014662D01*
X018345Y014662D01*
X018348Y014663D01*
X018350Y014664D01*
X018350D01*
X018350Y014664D01*
X018352Y014664D01*
X018354Y014664D01*
X018591D01*
X018595Y014664D01*
D02*
G37*
G36*
X017493D02*
X017495Y014663D01*
X017497Y014662D01*
X017502Y014661D01*
X017502Y014661D01*
X017502D01*
X017503Y014660D01*
X017506Y014658D01*
X017509Y014655D01*
Y014655D01*
X017509D01*
X017513Y014652D01*
X017514Y014649D01*
X017515Y014648D01*
Y014648D01*
X017515Y014648D01*
X017517Y014643D01*
X017517Y014641D01*
X017518Y014639D01*
X017518Y014634D01*
X017518Y014585D01*
Y014585D01*
Y014585D01*
X017518Y014580D01*
X017517Y014578D01*
X017517Y014575D01*
X017515Y014571D01*
X017515Y014571D01*
Y014571D01*
X017514Y014570D01*
X017513Y014567D01*
X017509Y014563D01*
X017509D01*
Y014563D01*
X017441Y014494D01*
X017437Y014491D01*
X017435Y014490D01*
X017433Y014489D01*
X017429Y014487D01*
X017424Y014486D01*
X017419Y014486D01*
X017252Y014486D01*
X017252D01*
D01*
X017247Y014486D01*
X017243Y014487D01*
X017238Y014489D01*
X017234Y014491D01*
X017231Y014494D01*
X017231Y014494D01*
Y014494D01*
X017231D01*
X017230Y014495D01*
X017228Y014498D01*
X017225Y014502D01*
X017223Y014506D01*
X017222Y014511D01*
X017222Y014516D01*
Y014516D01*
D01*
Y014634D01*
X017222Y014639D01*
X017223Y014643D01*
X017225Y014648D01*
X017228Y014652D01*
X017231Y014655D01*
X017234Y014658D01*
X017238Y014661D01*
X017243Y014662D01*
X017247Y014664D01*
X017252Y014664D01*
X017488D01*
X017493Y014664D01*
D02*
G37*
D37*
X019841Y015067D02*
D03*
Y014811D02*
D03*
Y014555D02*
D03*
X020726D02*
D03*
Y015067D02*
D03*
X032652D02*
D03*
Y014811D02*
D03*
Y014555D02*
D03*
X033537D02*
D03*
Y015067D02*
D03*
X019841Y020004D02*
D03*
Y019748D02*
D03*
Y019492D02*
D03*
X020726D02*
D03*
Y020004D02*
D03*
X032652D02*
D03*
Y019748D02*
D03*
Y019492D02*
D03*
X033537D02*
D03*
Y020004D02*
D03*
D38*
X014299Y014339D02*
D03*
X013984D02*
D03*
X013669D02*
D03*
X014299Y014654D02*
D03*
X013669D02*
D03*
X014299Y014969D02*
D03*
X013669D02*
D03*
X014299Y015283D02*
D03*
X013669D02*
D03*
X014299Y015598D02*
D03*
X013984D02*
D03*
X013669D02*
D03*
X024142Y014339D02*
D03*
X023827D02*
D03*
X023512D02*
D03*
X024142Y014654D02*
D03*
X023512D02*
D03*
X024142Y014969D02*
D03*
X023512D02*
D03*
X024142Y015283D02*
D03*
X023512D02*
D03*
X024142Y015598D02*
D03*
X023827D02*
D03*
X023512D02*
D03*
X027110Y014339D02*
D03*
X026795D02*
D03*
X026480D02*
D03*
X027110Y014654D02*
D03*
X026480D02*
D03*
X027110Y014969D02*
D03*
X026480D02*
D03*
X027110Y015283D02*
D03*
X026480D02*
D03*
X027110Y015598D02*
D03*
X026795D02*
D03*
X026480D02*
D03*
X036953Y014339D02*
D03*
X036638D02*
D03*
X036323D02*
D03*
X036953Y014654D02*
D03*
X036323D02*
D03*
X036953Y014969D02*
D03*
X036323D02*
D03*
X036953Y015283D02*
D03*
X036323D02*
D03*
X036953Y015598D02*
D03*
X036638D02*
D03*
X036323D02*
D03*
X014299Y019276D02*
D03*
X013984D02*
D03*
X013669D02*
D03*
X014299Y019591D02*
D03*
X013669D02*
D03*
X014299Y019906D02*
D03*
X013669D02*
D03*
X014299Y020220D02*
D03*
X013669D02*
D03*
X014299Y020535D02*
D03*
X013984D02*
D03*
X013669D02*
D03*
X024142Y019276D02*
D03*
X023827D02*
D03*
X023512D02*
D03*
X024142Y019591D02*
D03*
X023512D02*
D03*
X024142Y019906D02*
D03*
X023512D02*
D03*
X024142Y020220D02*
D03*
X023512D02*
D03*
X024142Y020535D02*
D03*
X023827D02*
D03*
X023512D02*
D03*
X027110Y019276D02*
D03*
X026795D02*
D03*
X026480D02*
D03*
X027110Y019591D02*
D03*
X026480D02*
D03*
X027110Y019906D02*
D03*
X026480D02*
D03*
X027110Y020220D02*
D03*
X026480D02*
D03*
X027110Y020535D02*
D03*
X026795D02*
D03*
X026480D02*
D03*
X036953Y019276D02*
D03*
X036638D02*
D03*
X036323D02*
D03*
X036953Y019591D02*
D03*
X036323D02*
D03*
X036953Y019906D02*
D03*
X036323D02*
D03*
X036953Y020220D02*
D03*
X036323D02*
D03*
X036953Y020535D02*
D03*
X036638D02*
D03*
X036323D02*
D03*
D39*
X017321Y015362D02*
D03*
Y014575D02*
D03*
X018522D02*
D03*
Y015362D02*
D03*
X030132D02*
D03*
Y014575D02*
D03*
X031333D02*
D03*
Y015362D02*
D03*
X017321Y020299D02*
D03*
Y019512D02*
D03*
X018522D02*
D03*
Y020299D02*
D03*
X030132D02*
D03*
Y019512D02*
D03*
X031333D02*
D03*
Y020299D02*
D03*
D40*
X017390Y015165D02*
D03*
Y014969D02*
D03*
Y014772D02*
D03*
X018453D02*
D03*
Y014969D02*
D03*
Y015165D02*
D03*
X030201D02*
D03*
Y014969D02*
D03*
Y014772D02*
D03*
X031264D02*
D03*
Y014969D02*
D03*
Y015165D02*
D03*
X017390Y020102D02*
D03*
Y019906D02*
D03*
Y019709D02*
D03*
X018453D02*
D03*
Y019906D02*
D03*
Y020102D02*
D03*
X030201D02*
D03*
Y019906D02*
D03*
Y019709D02*
D03*
X031264D02*
D03*
Y019906D02*
D03*
Y020102D02*
D03*
D41*
X017528Y014368D02*
D03*
X018315D02*
D03*
Y015569D02*
D03*
X017528D02*
D03*
X030339Y014368D02*
D03*
X031126D02*
D03*
Y015569D02*
D03*
X030339D02*
D03*
X017528Y019305D02*
D03*
X018315D02*
D03*
Y020506D02*
D03*
X017528D02*
D03*
X030339Y019305D02*
D03*
X031126D02*
D03*
Y020506D02*
D03*
X030339D02*
D03*
D42*
X017724Y014437D02*
D03*
X017921D02*
D03*
X018118D02*
D03*
Y015500D02*
D03*
X017921D02*
D03*
X017724D02*
D03*
X030535Y014437D02*
D03*
X030732D02*
D03*
X030929D02*
D03*
Y015500D02*
D03*
X030732D02*
D03*
X030535D02*
D03*
X017724Y019374D02*
D03*
X017921D02*
D03*
X018118D02*
D03*
Y020437D02*
D03*
X017921D02*
D03*
X017724D02*
D03*
X030535Y019374D02*
D03*
X030732D02*
D03*
X030929D02*
D03*
Y020437D02*
D03*
X030732D02*
D03*
X030535D02*
D03*
D43*
X016780Y014545D02*
D03*
Y014919D02*
D03*
Y014250D02*
D03*
Y013876D02*
D03*
X016937Y015943D02*
D03*
Y015569D02*
D03*
X029591Y014545D02*
D03*
Y014919D02*
D03*
Y014250D02*
D03*
Y013876D02*
D03*
X029748Y015943D02*
D03*
Y015569D02*
D03*
X016780Y019482D02*
D03*
Y019856D02*
D03*
Y019187D02*
D03*
Y018813D02*
D03*
X016937Y020880D02*
D03*
Y020506D02*
D03*
X029591Y019482D02*
D03*
Y019856D02*
D03*
Y019187D02*
D03*
Y018813D02*
D03*
X029748Y020880D02*
D03*
Y020506D02*
D03*
D44*
X014703Y013787D02*
D03*
X015077D02*
D03*
X024014Y013492D02*
D03*
X023640D02*
D03*
X023030Y013787D02*
D03*
X022656D02*
D03*
X023640Y016150D02*
D03*
X024014D02*
D03*
X013797Y013591D02*
D03*
X014171D02*
D03*
Y016150D02*
D03*
X013797D02*
D03*
X027514Y013787D02*
D03*
X027888D02*
D03*
X036825Y013492D02*
D03*
X036451D02*
D03*
X035841Y013787D02*
D03*
X035467D02*
D03*
X036451Y016150D02*
D03*
X036825D02*
D03*
X026608Y013591D02*
D03*
X026982D02*
D03*
Y016150D02*
D03*
X026608D02*
D03*
X014703Y018724D02*
D03*
X015077D02*
D03*
X024014Y018429D02*
D03*
X023640D02*
D03*
X023030Y018724D02*
D03*
X022656D02*
D03*
X023640Y021087D02*
D03*
X024014D02*
D03*
X013797Y018528D02*
D03*
X014171D02*
D03*
Y021087D02*
D03*
X013797D02*
D03*
X027514Y018724D02*
D03*
X027888D02*
D03*
X036825Y018429D02*
D03*
X036451D02*
D03*
X035841Y018724D02*
D03*
X035467D02*
D03*
X036451Y021087D02*
D03*
X036825D02*
D03*
X026608Y018528D02*
D03*
X026982D02*
D03*
Y021087D02*
D03*
X026608D02*
D03*
D45*
X018984Y014992D02*
D03*
Y014630D02*
D03*
X021110Y015150D02*
D03*
Y014787D02*
D03*
X019398Y015091D02*
D03*
Y014728D02*
D03*
X016564Y015912D02*
D03*
Y015549D02*
D03*
X031795Y014992D02*
D03*
Y014630D02*
D03*
X033921Y015150D02*
D03*
Y014787D02*
D03*
X032209Y015091D02*
D03*
Y014728D02*
D03*
X029375Y015912D02*
D03*
Y015549D02*
D03*
X018984Y019929D02*
D03*
Y019567D02*
D03*
X021110Y020087D02*
D03*
Y019724D02*
D03*
X019398Y020028D02*
D03*
Y019665D02*
D03*
X016564Y020849D02*
D03*
Y020486D02*
D03*
X031795Y019929D02*
D03*
Y019567D02*
D03*
X033921Y020087D02*
D03*
Y019724D02*
D03*
X032209Y020028D02*
D03*
Y019665D02*
D03*
X029375Y020849D02*
D03*
Y020486D02*
D03*
D46*
X022843Y015480D02*
D03*
Y014850D02*
D03*
X014969Y015480D02*
D03*
Y014850D02*
D03*
X035654Y015480D02*
D03*
Y014850D02*
D03*
X027780Y015480D02*
D03*
Y014850D02*
D03*
X022843Y020417D02*
D03*
Y019787D02*
D03*
X014969Y020417D02*
D03*
Y019787D02*
D03*
X035654Y020417D02*
D03*
Y019787D02*
D03*
X027780Y020417D02*
D03*
Y019787D02*
D03*
D47*
X022661Y016071D02*
D03*
X023024D02*
D03*
X015150D02*
D03*
X014787D02*
D03*
X023646Y016543D02*
D03*
X024008D02*
D03*
X013803D02*
D03*
X014165D02*
D03*
X035472Y016071D02*
D03*
X035835D02*
D03*
X027961D02*
D03*
X027598D02*
D03*
X036457Y016543D02*
D03*
X036819D02*
D03*
X026614D02*
D03*
X026976D02*
D03*
X022661Y021008D02*
D03*
X023024D02*
D03*
X015150D02*
D03*
X014787D02*
D03*
X023646Y021480D02*
D03*
X024008D02*
D03*
X013803D02*
D03*
X014165D02*
D03*
X035472Y021008D02*
D03*
X035835D02*
D03*
X027961D02*
D03*
X027598D02*
D03*
X036457Y021480D02*
D03*
X036819D02*
D03*
X026614D02*
D03*
X026976D02*
D03*
D48*
X021858Y014969D02*
D03*
Y014476D02*
D03*
Y015461D02*
D03*
Y015953D02*
D03*
Y013984D02*
D03*
Y013492D02*
D03*
Y016445D02*
D03*
X015953D02*
D03*
Y013492D02*
D03*
Y013984D02*
D03*
Y015953D02*
D03*
Y015461D02*
D03*
Y014476D02*
D03*
Y014969D02*
D03*
X034669D02*
D03*
Y014476D02*
D03*
Y015461D02*
D03*
Y015953D02*
D03*
Y013984D02*
D03*
Y013492D02*
D03*
Y016445D02*
D03*
X028764D02*
D03*
Y013492D02*
D03*
Y013984D02*
D03*
Y015953D02*
D03*
Y015461D02*
D03*
Y014476D02*
D03*
Y014969D02*
D03*
X021858Y019906D02*
D03*
Y019413D02*
D03*
Y020398D02*
D03*
Y020890D02*
D03*
Y018921D02*
D03*
Y018429D02*
D03*
Y021382D02*
D03*
X015953D02*
D03*
Y018429D02*
D03*
Y018921D02*
D03*
Y020890D02*
D03*
Y020398D02*
D03*
Y019413D02*
D03*
Y019906D02*
D03*
X034669D02*
D03*
Y019413D02*
D03*
Y020398D02*
D03*
Y020890D02*
D03*
Y018921D02*
D03*
Y018429D02*
D03*
Y021382D02*
D03*
X028764D02*
D03*
Y018429D02*
D03*
Y018921D02*
D03*
Y020890D02*
D03*
Y020398D02*
D03*
Y019413D02*
D03*
Y019906D02*
D03*
D49*
X015953Y016937D02*
D03*
Y013000D02*
D03*
X021858D02*
D03*
Y016937D02*
D03*
X028764D02*
D03*
Y013000D02*
D03*
X034669D02*
D03*
Y016937D02*
D03*
X015953Y021874D02*
D03*
Y017937D02*
D03*
X021858D02*
D03*
Y021874D02*
D03*
X028764D02*
D03*
Y017937D02*
D03*
X034669D02*
D03*
Y021874D02*
D03*
D50*
X022104Y016445D02*
D03*
X021612D02*
D03*
Y015953D02*
D03*
X022104D02*
D03*
Y015461D02*
D03*
X021612D02*
D03*
Y014969D02*
D03*
X022104D02*
D03*
Y014476D02*
D03*
X021612D02*
D03*
Y013984D02*
D03*
X022104D02*
D03*
Y013492D02*
D03*
X021612D02*
D03*
X015707D02*
D03*
X016199D02*
D03*
X015707Y013984D02*
D03*
X016199D02*
D03*
Y014969D02*
D03*
Y014476D02*
D03*
Y015461D02*
D03*
X016200Y015953D02*
D03*
X015707Y014969D02*
D03*
Y014476D02*
D03*
X034915Y016445D02*
D03*
X034423D02*
D03*
Y015953D02*
D03*
X034915D02*
D03*
Y015461D02*
D03*
X034423D02*
D03*
Y014969D02*
D03*
X034915D02*
D03*
Y014476D02*
D03*
X034423D02*
D03*
Y013984D02*
D03*
X034915D02*
D03*
Y013492D02*
D03*
X034423D02*
D03*
X028518D02*
D03*
X029010D02*
D03*
X028518Y013984D02*
D03*
X029010D02*
D03*
Y014969D02*
D03*
Y014476D02*
D03*
Y015461D02*
D03*
X029011Y015953D02*
D03*
X028518Y014969D02*
D03*
Y014476D02*
D03*
X022104Y021382D02*
D03*
X021612D02*
D03*
Y020890D02*
D03*
X022104D02*
D03*
Y020398D02*
D03*
X021612D02*
D03*
Y019906D02*
D03*
X022104D02*
D03*
Y019413D02*
D03*
X021612D02*
D03*
Y018921D02*
D03*
X022104D02*
D03*
Y018429D02*
D03*
X021612D02*
D03*
X015707D02*
D03*
X016199D02*
D03*
X015707Y018921D02*
D03*
X016199D02*
D03*
Y019906D02*
D03*
Y019413D02*
D03*
Y020398D02*
D03*
X016200Y020890D02*
D03*
X015707Y019906D02*
D03*
Y019413D02*
D03*
X034915Y021382D02*
D03*
X034423D02*
D03*
Y020890D02*
D03*
X034915D02*
D03*
Y020398D02*
D03*
X034423D02*
D03*
Y019906D02*
D03*
X034915D02*
D03*
Y019413D02*
D03*
X034423D02*
D03*
Y018921D02*
D03*
X034915D02*
D03*
Y018429D02*
D03*
X034423D02*
D03*
X028518D02*
D03*
X029010D02*
D03*
X028518Y018921D02*
D03*
X029010D02*
D03*
Y019906D02*
D03*
Y019413D02*
D03*
Y020398D02*
D03*
X029011Y020890D02*
D03*
X028518Y019906D02*
D03*
Y019413D02*
D03*
D51*
X017545Y015837D02*
D03*
X017902Y016051D02*
D03*
X016839Y015067D02*
D03*
X030356Y015837D02*
D03*
X030713Y016051D02*
D03*
X029650Y015067D02*
D03*
X017545Y020774D02*
D03*
X017902Y020988D02*
D03*
X016839Y020004D02*
D03*
X030356Y020774D02*
D03*
X030713Y020988D02*
D03*
X029650Y020004D02*
D03*
M02*
