G04 Layer_Color=16711935*
%FSAX24Y24*%
%MOIN*%
G70*
G01*
G75*
%ADD53C,0.0010*%
D53*
X038622Y022874D02*
Y022874D01*
Y022874D02*
X038622D01*
X038622Y021918D02*
X038622Y022874D01*
X038622Y021918D02*
X038622Y017937D01*
Y017437D02*
Y017937D01*
Y017437D02*
X038622Y012000D01*
X025811D02*
X038622D01*
X024811D02*
X025811D01*
X024811D02*
Y012000D01*
X013000D02*
X024811D01*
X013000Y012000D02*
Y012000D01*
X012000D02*
X013000Y012000D01*
X012000Y022874D02*
X012000Y012000D01*
X012000Y022874D02*
X038222D01*
X038622Y022874D01*
X037622Y016937D02*
X037622Y013000D01*
X025811Y016937D02*
X037622D01*
X025811Y013000D02*
X025811Y016937D01*
X025811Y013000D02*
X037622D01*
X037622Y021874D02*
X037622Y017937D01*
X025811Y021874D02*
X037622Y021874D01*
X025811Y021874D02*
X025811Y017937D01*
X037622D01*
X024811Y016937D02*
X024811Y013000D01*
X013000Y016937D02*
X024811D01*
X013000D02*
X013000Y013000D01*
X024811D01*
Y017937D02*
X024811Y021874D01*
X013000Y021874D02*
X024811Y021874D01*
X013000Y017937D02*
Y021874D01*
Y017937D02*
X024811D01*
X010000Y024874D02*
X040622Y024874D01*
X010000Y010000D02*
Y024874D01*
Y010000D02*
X040622Y010000D01*
Y024874D01*
X013000Y016937D02*
X013000Y013000D01*
X013000Y016937D02*
X024811Y016937D01*
X024811Y013000D01*
X013000Y013000D02*
X024811Y013000D01*
X025811Y016937D02*
X025811Y013000D01*
X025811Y016937D02*
X037622Y016937D01*
X037622Y013000D01*
X025811Y013000D02*
X037622Y013000D01*
X013000Y021874D02*
X013000Y017937D01*
X013000Y021874D02*
X024811Y021874D01*
X024811Y017937D01*
X013000Y017937D02*
X024811Y017937D01*
X025811Y021874D02*
X025811Y017937D01*
X025811Y021874D02*
X037622Y021874D01*
X037622Y017937D01*
X025811Y017937D02*
X037622Y017937D01*
M02*
