G04 Layer_Color=65535*
%FSAX24Y24*%
%MOIN*%
G70*
G01*
G75*
%ADD21C,0.0100*%
%ADD23C,0.0080*%
%ADD32C,0.0039*%
%ADD33C,0.0098*%
%ADD34C,0.0079*%
%ADD35C,0.0050*%
%ADD36R,0.2362X0.0689*%
D21*
X020800Y024300D02*
X021333D01*
X021067D01*
Y023500D01*
X021600Y024300D02*
Y023500D01*
Y023900D01*
X022133D01*
Y024300D01*
Y023500D01*
X022399Y024300D02*
X022666D01*
X022533D01*
Y023500D01*
X022399D01*
X022666D01*
X023599Y024166D02*
X023466Y024300D01*
X023199D01*
X023066Y024166D01*
Y024033D01*
X023199Y023900D01*
X023466D01*
X023599Y023767D01*
Y023633D01*
X023466Y023500D01*
X023199D01*
X023066Y023633D01*
X025199Y024166D02*
X025065Y024300D01*
X024799D01*
X024665Y024166D01*
Y024033D01*
X024799Y023900D01*
X025065D01*
X025199Y023767D01*
Y023633D01*
X025065Y023500D01*
X024799D01*
X024665Y023633D01*
X025465Y024300D02*
X025732D01*
X025598D01*
Y023500D01*
X025465D01*
X025732D01*
X026132Y024300D02*
Y023500D01*
X026531D01*
X026665Y023633D01*
Y024166D01*
X026531Y024300D01*
X026132D01*
X027465D02*
X026931D01*
Y023500D01*
X027465D01*
X026931Y023900D02*
X027198D01*
X028531Y024300D02*
Y023633D01*
X028664Y023500D01*
X028931D01*
X029064Y023633D01*
Y024300D01*
X029331Y023500D02*
Y024300D01*
X029730D01*
X029864Y024166D01*
Y023900D01*
X029730Y023767D01*
X029331D01*
X011533Y011400D02*
X011000D01*
Y010600D01*
X011533D01*
X011000Y011000D02*
X011267D01*
X011800Y011400D02*
Y010600D01*
X012200D01*
X012333Y010733D01*
Y011266D01*
X012200Y011400D01*
X011800D01*
X013932Y011266D02*
X013799Y011400D01*
X013533D01*
X013399Y011266D01*
Y010733D01*
X013533Y010600D01*
X013799D01*
X013932Y010733D01*
Y011000D01*
X013666D01*
X014599Y011400D02*
X014332D01*
X014199Y011266D01*
Y010733D01*
X014332Y010600D01*
X014599D01*
X014732Y010733D01*
Y011266D01*
X014599Y011400D01*
X015532D02*
X014999D01*
Y010600D01*
X015532D01*
X014999Y011000D02*
X015265D01*
X016332Y011266D02*
X016198Y011400D01*
X015932D01*
X015798Y011266D01*
Y011133D01*
X015932Y011000D01*
X016198D01*
X016332Y010867D01*
Y010733D01*
X016198Y010600D01*
X015932D01*
X015798Y010733D01*
X017398Y010600D02*
Y011400D01*
X017798D01*
X017931Y011266D01*
Y011000D01*
X017798Y010867D01*
X017398D01*
X017665D02*
X017931Y010600D01*
X018598Y011400D02*
X018331D01*
X018198Y011266D01*
Y010733D01*
X018331Y010600D01*
X018598D01*
X018731Y010733D01*
Y011266D01*
X018598Y011400D01*
X018997D02*
Y010600D01*
X019397D01*
X019531Y010733D01*
Y010867D01*
X019397Y011000D01*
X018997D01*
X019397D01*
X019531Y011133D01*
Y011266D01*
X019397Y011400D01*
X018997D01*
X020197D02*
X019930D01*
X019797Y011266D01*
Y010733D01*
X019930Y010600D01*
X020197D01*
X020330Y010733D01*
Y011266D01*
X020197Y011400D01*
X020597D02*
X021130D01*
X020863D01*
Y010600D01*
X021930Y011266D02*
X021797Y011400D01*
X021530D01*
X021397Y011266D01*
Y011133D01*
X021530Y011000D01*
X021797D01*
X021930Y010867D01*
Y010733D01*
X021797Y010600D01*
X021530D01*
X021397Y010733D01*
X022196Y010600D02*
Y011400D01*
X022463Y011133D01*
X022730Y011400D01*
Y010600D01*
X023796Y011000D02*
X024329D01*
X025928Y010600D02*
X025395D01*
X025928Y011133D01*
Y011266D01*
X025795Y011400D01*
X025529D01*
X025395Y011266D01*
X026195D02*
X026328Y011400D01*
X026595D01*
X026728Y011266D01*
Y010733D01*
X026595Y010600D01*
X026328D01*
X026195Y010733D01*
Y011266D01*
X026995Y010600D02*
X027261D01*
X027128D01*
Y011400D01*
X026995Y011266D01*
X027661Y011400D02*
X028194D01*
Y011266D01*
X027661Y010733D01*
Y010600D01*
X029261Y011400D02*
Y010867D01*
X029527Y010600D01*
X029794Y010867D01*
Y011400D01*
X030060D02*
Y010600D01*
X030594D01*
X031393Y011400D02*
X030860D01*
Y011000D01*
X031127Y011133D01*
X031260D01*
X031393Y011000D01*
Y010733D01*
X031260Y010600D01*
X030994D01*
X030860Y010733D01*
X031660Y011266D02*
X031793Y011400D01*
X032060D01*
X032193Y011266D01*
Y011133D01*
X032060Y011000D01*
X031927D01*
X032060D01*
X032193Y010867D01*
Y010733D01*
X032060Y010600D01*
X031793D01*
X031660Y010733D01*
X032460Y011400D02*
Y010600D01*
X032993D01*
X033259Y011266D02*
X033393Y011400D01*
X033659D01*
X033793Y011266D01*
Y010733D01*
X033659Y010600D01*
X033393D01*
X033259Y010733D01*
Y011266D01*
X034059Y011400D02*
X034592Y010600D01*
Y011400D02*
X034059Y010600D01*
X035659D02*
Y011133D01*
X035925Y011400D01*
X036192Y011133D01*
Y010600D01*
Y011000D01*
X035659D01*
X036458Y010600D02*
Y011400D01*
X036858D01*
X036992Y011266D01*
Y011000D01*
X036858Y010867D01*
X036458D01*
X036725D02*
X036992Y010600D01*
X037258D02*
Y011400D01*
X037658D01*
X037791Y011266D01*
Y011000D01*
X037658Y010867D01*
X037258D01*
X037525D02*
X037791Y010600D01*
X038058D02*
Y011133D01*
X038324Y011400D01*
X038591Y011133D01*
Y010600D01*
Y011000D01*
X038058D01*
X038858Y011400D02*
Y011266D01*
X039124Y011000D01*
X039391Y011266D01*
Y011400D01*
X039124Y011000D02*
Y010600D01*
X017282Y015953D02*
G03*
X017282Y015953I-000049J000000D01*
G01*
X030093D02*
G03*
X030093Y015953I-000049J000000D01*
G01*
X017282Y020890D02*
G03*
X017282Y020890I-000049J000000D01*
G01*
X030093D02*
G03*
X030093Y020890I-000049J000000D01*
G01*
D23*
X018121Y016404D02*
X018255D01*
X018188D01*
Y016004D01*
X018121D01*
X018255D01*
X018454Y016404D02*
Y016004D01*
X018654D01*
X018721Y016071D01*
Y016338D01*
X018654Y016404D01*
X018454D01*
X018854Y016271D02*
X018921D01*
Y016204D01*
X018854D01*
Y016271D01*
Y016071D02*
X018921D01*
Y016004D01*
X018854D01*
Y016071D01*
X030932Y016404D02*
X031066D01*
X030999D01*
Y016004D01*
X030932D01*
X031066D01*
X031265Y016404D02*
Y016004D01*
X031465D01*
X031532Y016071D01*
Y016338D01*
X031465Y016404D01*
X031265D01*
X031665Y016271D02*
X031732D01*
Y016204D01*
X031665D01*
Y016271D01*
Y016071D02*
X031732D01*
Y016004D01*
X031665D01*
Y016071D01*
X018121Y021341D02*
X018255D01*
X018188D01*
Y020941D01*
X018121D01*
X018255D01*
X018454Y021341D02*
Y020941D01*
X018654D01*
X018721Y021008D01*
Y021275D01*
X018654Y021341D01*
X018454D01*
X018854Y021208D02*
X018921D01*
Y021141D01*
X018854D01*
Y021208D01*
Y021008D02*
X018921D01*
Y020941D01*
X018854D01*
Y021008D01*
X030932Y021341D02*
X031066D01*
X030999D01*
Y020941D01*
X030932D01*
X031066D01*
X031265Y021341D02*
Y020941D01*
X031465D01*
X031532Y021008D01*
Y021275D01*
X031465Y021341D01*
X031265D01*
X031665Y021208D02*
X031732D01*
Y021141D01*
X031665D01*
Y021208D01*
Y021008D02*
X031732D01*
Y020941D01*
X031665D01*
Y021008D01*
D32*
X016374Y015340D02*
G03*
X016374Y015340I-000020J000000D01*
G01*
X023456Y016753D02*
G03*
X023456Y016753I-000020J000000D01*
G01*
X014395Y016334D02*
G03*
X014395Y016334I-000020J000000D01*
G01*
X024339Y015559D02*
Y015756D01*
X024220Y015874D02*
X024339Y015756D01*
X024024Y015874D02*
X024220D01*
X024339Y014063D02*
Y014378D01*
X024024Y014063D02*
X024339D01*
X023315D02*
X023630D01*
X023315D02*
Y014378D01*
Y015559D02*
Y015874D01*
X023630D01*
X014496Y015559D02*
Y015756D01*
X014378Y015874D02*
X014496Y015756D01*
X014181Y015874D02*
X014378D01*
X014496Y014063D02*
Y014378D01*
X014181Y014063D02*
X014496D01*
X013472D02*
X013787D01*
X013472D02*
Y014378D01*
Y015559D02*
Y015874D01*
X013787D01*
X029185Y015340D02*
G03*
X029185Y015340I-000020J000000D01*
G01*
X036267Y016753D02*
G03*
X036267Y016753I-000020J000000D01*
G01*
X027206Y016334D02*
G03*
X027206Y016334I-000020J000000D01*
G01*
X037150Y015559D02*
Y015756D01*
X037032Y015874D02*
X037150Y015756D01*
X036835Y015874D02*
X037032D01*
X037150Y014063D02*
Y014378D01*
X036835Y014063D02*
X037150D01*
X036126D02*
X036441D01*
X036126D02*
Y014378D01*
Y015559D02*
Y015874D01*
X036441D01*
X027307Y015559D02*
Y015756D01*
X027189Y015874D02*
X027307Y015756D01*
X026992Y015874D02*
X027189D01*
X027307Y014063D02*
Y014378D01*
X026992Y014063D02*
X027307D01*
X026283D02*
X026598D01*
X026283D02*
Y014378D01*
Y015559D02*
Y015874D01*
X026598D01*
X016374Y020277D02*
G03*
X016374Y020277I-000020J000000D01*
G01*
X023456Y021690D02*
G03*
X023456Y021690I-000020J000000D01*
G01*
X014395Y021271D02*
G03*
X014395Y021271I-000020J000000D01*
G01*
X024339Y020496D02*
Y020693D01*
X024220Y020811D02*
X024339Y020693D01*
X024024Y020811D02*
X024220D01*
X024339Y019000D02*
Y019315D01*
X024024Y019000D02*
X024339D01*
X023315D02*
X023630D01*
X023315D02*
Y019315D01*
Y020496D02*
Y020811D01*
X023630D01*
X014496Y020496D02*
Y020693D01*
X014378Y020811D02*
X014496Y020693D01*
X014181Y020811D02*
X014378D01*
X014496Y019000D02*
Y019315D01*
X014181Y019000D02*
X014496D01*
X013472D02*
X013787D01*
X013472D02*
Y019315D01*
Y020496D02*
Y020811D01*
X013787D01*
X029185Y020277D02*
G03*
X029185Y020277I-000020J000000D01*
G01*
X036267Y021690D02*
G03*
X036267Y021690I-000020J000000D01*
G01*
X027206Y021271D02*
G03*
X027206Y021271I-000020J000000D01*
G01*
X037150Y020496D02*
Y020693D01*
X037032Y020811D02*
X037150Y020693D01*
X036835Y020811D02*
X037032D01*
X037150Y019000D02*
Y019315D01*
X036835Y019000D02*
X037150D01*
X036126D02*
X036441D01*
X036126D02*
Y019315D01*
Y020496D02*
Y020811D01*
X036441D01*
X027307Y020496D02*
Y020693D01*
X027189Y020811D02*
X027307Y020693D01*
X026992Y020811D02*
X027189D01*
X027307Y019000D02*
Y019315D01*
X026992Y019000D02*
X027307D01*
X026283D02*
X026598D01*
X026283D02*
Y019315D01*
Y020496D02*
Y020811D01*
X026598D01*
D33*
X017045Y015579D02*
G03*
X017045Y015579I-000049J000000D01*
G01*
X019890Y015372D02*
G03*
X019890Y015372I-000049J000000D01*
G01*
X029856Y015579D02*
G03*
X029856Y015579I-000049J000000D01*
G01*
X032701Y015372D02*
G03*
X032701Y015372I-000049J000000D01*
G01*
X017045Y020516D02*
G03*
X017045Y020516I-000049J000000D01*
G01*
X019890Y020309D02*
G03*
X019890Y020309I-000049J000000D01*
G01*
X029856Y020516D02*
G03*
X029856Y020516I-000049J000000D01*
G01*
X032701Y020309D02*
G03*
X032701Y020309I-000049J000000D01*
G01*
D34*
X017252Y014299D02*
X017370D01*
X017252D02*
Y014417D01*
Y015520D02*
Y015638D01*
X017370D01*
X018472D02*
X018591D01*
Y015520D02*
Y015638D01*
Y014299D02*
Y014417D01*
X018472Y014299D02*
X018591D01*
X020165Y015264D02*
X020402D01*
X020165Y014358D02*
X020402D01*
X020165D02*
Y015264D01*
X020402Y014358D02*
Y015264D01*
X021858Y013000D02*
Y016937D01*
X015953Y013000D02*
Y016937D01*
X030063Y014299D02*
X030181D01*
X030063D02*
Y014417D01*
Y015520D02*
Y015638D01*
X030181D01*
X031283D02*
X031402D01*
Y015520D02*
Y015638D01*
Y014299D02*
Y014417D01*
X031283Y014299D02*
X031402D01*
X032976Y015264D02*
X033213D01*
X032976Y014358D02*
X033213D01*
X032976D02*
Y015264D01*
X033213Y014358D02*
Y015264D01*
X034669Y013000D02*
Y016937D01*
X028764Y013000D02*
Y016937D01*
X017252Y019236D02*
X017370D01*
X017252D02*
Y019354D01*
Y020457D02*
Y020575D01*
X017370D01*
X018472D02*
X018591D01*
Y020457D02*
Y020575D01*
Y019236D02*
Y019354D01*
X018472Y019236D02*
X018591D01*
X020165Y020201D02*
X020402D01*
X020165Y019295D02*
X020402D01*
X020165D02*
Y020201D01*
X020402Y019295D02*
Y020201D01*
X021858Y017937D02*
Y021874D01*
X015953Y017937D02*
Y021874D01*
X030063Y019236D02*
X030181D01*
X030063D02*
Y019354D01*
Y020457D02*
Y020575D01*
X030181D01*
X031283D02*
X031402D01*
Y020457D02*
Y020575D01*
Y019236D02*
Y019354D01*
X031283Y019236D02*
X031402D01*
X032976Y020201D02*
X033213D01*
X032976Y019295D02*
X033213D01*
X032976D02*
Y020201D01*
X033213Y019295D02*
Y020201D01*
X034669Y017937D02*
Y021874D01*
X028764Y017937D02*
Y021874D01*
D35*
X016445Y016498D02*
Y016248D01*
X016570D01*
X016611Y016290D01*
Y016456D01*
X016570Y016498D01*
X016445D01*
X016695Y016248D02*
X016778D01*
X016736D01*
Y016498D01*
X016695Y016456D01*
X015037Y016555D02*
X014995Y016596D01*
X014912D01*
X014870Y016555D01*
Y016388D01*
X014912Y016346D01*
X014995D01*
X015037Y016388D01*
X015120Y016346D02*
X015203D01*
X015162D01*
Y016596D01*
X015120Y016555D01*
X014938Y014193D02*
X014897Y014234D01*
X014813D01*
X014772Y014193D01*
Y014026D01*
X014813Y013984D01*
X014897D01*
X014938Y014026D01*
X015188Y013984D02*
X015022D01*
X015188Y014151D01*
Y014193D01*
X015147Y014234D01*
X015063D01*
X015022Y014193D01*
X022911Y016555D02*
X022869Y016596D01*
X022786D01*
X022744Y016555D01*
Y016388D01*
X022786Y016346D01*
X022869D01*
X022911Y016388D01*
X022994Y016555D02*
X023036Y016596D01*
X023119D01*
X023161Y016555D01*
Y016513D01*
X023119Y016471D01*
X023077D01*
X023119D01*
X023161Y016430D01*
Y016388D01*
X023119Y016346D01*
X023036D01*
X022994Y016388D01*
X022812Y014193D02*
X022771Y014234D01*
X022687D01*
X022646Y014193D01*
Y014026D01*
X022687Y013984D01*
X022771D01*
X022812Y014026D01*
X023021Y013984D02*
Y014234D01*
X022896Y014109D01*
X023062D01*
X019342Y014167D02*
X019300Y014125D01*
Y014042D01*
X019342Y014000D01*
X019508D01*
X019550Y014042D01*
Y014125D01*
X019508Y014167D01*
X019300Y014417D02*
Y014250D01*
X019425D01*
X019383Y014333D01*
Y014375D01*
X019425Y014417D01*
X019508D01*
X019550Y014375D01*
Y014292D01*
X019508Y014250D01*
X021092Y014167D02*
X021050Y014125D01*
Y014042D01*
X021092Y014000D01*
X021258D01*
X021300Y014042D01*
Y014125D01*
X021258Y014167D01*
X021050Y014417D02*
X021092Y014333D01*
X021175Y014250D01*
X021258D01*
X021300Y014292D01*
Y014375D01*
X021258Y014417D01*
X021217D01*
X021175Y014375D01*
Y014250D01*
X018942Y014067D02*
X018900Y014025D01*
Y013942D01*
X018942Y013900D01*
X019108D01*
X019150Y013942D01*
Y014025D01*
X019108Y014067D01*
X018942Y014150D02*
X018900Y014192D01*
Y014275D01*
X018942Y014317D01*
X018983D01*
X019025Y014275D01*
X019067Y014317D01*
X019108D01*
X019150Y014275D01*
Y014192D01*
X019108Y014150D01*
X019067D01*
X019025Y014192D01*
X018983Y014150D01*
X018942D01*
X019025Y014192D02*
Y014275D01*
X017055Y013512D02*
Y013762D01*
X017180D01*
X017222Y013720D01*
Y013637D01*
X017180Y013595D01*
X017055D01*
X017138D02*
X017222Y013512D01*
X017472Y013762D02*
X017388Y013720D01*
X017305Y013637D01*
Y013553D01*
X017347Y013512D01*
X017430D01*
X017472Y013553D01*
Y013595D01*
X017430Y013637D01*
X017305D01*
X023039Y013295D02*
Y013545D01*
X023164D01*
X023206Y013504D01*
Y013420D01*
X023164Y013379D01*
X023039D01*
X023123D02*
X023206Y013295D01*
X023289Y013545D02*
X023456D01*
Y013504D01*
X023289Y013337D01*
Y013295D01*
X015067D02*
Y013545D01*
X015192D01*
X015234Y013504D01*
Y013420D01*
X015192Y013379D01*
X015067D01*
X015150D02*
X015234Y013295D01*
X015317Y013504D02*
X015359Y013545D01*
X015442D01*
X015483Y013504D01*
Y013462D01*
X015442Y013420D01*
X015483Y013379D01*
Y013337D01*
X015442Y013295D01*
X015359D01*
X015317Y013337D01*
Y013379D01*
X015359Y013420D01*
X015317Y013462D01*
Y013504D01*
X015359Y013420D02*
X015442D01*
X017035Y013886D02*
Y014136D01*
X017160D01*
X017202Y014094D01*
Y014011D01*
X017160Y013969D01*
X017035D01*
X017119D02*
X017202Y013886D01*
X017285Y013927D02*
X017327Y013886D01*
X017410D01*
X017452Y013927D01*
Y014094D01*
X017410Y014136D01*
X017327D01*
X017285Y014094D01*
Y014052D01*
X017327Y014011D01*
X017452D01*
X018413Y014037D02*
Y013829D01*
X018455Y013787D01*
X018538D01*
X018580Y013829D01*
Y014037D01*
X018663Y013787D02*
X018747D01*
X018705D01*
Y014037D01*
X018663Y013996D01*
X024364Y013492D02*
X024573D01*
X024614Y013534D01*
Y013617D01*
X024573Y013659D01*
X024364D01*
X024614Y013909D02*
Y013742D01*
X024448Y013909D01*
X024406D01*
X024364Y013867D01*
Y013784D01*
X024406Y013742D01*
X013242Y013492D02*
X013450D01*
X013492Y013534D01*
Y013617D01*
X013450Y013659D01*
X013242D01*
X013284Y013742D02*
X013242Y013784D01*
Y013867D01*
X013284Y013909D01*
X013326D01*
X013367Y013867D01*
Y013825D01*
Y013867D01*
X013409Y013909D01*
X013450D01*
X013492Y013867D01*
Y013784D01*
X013450Y013742D01*
X016937Y016228D02*
Y016478D01*
X017062D01*
X017104Y016437D01*
Y016353D01*
X017062Y016312D01*
X016937D01*
X017020D02*
X017104Y016228D01*
X017354D02*
X017187D01*
X017354Y016395D01*
Y016437D01*
X017312Y016478D01*
X017229D01*
X017187Y016437D01*
X020087Y015711D02*
Y015502D01*
X020128Y015461D01*
X020212D01*
X020253Y015502D01*
Y015711D01*
X020461Y015461D02*
Y015711D01*
X020337Y015586D01*
X020503D01*
X024319Y016695D02*
Y016445D01*
X024444D01*
X024486Y016487D01*
Y016653D01*
X024444Y016695D01*
X024319D01*
X024735Y016445D02*
X024569D01*
X024735Y016611D01*
Y016653D01*
X024694Y016695D01*
X024610D01*
X024569Y016653D01*
X024319Y015953D02*
Y016203D01*
X024444D01*
X024486Y016161D01*
Y016078D01*
X024444Y016036D01*
X024319D01*
X024402D02*
X024486Y015953D01*
X024569D02*
X024652D01*
X024610D01*
Y016203D01*
X024569Y016161D01*
X022449Y013295D02*
Y013545D01*
X022574D01*
X022615Y013504D01*
Y013420D01*
X022574Y013379D01*
X022449D01*
X022532D02*
X022615Y013295D01*
X022699Y013504D02*
X022740Y013545D01*
X022824D01*
X022865Y013504D01*
Y013462D01*
X022824Y013420D01*
X022782D01*
X022824D01*
X022865Y013379D01*
Y013337D01*
X022824Y013295D01*
X022740D01*
X022699Y013337D01*
X013197Y016695D02*
Y016445D01*
X013322D01*
X013363Y016487D01*
Y016653D01*
X013322Y016695D01*
X013197D01*
X013447Y016653D02*
X013488Y016695D01*
X013572D01*
X013613Y016653D01*
Y016611D01*
X013572Y016570D01*
X013530D01*
X013572D01*
X013613Y016528D01*
Y016487D01*
X013572Y016445D01*
X013488D01*
X013447Y016487D01*
X013197Y016051D02*
Y016301D01*
X013322D01*
X013363Y016259D01*
Y016176D01*
X013322Y016134D01*
X013197D01*
X013280D02*
X013363Y016051D01*
X013447D02*
X013530D01*
X013488D01*
Y016301D01*
X013447Y016259D01*
X013655D02*
X013697Y016301D01*
X013780D01*
X013822Y016259D01*
Y016093D01*
X013780Y016051D01*
X013697D01*
X013655Y016093D01*
Y016259D01*
X014378Y013295D02*
Y013545D01*
X014503D01*
X014545Y013504D01*
Y013420D01*
X014503Y013379D01*
X014378D01*
X014461D02*
X014545Y013295D01*
X014628D02*
X014711D01*
X014670D01*
Y013545D01*
X014628Y013504D01*
X014836Y013295D02*
X014919D01*
X014878D01*
Y013545D01*
X014836Y013504D01*
X029256Y016498D02*
Y016248D01*
X029381D01*
X029423Y016290D01*
Y016456D01*
X029381Y016498D01*
X029256D01*
X029506Y016248D02*
X029589D01*
X029547D01*
Y016498D01*
X029506Y016456D01*
X027848Y016555D02*
X027806Y016596D01*
X027723D01*
X027681Y016555D01*
Y016388D01*
X027723Y016346D01*
X027806D01*
X027848Y016388D01*
X027931Y016346D02*
X028014D01*
X027973D01*
Y016596D01*
X027931Y016555D01*
X027749Y014193D02*
X027708Y014234D01*
X027624D01*
X027583Y014193D01*
Y014026D01*
X027624Y013984D01*
X027708D01*
X027749Y014026D01*
X027999Y013984D02*
X027833D01*
X027999Y014151D01*
Y014193D01*
X027958Y014234D01*
X027874D01*
X027833Y014193D01*
X035722Y016555D02*
X035680Y016596D01*
X035597D01*
X035555Y016555D01*
Y016388D01*
X035597Y016346D01*
X035680D01*
X035722Y016388D01*
X035805Y016555D02*
X035847Y016596D01*
X035930D01*
X035972Y016555D01*
Y016513D01*
X035930Y016471D01*
X035888D01*
X035930D01*
X035972Y016430D01*
Y016388D01*
X035930Y016346D01*
X035847D01*
X035805Y016388D01*
X035623Y014193D02*
X035582Y014234D01*
X035498D01*
X035457Y014193D01*
Y014026D01*
X035498Y013984D01*
X035582D01*
X035623Y014026D01*
X035832Y013984D02*
Y014234D01*
X035707Y014109D01*
X035873D01*
X032153Y014167D02*
X032111Y014125D01*
Y014042D01*
X032153Y014000D01*
X032319D01*
X032361Y014042D01*
Y014125D01*
X032319Y014167D01*
X032111Y014417D02*
Y014250D01*
X032236D01*
X032194Y014333D01*
Y014375D01*
X032236Y014417D01*
X032319D01*
X032361Y014375D01*
Y014292D01*
X032319Y014250D01*
X033903Y014167D02*
X033861Y014125D01*
Y014042D01*
X033903Y014000D01*
X034069D01*
X034111Y014042D01*
Y014125D01*
X034069Y014167D01*
X033861Y014417D02*
X033903Y014333D01*
X033986Y014250D01*
X034069D01*
X034111Y014292D01*
Y014375D01*
X034069Y014417D01*
X034028D01*
X033986Y014375D01*
Y014250D01*
X031753Y014067D02*
X031711Y014025D01*
Y013942D01*
X031753Y013900D01*
X031919D01*
X031961Y013942D01*
Y014025D01*
X031919Y014067D01*
X031753Y014150D02*
X031711Y014192D01*
Y014275D01*
X031753Y014317D01*
X031794D01*
X031836Y014275D01*
X031878Y014317D01*
X031919D01*
X031961Y014275D01*
Y014192D01*
X031919Y014150D01*
X031878D01*
X031836Y014192D01*
X031794Y014150D01*
X031753D01*
X031836Y014192D02*
Y014275D01*
X029866Y013512D02*
Y013762D01*
X029991D01*
X030033Y013720D01*
Y013637D01*
X029991Y013595D01*
X029866D01*
X029949D02*
X030033Y013512D01*
X030283Y013762D02*
X030199Y013720D01*
X030116Y013637D01*
Y013553D01*
X030158Y013512D01*
X030241D01*
X030283Y013553D01*
Y013595D01*
X030241Y013637D01*
X030116D01*
X035850Y013295D02*
Y013545D01*
X035975D01*
X036017Y013504D01*
Y013420D01*
X035975Y013379D01*
X035850D01*
X035934D02*
X036017Y013295D01*
X036100Y013545D02*
X036267D01*
Y013504D01*
X036100Y013337D01*
Y013295D01*
X027878D02*
Y013545D01*
X028003D01*
X028045Y013504D01*
Y013420D01*
X028003Y013379D01*
X027878D01*
X027961D02*
X028045Y013295D01*
X028128Y013504D02*
X028170Y013545D01*
X028253D01*
X028294Y013504D01*
Y013462D01*
X028253Y013420D01*
X028294Y013379D01*
Y013337D01*
X028253Y013295D01*
X028170D01*
X028128Y013337D01*
Y013379D01*
X028170Y013420D01*
X028128Y013462D01*
Y013504D01*
X028170Y013420D02*
X028253D01*
X029846Y013886D02*
Y014136D01*
X029971D01*
X030013Y014094D01*
Y014011D01*
X029971Y013969D01*
X029846D01*
X029930D02*
X030013Y013886D01*
X030096Y013927D02*
X030138Y013886D01*
X030221D01*
X030263Y013927D01*
Y014094D01*
X030221Y014136D01*
X030138D01*
X030096Y014094D01*
Y014052D01*
X030138Y014011D01*
X030263D01*
X031224Y014037D02*
Y013829D01*
X031266Y013787D01*
X031349D01*
X031391Y013829D01*
Y014037D01*
X031474Y013787D02*
X031558D01*
X031516D01*
Y014037D01*
X031474Y013996D01*
X037175Y013492D02*
X037384D01*
X037425Y013534D01*
Y013617D01*
X037384Y013659D01*
X037175D01*
X037425Y013909D02*
Y013742D01*
X037259Y013909D01*
X037217D01*
X037175Y013867D01*
Y013784D01*
X037217Y013742D01*
X026053Y013492D02*
X026261D01*
X026303Y013534D01*
Y013617D01*
X026261Y013659D01*
X026053D01*
X026095Y013742D02*
X026053Y013784D01*
Y013867D01*
X026095Y013909D01*
X026137D01*
X026178Y013867D01*
Y013825D01*
Y013867D01*
X026220Y013909D01*
X026261D01*
X026303Y013867D01*
Y013784D01*
X026261Y013742D01*
X029748Y016228D02*
Y016478D01*
X029873D01*
X029915Y016437D01*
Y016353D01*
X029873Y016312D01*
X029748D01*
X029831D02*
X029915Y016228D01*
X030165D02*
X029998D01*
X030165Y016395D01*
Y016437D01*
X030123Y016478D01*
X030040D01*
X029998Y016437D01*
X032898Y015711D02*
Y015502D01*
X032939Y015461D01*
X033023D01*
X033064Y015502D01*
Y015711D01*
X033273Y015461D02*
Y015711D01*
X033148Y015586D01*
X033314D01*
X037130Y016695D02*
Y016445D01*
X037255D01*
X037297Y016487D01*
Y016653D01*
X037255Y016695D01*
X037130D01*
X037546Y016445D02*
X037380D01*
X037546Y016611D01*
Y016653D01*
X037505Y016695D01*
X037422D01*
X037380Y016653D01*
X037130Y015953D02*
Y016203D01*
X037255D01*
X037297Y016161D01*
Y016078D01*
X037255Y016036D01*
X037130D01*
X037213D02*
X037297Y015953D01*
X037380D02*
X037463D01*
X037422D01*
Y016203D01*
X037380Y016161D01*
X035260Y013295D02*
Y013545D01*
X035385D01*
X035426Y013504D01*
Y013420D01*
X035385Y013379D01*
X035260D01*
X035343D02*
X035426Y013295D01*
X035510Y013504D02*
X035551Y013545D01*
X035635D01*
X035676Y013504D01*
Y013462D01*
X035635Y013420D01*
X035593D01*
X035635D01*
X035676Y013379D01*
Y013337D01*
X035635Y013295D01*
X035551D01*
X035510Y013337D01*
X026008Y016695D02*
Y016445D01*
X026133D01*
X026174Y016487D01*
Y016653D01*
X026133Y016695D01*
X026008D01*
X026258Y016653D02*
X026299Y016695D01*
X026383D01*
X026424Y016653D01*
Y016611D01*
X026383Y016570D01*
X026341D01*
X026383D01*
X026424Y016528D01*
Y016487D01*
X026383Y016445D01*
X026299D01*
X026258Y016487D01*
X026008Y016051D02*
Y016301D01*
X026133D01*
X026174Y016259D01*
Y016176D01*
X026133Y016134D01*
X026008D01*
X026091D02*
X026174Y016051D01*
X026258D02*
X026341D01*
X026299D01*
Y016301D01*
X026258Y016259D01*
X026466D02*
X026508Y016301D01*
X026591D01*
X026633Y016259D01*
Y016093D01*
X026591Y016051D01*
X026508D01*
X026466Y016093D01*
Y016259D01*
X027189Y013295D02*
Y013545D01*
X027314D01*
X027356Y013504D01*
Y013420D01*
X027314Y013379D01*
X027189D01*
X027272D02*
X027356Y013295D01*
X027439D02*
X027522D01*
X027481D01*
Y013545D01*
X027439Y013504D01*
X027647Y013295D02*
X027730D01*
X027689D01*
Y013545D01*
X027647Y013504D01*
X016445Y021435D02*
Y021185D01*
X016570D01*
X016611Y021227D01*
Y021393D01*
X016570Y021435D01*
X016445D01*
X016695Y021185D02*
X016778D01*
X016736D01*
Y021435D01*
X016695Y021393D01*
X015037Y021492D02*
X014995Y021533D01*
X014912D01*
X014870Y021492D01*
Y021325D01*
X014912Y021283D01*
X014995D01*
X015037Y021325D01*
X015120Y021283D02*
X015203D01*
X015162D01*
Y021533D01*
X015120Y021492D01*
X014938Y019130D02*
X014897Y019171D01*
X014813D01*
X014772Y019130D01*
Y018963D01*
X014813Y018921D01*
X014897D01*
X014938Y018963D01*
X015188Y018921D02*
X015022D01*
X015188Y019088D01*
Y019130D01*
X015147Y019171D01*
X015063D01*
X015022Y019130D01*
X022911Y021492D02*
X022869Y021533D01*
X022786D01*
X022744Y021492D01*
Y021325D01*
X022786Y021283D01*
X022869D01*
X022911Y021325D01*
X022994Y021492D02*
X023036Y021533D01*
X023119D01*
X023161Y021492D01*
Y021450D01*
X023119Y021408D01*
X023077D01*
X023119D01*
X023161Y021367D01*
Y021325D01*
X023119Y021283D01*
X023036D01*
X022994Y021325D01*
X022812Y019130D02*
X022771Y019171D01*
X022687D01*
X022646Y019130D01*
Y018963D01*
X022687Y018921D01*
X022771D01*
X022812Y018963D01*
X023021Y018921D02*
Y019171D01*
X022896Y019046D01*
X023062D01*
X019342Y019104D02*
X019300Y019062D01*
Y018979D01*
X019342Y018937D01*
X019508D01*
X019550Y018979D01*
Y019062D01*
X019508Y019104D01*
X019300Y019354D02*
Y019187D01*
X019425D01*
X019383Y019270D01*
Y019312D01*
X019425Y019354D01*
X019508D01*
X019550Y019312D01*
Y019229D01*
X019508Y019187D01*
X021092Y019104D02*
X021050Y019062D01*
Y018979D01*
X021092Y018937D01*
X021258D01*
X021300Y018979D01*
Y019062D01*
X021258Y019104D01*
X021050Y019354D02*
X021092Y019270D01*
X021175Y019187D01*
X021258D01*
X021300Y019229D01*
Y019312D01*
X021258Y019354D01*
X021217D01*
X021175Y019312D01*
Y019187D01*
X018942Y019004D02*
X018900Y018962D01*
Y018879D01*
X018942Y018837D01*
X019108D01*
X019150Y018879D01*
Y018962D01*
X019108Y019004D01*
X018942Y019087D02*
X018900Y019129D01*
Y019212D01*
X018942Y019254D01*
X018983D01*
X019025Y019212D01*
X019067Y019254D01*
X019108D01*
X019150Y019212D01*
Y019129D01*
X019108Y019087D01*
X019067D01*
X019025Y019129D01*
X018983Y019087D01*
X018942D01*
X019025Y019129D02*
Y019212D01*
X017055Y018449D02*
Y018699D01*
X017180D01*
X017222Y018657D01*
Y018574D01*
X017180Y018532D01*
X017055D01*
X017138D02*
X017222Y018449D01*
X017472Y018699D02*
X017388Y018657D01*
X017305Y018574D01*
Y018490D01*
X017347Y018449D01*
X017430D01*
X017472Y018490D01*
Y018532D01*
X017430Y018574D01*
X017305D01*
X023039Y018232D02*
Y018482D01*
X023164D01*
X023206Y018441D01*
Y018357D01*
X023164Y018316D01*
X023039D01*
X023123D02*
X023206Y018232D01*
X023289Y018482D02*
X023456D01*
Y018441D01*
X023289Y018274D01*
Y018232D01*
X015067D02*
Y018482D01*
X015192D01*
X015234Y018441D01*
Y018357D01*
X015192Y018316D01*
X015067D01*
X015150D02*
X015234Y018232D01*
X015317Y018441D02*
X015359Y018482D01*
X015442D01*
X015483Y018441D01*
Y018399D01*
X015442Y018357D01*
X015483Y018316D01*
Y018274D01*
X015442Y018232D01*
X015359D01*
X015317Y018274D01*
Y018316D01*
X015359Y018357D01*
X015317Y018399D01*
Y018441D01*
X015359Y018357D02*
X015442D01*
X017035Y018823D02*
Y019073D01*
X017160D01*
X017202Y019031D01*
Y018948D01*
X017160Y018906D01*
X017035D01*
X017119D02*
X017202Y018823D01*
X017285Y018865D02*
X017327Y018823D01*
X017410D01*
X017452Y018865D01*
Y019031D01*
X017410Y019073D01*
X017327D01*
X017285Y019031D01*
Y018989D01*
X017327Y018948D01*
X017452D01*
X018413Y018974D02*
Y018766D01*
X018455Y018724D01*
X018538D01*
X018580Y018766D01*
Y018974D01*
X018663Y018724D02*
X018747D01*
X018705D01*
Y018974D01*
X018663Y018933D01*
X024364Y018429D02*
X024573D01*
X024614Y018471D01*
Y018554D01*
X024573Y018596D01*
X024364D01*
X024614Y018846D02*
Y018679D01*
X024448Y018846D01*
X024406D01*
X024364Y018804D01*
Y018721D01*
X024406Y018679D01*
X013242Y018429D02*
X013450D01*
X013492Y018471D01*
Y018554D01*
X013450Y018596D01*
X013242D01*
X013284Y018679D02*
X013242Y018721D01*
Y018804D01*
X013284Y018846D01*
X013326D01*
X013367Y018804D01*
Y018762D01*
Y018804D01*
X013409Y018846D01*
X013450D01*
X013492Y018804D01*
Y018721D01*
X013450Y018679D01*
X016937Y021165D02*
Y021415D01*
X017062D01*
X017104Y021374D01*
Y021290D01*
X017062Y021249D01*
X016937D01*
X017020D02*
X017104Y021165D01*
X017354D02*
X017187D01*
X017354Y021332D01*
Y021374D01*
X017312Y021415D01*
X017229D01*
X017187Y021374D01*
X020087Y020648D02*
Y020439D01*
X020128Y020398D01*
X020212D01*
X020253Y020439D01*
Y020648D01*
X020461Y020398D02*
Y020648D01*
X020337Y020523D01*
X020503D01*
X024319Y021632D02*
Y021382D01*
X024444D01*
X024486Y021424D01*
Y021590D01*
X024444Y021632D01*
X024319D01*
X024735Y021382D02*
X024569D01*
X024735Y021549D01*
Y021590D01*
X024694Y021632D01*
X024610D01*
X024569Y021590D01*
X024319Y020890D02*
Y021140D01*
X024444D01*
X024486Y021098D01*
Y021015D01*
X024444Y020973D01*
X024319D01*
X024402D02*
X024486Y020890D01*
X024569D02*
X024652D01*
X024610D01*
Y021140D01*
X024569Y021098D01*
X022449Y018232D02*
Y018482D01*
X022574D01*
X022615Y018441D01*
Y018357D01*
X022574Y018316D01*
X022449D01*
X022532D02*
X022615Y018232D01*
X022699Y018441D02*
X022740Y018482D01*
X022824D01*
X022865Y018441D01*
Y018399D01*
X022824Y018357D01*
X022782D01*
X022824D01*
X022865Y018316D01*
Y018274D01*
X022824Y018232D01*
X022740D01*
X022699Y018274D01*
X013197Y021632D02*
Y021382D01*
X013322D01*
X013363Y021424D01*
Y021590D01*
X013322Y021632D01*
X013197D01*
X013447Y021590D02*
X013488Y021632D01*
X013572D01*
X013613Y021590D01*
Y021549D01*
X013572Y021507D01*
X013530D01*
X013572D01*
X013613Y021465D01*
Y021424D01*
X013572Y021382D01*
X013488D01*
X013447Y021424D01*
X013197Y020988D02*
Y021238D01*
X013322D01*
X013363Y021196D01*
Y021113D01*
X013322Y021072D01*
X013197D01*
X013280D02*
X013363Y020988D01*
X013447D02*
X013530D01*
X013488D01*
Y021238D01*
X013447Y021196D01*
X013655D02*
X013697Y021238D01*
X013780D01*
X013822Y021196D01*
Y021030D01*
X013780Y020988D01*
X013697D01*
X013655Y021030D01*
Y021196D01*
X014378Y018232D02*
Y018482D01*
X014503D01*
X014545Y018441D01*
Y018357D01*
X014503Y018316D01*
X014378D01*
X014461D02*
X014545Y018232D01*
X014628D02*
X014711D01*
X014670D01*
Y018482D01*
X014628Y018441D01*
X014836Y018232D02*
X014919D01*
X014878D01*
Y018482D01*
X014836Y018441D01*
X029256Y021435D02*
Y021185D01*
X029381D01*
X029423Y021227D01*
Y021393D01*
X029381Y021435D01*
X029256D01*
X029506Y021185D02*
X029589D01*
X029547D01*
Y021435D01*
X029506Y021393D01*
X027848Y021492D02*
X027806Y021533D01*
X027723D01*
X027681Y021492D01*
Y021325D01*
X027723Y021283D01*
X027806D01*
X027848Y021325D01*
X027931Y021283D02*
X028014D01*
X027973D01*
Y021533D01*
X027931Y021492D01*
X027749Y019130D02*
X027708Y019171D01*
X027624D01*
X027583Y019130D01*
Y018963D01*
X027624Y018921D01*
X027708D01*
X027749Y018963D01*
X027999Y018921D02*
X027833D01*
X027999Y019088D01*
Y019130D01*
X027958Y019171D01*
X027874D01*
X027833Y019130D01*
X035722Y021492D02*
X035680Y021533D01*
X035597D01*
X035555Y021492D01*
Y021325D01*
X035597Y021283D01*
X035680D01*
X035722Y021325D01*
X035805Y021492D02*
X035847Y021533D01*
X035930D01*
X035972Y021492D01*
Y021450D01*
X035930Y021408D01*
X035888D01*
X035930D01*
X035972Y021367D01*
Y021325D01*
X035930Y021283D01*
X035847D01*
X035805Y021325D01*
X035623Y019130D02*
X035582Y019171D01*
X035498D01*
X035457Y019130D01*
Y018963D01*
X035498Y018921D01*
X035582D01*
X035623Y018963D01*
X035832Y018921D02*
Y019171D01*
X035707Y019046D01*
X035873D01*
X032153Y019104D02*
X032111Y019062D01*
Y018979D01*
X032153Y018937D01*
X032319D01*
X032361Y018979D01*
Y019062D01*
X032319Y019104D01*
X032111Y019354D02*
Y019187D01*
X032236D01*
X032194Y019270D01*
Y019312D01*
X032236Y019354D01*
X032319D01*
X032361Y019312D01*
Y019229D01*
X032319Y019187D01*
X033903Y019104D02*
X033861Y019062D01*
Y018979D01*
X033903Y018937D01*
X034069D01*
X034111Y018979D01*
Y019062D01*
X034069Y019104D01*
X033861Y019354D02*
X033903Y019270D01*
X033986Y019187D01*
X034069D01*
X034111Y019229D01*
Y019312D01*
X034069Y019354D01*
X034028D01*
X033986Y019312D01*
Y019187D01*
X031753Y019004D02*
X031711Y018962D01*
Y018879D01*
X031753Y018837D01*
X031919D01*
X031961Y018879D01*
Y018962D01*
X031919Y019004D01*
X031753Y019087D02*
X031711Y019129D01*
Y019212D01*
X031753Y019254D01*
X031794D01*
X031836Y019212D01*
X031878Y019254D01*
X031919D01*
X031961Y019212D01*
Y019129D01*
X031919Y019087D01*
X031878D01*
X031836Y019129D01*
X031794Y019087D01*
X031753D01*
X031836Y019129D02*
Y019212D01*
X029866Y018449D02*
Y018699D01*
X029991D01*
X030033Y018657D01*
Y018574D01*
X029991Y018532D01*
X029866D01*
X029949D02*
X030033Y018449D01*
X030283Y018699D02*
X030199Y018657D01*
X030116Y018574D01*
Y018490D01*
X030158Y018449D01*
X030241D01*
X030283Y018490D01*
Y018532D01*
X030241Y018574D01*
X030116D01*
X035850Y018232D02*
Y018482D01*
X035975D01*
X036017Y018441D01*
Y018357D01*
X035975Y018316D01*
X035850D01*
X035934D02*
X036017Y018232D01*
X036100Y018482D02*
X036267D01*
Y018441D01*
X036100Y018274D01*
Y018232D01*
X027878D02*
Y018482D01*
X028003D01*
X028045Y018441D01*
Y018357D01*
X028003Y018316D01*
X027878D01*
X027961D02*
X028045Y018232D01*
X028128Y018441D02*
X028170Y018482D01*
X028253D01*
X028294Y018441D01*
Y018399D01*
X028253Y018357D01*
X028294Y018316D01*
Y018274D01*
X028253Y018232D01*
X028170D01*
X028128Y018274D01*
Y018316D01*
X028170Y018357D01*
X028128Y018399D01*
Y018441D01*
X028170Y018357D02*
X028253D01*
X029846Y018823D02*
Y019073D01*
X029971D01*
X030013Y019031D01*
Y018948D01*
X029971Y018906D01*
X029846D01*
X029930D02*
X030013Y018823D01*
X030096Y018865D02*
X030138Y018823D01*
X030221D01*
X030263Y018865D01*
Y019031D01*
X030221Y019073D01*
X030138D01*
X030096Y019031D01*
Y018989D01*
X030138Y018948D01*
X030263D01*
X031224Y018974D02*
Y018766D01*
X031266Y018724D01*
X031349D01*
X031391Y018766D01*
Y018974D01*
X031474Y018724D02*
X031558D01*
X031516D01*
Y018974D01*
X031474Y018933D01*
X037175Y018429D02*
X037384D01*
X037425Y018471D01*
Y018554D01*
X037384Y018596D01*
X037175D01*
X037425Y018846D02*
Y018679D01*
X037259Y018846D01*
X037217D01*
X037175Y018804D01*
Y018721D01*
X037217Y018679D01*
X026053Y018429D02*
X026261D01*
X026303Y018471D01*
Y018554D01*
X026261Y018596D01*
X026053D01*
X026095Y018679D02*
X026053Y018721D01*
Y018804D01*
X026095Y018846D01*
X026137D01*
X026178Y018804D01*
Y018762D01*
Y018804D01*
X026220Y018846D01*
X026261D01*
X026303Y018804D01*
Y018721D01*
X026261Y018679D01*
X029748Y021165D02*
Y021415D01*
X029873D01*
X029915Y021374D01*
Y021290D01*
X029873Y021249D01*
X029748D01*
X029831D02*
X029915Y021165D01*
X030165D02*
X029998D01*
X030165Y021332D01*
Y021374D01*
X030123Y021415D01*
X030040D01*
X029998Y021374D01*
X032898Y020648D02*
Y020439D01*
X032939Y020398D01*
X033023D01*
X033064Y020439D01*
Y020648D01*
X033273Y020398D02*
Y020648D01*
X033148Y020523D01*
X033314D01*
X037130Y021632D02*
Y021382D01*
X037255D01*
X037297Y021424D01*
Y021590D01*
X037255Y021632D01*
X037130D01*
X037546Y021382D02*
X037380D01*
X037546Y021549D01*
Y021590D01*
X037505Y021632D01*
X037422D01*
X037380Y021590D01*
X037130Y020890D02*
Y021140D01*
X037255D01*
X037297Y021098D01*
Y021015D01*
X037255Y020973D01*
X037130D01*
X037213D02*
X037297Y020890D01*
X037380D02*
X037463D01*
X037422D01*
Y021140D01*
X037380Y021098D01*
X035260Y018232D02*
Y018482D01*
X035385D01*
X035426Y018441D01*
Y018357D01*
X035385Y018316D01*
X035260D01*
X035343D02*
X035426Y018232D01*
X035510Y018441D02*
X035551Y018482D01*
X035635D01*
X035676Y018441D01*
Y018399D01*
X035635Y018357D01*
X035593D01*
X035635D01*
X035676Y018316D01*
Y018274D01*
X035635Y018232D01*
X035551D01*
X035510Y018274D01*
X026008Y021632D02*
Y021382D01*
X026133D01*
X026174Y021424D01*
Y021590D01*
X026133Y021632D01*
X026008D01*
X026258Y021590D02*
X026299Y021632D01*
X026383D01*
X026424Y021590D01*
Y021549D01*
X026383Y021507D01*
X026341D01*
X026383D01*
X026424Y021465D01*
Y021424D01*
X026383Y021382D01*
X026299D01*
X026258Y021424D01*
X026008Y020988D02*
Y021238D01*
X026133D01*
X026174Y021196D01*
Y021113D01*
X026133Y021072D01*
X026008D01*
X026091D02*
X026174Y020988D01*
X026258D02*
X026341D01*
X026299D01*
Y021238D01*
X026258Y021196D01*
X026466D02*
X026508Y021238D01*
X026591D01*
X026633Y021196D01*
Y021030D01*
X026591Y020988D01*
X026508D01*
X026466Y021030D01*
Y021196D01*
X027189Y018232D02*
Y018482D01*
X027314D01*
X027356Y018441D01*
Y018357D01*
X027314Y018316D01*
X027189D01*
X027272D02*
X027356Y018232D01*
X027439D02*
X027522D01*
X027481D01*
Y018482D01*
X027439Y018441D01*
X027647Y018232D02*
X027730D01*
X027689D01*
Y018482D01*
X027647Y018441D01*
D36*
X020185Y016199D02*
D03*
X032996D02*
D03*
X020185Y021136D02*
D03*
X032996D02*
D03*
M02*
