M48
;Layer_Color=9474304
;FILE_FORMAT=2:4
INCH
;TYPE=PLATED
T1F00S00C0.0118
T2F00S00C0.0138
T3F00S00C0.0236
%
T01
X013354Y013315
X020244Y014535
X024457Y013354
X026165Y013315
X033055Y014535
X037268Y013354
X037228Y016543
X035752
X033961Y016189
X032406Y016642
X033055Y019472
X033961Y021126
X032406Y021579
X035752Y021480
X037228
X037268Y018291
X031126Y016642
X029354
X026205Y016543
X026165Y018252
X024457Y018291
X024417Y016543
X022941
X021150Y016189
X019594Y016642
X018315
X016543
Y021579
X018315
X019594
X021150Y021126
X022941Y021480
X024417
X026205
X029354Y021579
X031126
X020244Y019472
X013354Y018252
X013394Y016543
Y021480
T02
X013984Y014772
X013984Y015205
X014969Y014378
X017232Y014280
X017291Y013630
X016858Y013472
X016839Y015067
X018472Y013512
X018827Y013512
X019181Y013512
X019611Y013504
X019406Y013776
X020087Y013512
X019906Y014299
X020194Y015123
X022843Y014417
X023138Y014083
X023827
Y014772
Y015165
X024457Y014654
X026795Y014772
X026795Y015205
X027780Y014378
X030043Y014280
X030102Y013630
X029669Y013472
X029650Y015067
X031283Y013512
X031638Y013512
X031992Y013512
X032422Y013504
X032217Y013776
X032898Y013512
X032717Y014299
X033005Y015123
X035654Y014417
X035949Y014083
X036638
Y014772
Y015165
X037268Y014654
X037130Y016150
X036638Y019020
Y019709
Y020102
X037268Y019591
X037130Y021087
X035654Y019354
X035949Y019020
X032717Y019236
X032898Y018449
X032422Y018441
X031992Y018449
X031638Y018449
X031283Y018449
X032217Y018713
X033005Y020060
X033409Y020575
Y015638
X030713Y016051
X030356Y015837
X030064Y015654
X030234Y016242
X029453Y016248
X027583Y016445
X027780Y019315
X026795Y019709
X026795Y020142
X027583Y021382
X029453Y021185
X030234Y021179
X030356Y020774
X030064Y020591
X029650Y020004
X030043Y019217
X030102Y018567
X029669Y018409
X030713Y020988
X024319Y021087
X023827Y020102
Y019709
Y019020
X023138
X022843Y019354
X024457Y019591
X024319Y016150
X020598Y015638
X017902Y016051
X017545Y015837
X017253Y015654
X017423Y016242
X016642Y016248
X016858Y018409
X017291Y018567
X017232Y019217
X016839Y020004
X017253Y020591
X017545Y020774
X017423Y021179
X017902Y020988
X016642Y021185
X020598Y020575
X020194Y020060
X019906Y019236
X020087Y018449
X019611Y018441
X019181Y018449
X018827Y018449
X018472Y018449
X019406Y018713
X014969Y019315
X013984Y019709
X013984Y020142
X014772Y021382
Y016445
T03
X015953Y013000
Y013492
Y013984
Y014476
Y014969
Y015461
X021858
Y014969
Y014476
Y013984
Y013492
Y013000
X028764
Y013492
Y013984
Y014476
Y014969
Y015461
X034669
Y014969
Y014476
Y013984
Y013492
Y013000
Y015953
Y016445
Y016937
Y017937
Y018429
Y018921
Y019413
Y019906
Y020398
Y020890
Y021382
Y021874
X028764
Y021382
Y020890
Y020398
Y019906
Y019413
Y018921
Y018429
Y017937
Y016937
Y016445
Y015953
X021858
Y016445
Y016937
Y017937
Y018429
Y018921
Y019413
Y019906
Y020398
Y020890
Y021382
Y021874
X015953
Y021382
Y020890
Y020398
Y019906
Y019413
Y018921
Y018429
Y017937
Y016937
Y016445
Y015953
M30
