G04 Layer_Color=16711935*
%FSAX24Y24*%
%MOIN*%
G70*
G01*
G75*
%ADD44R,0.0277X0.0296*%
%ADD46R,0.0631X0.0572*%
G04:AMPARAMS|DCode=48|XSize=84.7mil|YSize=41.4mil|CornerRadius=20.7mil|HoleSize=0mil|Usage=FLASHONLY|Rotation=0.000|XOffset=0mil|YOffset=0mil|HoleType=Round|Shape=RoundedRectangle|*
%AMROUNDEDRECTD48*
21,1,0.0847,0.0000,0,0,0.0*
21,1,0.0433,0.0414,0,0,0.0*
1,1,0.0414,0.0217,0.0000*
1,1,0.0414,-0.0217,0.0000*
1,1,0.0414,-0.0217,0.0000*
1,1,0.0414,0.0217,0.0000*
%
%ADD48ROUNDEDRECTD48*%
G04:AMPARAMS|DCode=49|XSize=41.4mil|YSize=41.4mil|CornerRadius=20.7mil|HoleSize=0mil|Usage=FLASHONLY|Rotation=0.000|XOffset=0mil|YOffset=0mil|HoleType=Round|Shape=RoundedRectangle|*
%AMROUNDEDRECTD49*
21,1,0.0414,0.0000,0,0,0.0*
21,1,0.0000,0.0414,0,0,0.0*
1,1,0.0414,0.0000,0.0000*
1,1,0.0414,0.0000,0.0000*
1,1,0.0414,0.0000,0.0000*
1,1,0.0414,0.0000,0.0000*
%
%ADD49ROUNDEDRECTD49*%
%ADD50C,0.0336*%
%ADD51R,0.0359X0.1005*%
D44*
X020411Y013945D02*
D03*
X020785D02*
D03*
X020411Y013591D02*
D03*
X020785D02*
D03*
X033222Y013945D02*
D03*
X033596D02*
D03*
X033222Y013591D02*
D03*
X033596D02*
D03*
X020411Y018882D02*
D03*
X020785D02*
D03*
X020411Y018528D02*
D03*
X020785D02*
D03*
X033222Y018882D02*
D03*
X033596D02*
D03*
X033222Y018528D02*
D03*
X033596D02*
D03*
D46*
X020717Y014496D02*
D03*
Y015126D02*
D03*
X033528Y014496D02*
D03*
Y015126D02*
D03*
X020717Y019433D02*
D03*
Y020063D02*
D03*
X033528Y019433D02*
D03*
Y020063D02*
D03*
D48*
X021858Y014969D02*
D03*
Y014476D02*
D03*
Y015461D02*
D03*
Y015953D02*
D03*
Y013984D02*
D03*
Y013492D02*
D03*
Y016445D02*
D03*
X015953D02*
D03*
Y013492D02*
D03*
Y013984D02*
D03*
Y015953D02*
D03*
Y015461D02*
D03*
Y014476D02*
D03*
Y014969D02*
D03*
X034669D02*
D03*
Y014476D02*
D03*
Y015461D02*
D03*
Y015953D02*
D03*
Y013984D02*
D03*
Y013492D02*
D03*
Y016445D02*
D03*
X028764D02*
D03*
Y013492D02*
D03*
Y013984D02*
D03*
Y015953D02*
D03*
Y015461D02*
D03*
Y014476D02*
D03*
Y014969D02*
D03*
X021858Y019906D02*
D03*
Y019413D02*
D03*
Y020398D02*
D03*
Y020890D02*
D03*
Y018921D02*
D03*
Y018429D02*
D03*
Y021382D02*
D03*
X015953D02*
D03*
Y018429D02*
D03*
Y018921D02*
D03*
Y020890D02*
D03*
Y020398D02*
D03*
Y019413D02*
D03*
Y019906D02*
D03*
X034669D02*
D03*
Y019413D02*
D03*
Y020398D02*
D03*
Y020890D02*
D03*
Y018921D02*
D03*
Y018429D02*
D03*
Y021382D02*
D03*
X028764D02*
D03*
Y018429D02*
D03*
Y018921D02*
D03*
Y020890D02*
D03*
Y020398D02*
D03*
Y019413D02*
D03*
Y019906D02*
D03*
D49*
X015953Y016937D02*
D03*
Y013000D02*
D03*
X021858D02*
D03*
Y016937D02*
D03*
X028764D02*
D03*
Y013000D02*
D03*
X034669D02*
D03*
Y016937D02*
D03*
X015953Y021874D02*
D03*
Y017937D02*
D03*
X021858D02*
D03*
Y021874D02*
D03*
X028764D02*
D03*
Y017937D02*
D03*
X034669D02*
D03*
Y021874D02*
D03*
D50*
X017545Y015837D02*
D03*
X017902Y016051D02*
D03*
X016839Y015067D02*
D03*
X030356Y015837D02*
D03*
X030713Y016051D02*
D03*
X029650Y015067D02*
D03*
X017545Y020774D02*
D03*
X017902Y020988D02*
D03*
X016839Y020004D02*
D03*
X030356Y020774D02*
D03*
X030713Y020988D02*
D03*
X029650Y020004D02*
D03*
D51*
X019906Y014201D02*
D03*
Y015736D02*
D03*
X019406Y014201D02*
D03*
X018906D02*
D03*
X018406D02*
D03*
X017906D02*
D03*
X019906Y015736D02*
D03*
X019406D02*
D03*
X018906D02*
D03*
X018406D02*
D03*
X017906D02*
D03*
X032717Y014201D02*
D03*
Y015736D02*
D03*
X032217Y014201D02*
D03*
X031717D02*
D03*
X031217D02*
D03*
X030717D02*
D03*
X032717Y015736D02*
D03*
X032217D02*
D03*
X031717D02*
D03*
X031217D02*
D03*
X030717D02*
D03*
X019906Y019138D02*
D03*
Y020673D02*
D03*
X019406Y019138D02*
D03*
X018906D02*
D03*
X018406D02*
D03*
X017906D02*
D03*
X019906Y020673D02*
D03*
X019406D02*
D03*
X018906D02*
D03*
X018406D02*
D03*
X017906D02*
D03*
X032717Y019138D02*
D03*
Y020673D02*
D03*
X032217Y019138D02*
D03*
X031717D02*
D03*
X031217D02*
D03*
X030717D02*
D03*
X032717Y020673D02*
D03*
X032217D02*
D03*
X031717D02*
D03*
X031217D02*
D03*
X030717D02*
D03*
M02*
